<?xml version="1.0" encoding="UTF-8" standalone="no"?>
<!DOCTYPE svg PUBLIC "-//W3C//DTD SVG 1.1//EN"
 "http://www.w3.org/Graphics/SVG/1.1/DTD/svg11.dtd">
<!-- Generated by graphviz version 2.43.0 (0)
 -->
<!-- Title: aoi3 Pages: 1 -->
<svg width="299pt" height="360pt"
 viewBox="0.00 0.00 299.00 360.00" xmlns="http://www.w3.org/2000/svg" xmlns:xlink="http://www.w3.org/1999/xlink">
<g id="graph0" class="graph" transform="scale(1 1) rotate(0) translate(4 356)">
<title>aoi3</title>
<!-- a -->
<g id="node-a" class="node">
<title>a</title>
<text text-anchor="middle" x="106" y="-329.6" font-family="monospace" font-size="18.00" fill="#1a4d80">a</text>
</g>
<!-- n6 -->
<g id="node-n6" class="node">
<title>n6</title>
<ellipse fill="#f7f7f7" stroke="#333333" cx="80" cy="-256" rx="20" ry="20"/>
<text text-anchor="middle" x="80" y="-252.3" font-family="monospace" font-size="14.00">n6</text>
</g>
<!-- a-&gt;n6 -->
<g id="edge-a-n6" class="edge">
<title>a-&gt;n6</title>
<path fill="none" stroke="#333333" stroke-width="1.4" d="M100.1,-315.75C96.97,-306.59 93.04,-295.11 89.49,-284.74"/>
<polygon fill="#333333" stroke="#333333" stroke-width="1.4" points="92.79,-283.57 86.24,-275.24 86.16,-285.83 92.79,-283.57"/>
</g>
<!-- n7 -->
<g id="node-n7" class="node">
<title>n7</title>
<ellipse fill="#f7f7f7" stroke="#333333" cx="145" cy="-256" rx="20" ry="20"/>
<text text-anchor="middle" x="145" y="-252.3" font-family="monospace" font-size="14.00">n7</text>
</g>
<!-- a-&gt;n7 -->
<g id="edge-a-n7" class="edge">
<title>a-&gt;n7</title>
<path fill="none" stroke="#333333" stroke-width="1.4" d="M114.85,-315.75C119.79,-306.13 126.04,-293.95 131.56,-283.18"/>
<polygon fill="#333333" stroke="#333333" stroke-width="1.4" points="134.73,-284.67 136.19,-274.18 128.51,-281.48 134.73,-284.67"/>
</g>
<!-- b -->
<g id="node-b" class="node">
<title>b</title>
<text text-anchor="middle" x="27" y="-329.6" font-family="monospace" font-size="18.00" fill="#1a4d80">b</text>
</g>
<!-- b-&gt;n6 -->
<g id="edge-b-n6" class="edge">
<title>b-&gt;n6</title>
<path fill="none" stroke="#333333" stroke-width="1.4" d="M39.03,-315.75C46.11,-305.59 55.19,-292.58 63,-281.38"/>
<polygon fill="#333333" stroke="#333333" stroke-width="1.4" points="66.08,-283.09 68.92,-272.88 60.33,-279.08 66.08,-283.09"/>
</g>
<!-- c -->
<g id="node-c" class="node">
<title>c</title>
<text text-anchor="middle" x="264" y="-329.6" font-family="monospace" font-size="18.00" fill="#1a4d80">c</text>
</g>
<!-- n9 -->
<g id="node-n9" class="node">
<title>n9</title>
<ellipse fill="#f7f7f7" stroke="#333333" cx="210" cy="-256" rx="20" ry="20"/>
<text text-anchor="middle" x="210" y="-252.3" font-family="monospace" font-size="14.00">n9</text>
</g>
<!-- c-&gt;n9 -->
<g id="edge-c-n9" class="edge">
<title>c-&gt;n9</title>
<path fill="none" stroke="#333333" stroke-width="1.4" d="M251.75,-315.75C244.46,-305.49 235.1,-292.32 227.09,-281.05"/>
<polygon fill="#333333" stroke="#333333" stroke-width="1.4" points="229.93,-279.01 221.28,-272.88 224.22,-283.06 229.93,-279.01"/>
</g>
<!-- d -->
<g id="node-d" class="node">
<title>d</title>
<text text-anchor="middle" x="185" y="-329.6" font-family="monospace" font-size="18.00" fill="#1a4d80">d</text>
</g>
<!-- d-&gt;n7 -->
<g id="edge-d-n7" class="edge">
<title>d-&gt;n7</title>
<path fill="none" stroke="#333333" stroke-width="1.4" d="M175.92,-315.75C170.82,-306.07 164.36,-293.78 158.66,-282.95"/>
<polygon fill="#333333" stroke="#333333" stroke-width="1.4" points="161.66,-281.13 153.9,-273.92 155.46,-284.39 161.66,-281.13"/>
</g>
<!-- d-&gt;n9 -->
<g id="edge-d-n9" class="edge">
<title>d-&gt;n9</title>
<path fill="none" stroke="#333333" stroke-width="1.4" d="M190.67,-315.75C193.66,-306.69 197.38,-295.35 200.77,-285.06"/>
<polygon fill="#333333" stroke="#333333" stroke-width="1.4" points="204.2,-285.83 204,-275.24 197.55,-283.64 204.2,-285.83"/>
</g>
<!-- n8 -->
<g id="node-n8" class="node">
<title>n8</title>
<ellipse fill="#f7f7f7" stroke="#333333" cx="145" cy="-176" rx="20" ry="20"/>
<text text-anchor="middle" x="145" y="-172.3" font-family="monospace" font-size="14.00">n8</text>
</g>
<!-- n6-&gt;n8 -->
<g id="edge-n6-n8" class="edge">
<title>n6-&gt;n8</title>
<path fill="none" stroke="#333333" stroke-width="1.4" stroke-dasharray="5,2" d="M92.53,-239.96C101.97,-228.63 115.09,-212.9 125.84,-199.99"/>
<polygon fill="#333333" stroke="#333333" stroke-width="1.4" points="128.79,-201.92 132.51,-191.99 123.42,-197.43 128.79,-201.92"/>
</g>
<!-- n7-&gt;n8 -->
<g id="edge-n7-n8" class="edge">
<title>n7-&gt;n8</title>
<path fill="none" stroke="#333333" stroke-width="1.4" stroke-dasharray="5,2" d="M145,-235.72C145,-226.84 145,-216.11 145,-206.27"/>
<polygon fill="#333333" stroke="#333333" stroke-width="1.4" points="148.5,-206.06 145,-196.06 141.5,-206.06 148.5,-206.06"/>
</g>
<!-- f -->
<g id="node-f" class="node">
<title>f</title>
<ellipse fill="#f7f7f7" stroke="#333333" cx="174" cy="-96" rx="20" ry="20"/>
<text text-anchor="middle" x="174" y="-92.3" font-family="monospace" font-size="14.00">f</text>
</g>
<!-- n9-&gt;f -->
<g id="edge-n9-f" class="edge">
<title>n9-&gt;f</title>
<path fill="none" stroke="#333333" stroke-width="1.4" stroke-dasharray="5,2" d="M205.73,-236.25C199.5,-208.93 187.89,-157.94 180.57,-125.83"/>
<polygon fill="#333333" stroke="#333333" stroke-width="1.4" points="183.9,-124.69 178.27,-115.72 177.07,-126.25 183.9,-124.69"/>
</g>
<!-- n8-&gt;f -->
<g id="edge-n8-f" class="edge">
<title>n8-&gt;f</title>
<path fill="none" stroke="#333333" stroke-width="1.4" d="M151.73,-156.91C155.31,-147.26 159.8,-135.19 163.81,-124.42"/>
<polygon fill="#333333" stroke="#333333" stroke-width="1.4" points="167.11,-125.59 167.31,-114.99 160.54,-123.15 167.11,-125.59"/>
</g>
<!-- PO -->
<g id="node-PO" class="node">
<title>PO</title>
<text text-anchor="middle" x="174" y="-14.3" font-family="monospace" font-size="14.00" fill="#806000">PO</text>
</g>
<!-- f-&gt;PO -->
<g id="edge-f-PO" class="edge">
<title>f-&gt;PO</title>
<path fill="none" stroke="#333333" stroke-width="1.4" stroke-dasharray="5,2" d="M174,-75.82C174,-66.84 174,-55.99 174,-46.19"/>
<polygon fill="#333333" stroke="#333333" stroke-width="1.4" points="177.5,-46.1 174,-36.1 170.5,-46.1 177.5,-46.1"/>
</g>
</g>
</svg>
