<?xml version="1.0" encoding="UTF-8" standalone="no"?>
<!DOCTYPE svg PUBLIC "-//W3C//DTD SVG 1.1//EN"
 "http://www.w3.org/Graphics/SVG/1.1/DTD/svg11.dtd">
<!-- Generated by graphviz version 2.43.0 (0)
 -->
<!-- Title: balance_chain Pages: 1 -->
<svg width="378pt" height="462pt"
 viewBox="0.00 0.00 378.00 462.00" xmlns="http://www.w3.org/2000/svg" xmlns:xlink="http://www.w3.org/1999/xlink">
<g id="graph0" class="graph" transform="scale(1 1) rotate(0) translate(4 458)">
<title>balance_chain</title>
<text text-anchor="middle" x="185" y="-439.6" font-family="monospace" font-size="13.00">Right-leaning AND chain (depth 4)</text>
<!-- a -->
<g id="node-a" class="node">
<title>a</title>
<text text-anchor="middle" x="264" y="-409.6" font-family="monospace" font-size="18.00" fill="#1a4d80">a</text>
</g>
<!-- n1 -->
<g id="node-n1" class="node">
<title>n1</title>
<ellipse fill="#f7f7f7" stroke="#333333" cx="225" cy="-336" rx="20" ry="20"/>
<text text-anchor="middle" x="225" y="-332.3" font-family="monospace" font-size="14.00">n1</text>
</g>
<!-- a-&gt;n1 -->
<g id="edge-a-n1" class="edge">
<title>a-&gt;n1</title>
<path fill="none" stroke="#333333" stroke-width="1.4" d="M255.15,-395.75C250.21,-386.13 243.96,-373.95 238.44,-363.18"/>
<polygon fill="#333333" stroke="#333333" stroke-width="1.4" points="241.49,-361.48 233.81,-354.18 235.27,-364.67 241.49,-361.48"/>
</g>
<!-- b -->
<g id="node-b" class="node">
<title>b</title>
<text text-anchor="middle" x="185" y="-409.6" font-family="monospace" font-size="18.00" fill="#1a4d80">b</text>
</g>
<!-- b-&gt;n1 -->
<g id="edge-b-n1" class="edge">
<title>b-&gt;n1</title>
<path fill="none" stroke="#333333" stroke-width="1.4" d="M194.08,-395.75C199.18,-386.07 205.64,-373.78 211.34,-362.95"/>
<polygon fill="#333333" stroke="#333333" stroke-width="1.4" points="214.54,-364.39 216.1,-353.92 208.34,-361.13 214.54,-364.39"/>
</g>
<!-- c -->
<g id="node-c" class="node">
<title>c</title>
<text text-anchor="middle" x="343" y="-409.6" font-family="monospace" font-size="18.00" fill="#1a4d80">c</text>
</g>
<!-- n2 -->
<g id="node-n2" class="node">
<title>n2</title>
<ellipse fill="#f7f7f7" stroke="#333333" cx="225" cy="-256" rx="20" ry="20"/>
<text text-anchor="middle" x="225" y="-252.3" font-family="monospace" font-size="14.00">n2</text>
</g>
<!-- c-&gt;n2 -->
<g id="edge-c-n2" class="edge">
<title>c-&gt;n2</title>
<path fill="none" stroke="#333333" stroke-width="1.4" d="M329.92,-395.71C308.75,-367.72 266.93,-312.44 242.98,-280.77"/>
<polygon fill="#333333" stroke="#333333" stroke-width="1.4" points="245.55,-278.37 236.73,-272.5 239.97,-282.59 245.55,-278.37"/>
</g>
<!-- d -->
<g id="node-d" class="node">
<title>d</title>
<text text-anchor="middle" x="106" y="-409.6" font-family="monospace" font-size="18.00" fill="#1a4d80">d</text>
</g>
<!-- n3 -->
<g id="node-n3" class="node">
<title>n3</title>
<ellipse fill="#f7f7f7" stroke="#333333" cx="106" cy="-176" rx="20" ry="20"/>
<text text-anchor="middle" x="106" y="-172.3" font-family="monospace" font-size="14.00">n3</text>
</g>
<!-- d-&gt;n3 -->
<g id="edge-d-n3" class="edge">
<title>d-&gt;n3</title>
<path fill="none" stroke="#333333" stroke-width="1.4" d="M106,-395.65C106,-355.48 106,-255.77 106,-206.09"/>
<polygon fill="#333333" stroke="#333333" stroke-width="1.4" points="109.5,-206.01 106,-196.01 102.5,-206.01 109.5,-206.01"/>
</g>
<!-- e -->
<g id="node-e" class="node">
<title>e</title>
<text text-anchor="middle" x="27" y="-409.6" font-family="monospace" font-size="18.00" fill="#1a4d80">e</text>
</g>
<!-- f -->
<g id="node-f" class="node">
<title>f</title>
<ellipse fill="#f7f7f7" stroke="#333333" cx="66" cy="-96" rx="20" ry="20"/>
<text text-anchor="middle" x="66" y="-92.3" font-family="monospace" font-size="14.00">f</text>
</g>
<!-- e-&gt;f -->
<g id="edge-e-f" class="edge">
<title>e-&gt;f</title>
<path fill="none" stroke="#333333" stroke-width="1.4" d="M29.15,-395.56C35.54,-343.82 54.42,-190.79 62.39,-126.24"/>
<polygon fill="#333333" stroke="#333333" stroke-width="1.4" points="65.91,-126.32 63.66,-115.97 58.96,-125.46 65.91,-126.32"/>
</g>
<!-- n1-&gt;n2 -->
<g id="edge-n1-n2" class="edge">
<title>n1-&gt;n2</title>
<path fill="none" stroke="#333333" stroke-width="1.4" d="M225,-315.72C225,-306.84 225,-296.11 225,-286.27"/>
<polygon fill="#333333" stroke="#333333" stroke-width="1.4" points="228.5,-286.06 225,-276.06 221.5,-286.06 228.5,-286.06"/>
</g>
<!-- n2-&gt;n3 -->
<g id="edge-n2-n3" class="edge">
<title>n2-&gt;n3</title>
<path fill="none" stroke="#333333" stroke-width="1.4" d="M208.45,-244.15C188.38,-231 154.35,-208.69 131.06,-193.42"/>
<polygon fill="#333333" stroke="#333333" stroke-width="1.4" points="132.69,-190.31 122.41,-187.75 128.85,-196.16 132.69,-190.31"/>
</g>
<!-- n3-&gt;f -->
<g id="edge-n3-f" class="edge">
<title>n3-&gt;f</title>
<path fill="none" stroke="#333333" stroke-width="1.4" d="M97.12,-157.69C91.94,-147.59 85.31,-134.65 79.49,-123.31"/>
<polygon fill="#333333" stroke="#333333" stroke-width="1.4" points="82.53,-121.56 74.85,-114.26 76.3,-124.76 82.53,-121.56"/>
</g>
<!-- PO -->
<g id="node-PO" class="node">
<title>PO</title>
<text text-anchor="middle" x="66" y="-14.3" font-family="monospace" font-size="14.00" fill="#806000">PO</text>
</g>
<!-- f-&gt;PO -->
<g id="edge-f-PO" class="edge">
<title>f-&gt;PO</title>
<path fill="none" stroke="#333333" stroke-width="1.4" d="M66,-75.82C66,-66.84 66,-55.99 66,-46.19"/>
<polygon fill="#333333" stroke="#333333" stroke-width="1.4" points="69.5,-46.1 66,-36.1 62.5,-46.1 69.5,-46.1"/>
</g>
</g>
</svg>
