<?xml version="1.0" encoding="UTF-8" standalone="no"?>
<!DOCTYPE svg PUBLIC "-//W3C//DTD SVG 1.1//EN"
 "http://www.w3.org/Graphics/SVG/1.1/DTD/svg11.dtd">
<!-- Generated by graphviz version 2.43.0 (0)
 -->
<!-- Title: balance_tree Pages: 1 -->
<svg width="378pt" height="382pt"
 viewBox="0.00 0.00 378.00 382.00" xmlns="http://www.w3.org/2000/svg" xmlns:xlink="http://www.w3.org/1999/xlink">
<g id="graph0" class="graph" transform="scale(1 1) rotate(0) translate(4 378)">
<title>balance_tree</title>
<text text-anchor="middle" x="185" y="-359.6" font-family="monospace" font-size="13.00">Balanced tree (depth 3)</text>
<!-- a -->
<g id="aux-node-a" class="node">
<title>a</title>
<text text-anchor="middle" x="106" y="-329.6" font-family="monospace" font-size="18.00" fill="#1a4d80">a</text>
</g>
<!-- m1 -->
<g id="aux-node-m1" class="node">
<title>m1</title>
<ellipse fill="#f7f7f7" stroke="#333333" cx="106" cy="-256" rx="20" ry="20"/>
<text text-anchor="middle" x="106" y="-252.3" font-family="monospace" font-size="14.00">m1</text>
</g>
<!-- a-&gt;m1 -->
<g id="aux-edge-a-m1" class="edge">
<title>a-&gt;m1</title>
<path fill="none" stroke="#333333" stroke-width="1.4" d="M106,-315.75C106,-306.98 106,-296.07 106,-286.05"/>
<polygon fill="#333333" stroke="#333333" stroke-width="1.4" points="109.5,-286.04 106,-276.04 102.5,-286.04 109.5,-286.04"/>
</g>
<!-- b -->
<g id="aux-node-b" class="node">
<title>b</title>
<text text-anchor="middle" x="27" y="-329.6" font-family="monospace" font-size="18.00" fill="#1a4d80">b</text>
</g>
<!-- b-&gt;m1 -->
<g id="aux-edge-b-m1" class="edge">
<title>b-&gt;m1</title>
<path fill="none" stroke="#333333" stroke-width="1.4" d="M44.93,-315.75C56.76,-304.37 72.33,-289.39 84.79,-277.41"/>
<polygon fill="#333333" stroke="#333333" stroke-width="1.4" points="87.3,-279.85 92.08,-270.39 82.44,-274.81 87.3,-279.85"/>
</g>
<!-- c -->
<g id="aux-node-c" class="node">
<title>c</title>
<text text-anchor="middle" x="185" y="-329.6" font-family="monospace" font-size="18.00" fill="#1a4d80">c</text>
</g>
<!-- m2 -->
<g id="aux-node-m2" class="node">
<title>m2</title>
<ellipse fill="#f7f7f7" stroke="#333333" cx="224" cy="-256" rx="20" ry="20"/>
<text text-anchor="middle" x="224" y="-252.3" font-family="monospace" font-size="14.00">m2</text>
</g>
<!-- c-&gt;m2 -->
<g id="aux-edge-c-m2" class="edge">
<title>c-&gt;m2</title>
<path fill="none" stroke="#333333" stroke-width="1.4" d="M193.85,-315.75C198.79,-306.13 205.04,-293.95 210.56,-283.18"/>
<polygon fill="#333333" stroke="#333333" stroke-width="1.4" points="213.73,-284.67 215.19,-274.18 207.51,-281.48 213.73,-284.67"/>
</g>
<!-- d -->
<g id="aux-node-d" class="node">
<title>d</title>
<text text-anchor="middle" x="264" y="-329.6" font-family="monospace" font-size="18.00" fill="#1a4d80">d</text>
</g>
<!-- d-&gt;m2 -->
<g id="aux-edge-d-m2" class="edge">
<title>d-&gt;m2</title>
<path fill="none" stroke="#333333" stroke-width="1.4" d="M254.92,-315.75C249.82,-306.07 243.36,-293.78 237.66,-282.95"/>
<polygon fill="#333333" stroke="#333333" stroke-width="1.4" points="240.66,-281.13 232.9,-273.92 234.46,-284.39 240.66,-281.13"/>
</g>
<!-- e -->
<g id="aux-node-e" class="node">
<title>e</title>
<text text-anchor="middle" x="343" y="-329.6" font-family="monospace" font-size="18.00" fill="#1a4d80">e</text>
</g>
<!-- m4 -->
<g id="aux-node-m4" class="node">
<title>m4</title>
<ellipse fill="#f7f7f7" stroke="#333333" cx="303" cy="-96" rx="20" ry="20"/>
<text text-anchor="middle" x="303" y="-92.3" font-family="monospace" font-size="14.00">f</text>
</g>
<!-- e-&gt;m4 -->
<g id="aux-edge-e-m4" class="edge">
<title>e-&gt;m4</title>
<path fill="none" stroke="#333333" stroke-width="1.4" d="M340.06,-315.65C333.25,-275.48 316.35,-175.77 307.93,-126.09"/>
<polygon fill="#333333" stroke="#333333" stroke-width="1.4" points="311.34,-125.28 306.22,-116.01 304.44,-126.45 311.34,-125.28"/>
</g>
<!-- m3 -->
<g id="aux-node-m3" class="node">
<title>m3</title>
<ellipse fill="#f7f7f7" stroke="#333333" cx="224" cy="-176" rx="20" ry="20"/>
<text text-anchor="middle" x="224" y="-172.3" font-family="monospace" font-size="14.00">m3</text>
</g>
<!-- m1-&gt;m3 -->
<g id="aux-edge-m1-m3" class="edge">
<title>m1-&gt;m3</title>
<path fill="none" stroke="#333333" stroke-width="1.4" d="M122.41,-244.15C142.31,-231 176.06,-208.69 199.15,-193.42"/>
<polygon fill="#333333" stroke="#333333" stroke-width="1.4" points="201.32,-196.19 207.73,-187.75 197.46,-190.35 201.32,-196.19"/>
</g>
<!-- m2-&gt;m3 -->
<g id="aux-edge-m2-m3" class="edge">
<title>m2-&gt;m3</title>
<path fill="none" stroke="#333333" stroke-width="1.4" d="M224,-235.72C224,-226.84 224,-216.11 224,-206.27"/>
<polygon fill="#333333" stroke="#333333" stroke-width="1.4" points="227.5,-206.06 224,-196.06 220.5,-206.06 227.5,-206.06"/>
</g>
<!-- m3-&gt;m4 -->
<g id="aux-edge-m3-m4" class="edge">
<title>m3-&gt;m4</title>
<path fill="none" stroke="#333333" stroke-width="1.4" d="M237.76,-161.41C249.92,-149.41 267.84,-131.71 281.83,-117.9"/>
<polygon fill="#333333" stroke="#333333" stroke-width="1.4" points="284.47,-120.21 289.13,-110.69 279.56,-115.23 284.47,-120.21"/>
</g>
<!-- PO -->
<g id="aux-node-PO" class="node">
<title>PO</title>
<text text-anchor="middle" x="303" y="-14.3" font-family="monospace" font-size="14.00" fill="#806000">PO</text>
</g>
<!-- m4-&gt;PO -->
<g id="aux-edge-m4-PO" class="edge">
<title>m4-&gt;PO</title>
<path fill="none" stroke="#333333" stroke-width="1.4" d="M303,-75.82C303,-66.84 303,-55.99 303,-46.19"/>
<polygon fill="#333333" stroke="#333333" stroke-width="1.4" points="306.5,-46.1 303,-36.1 299.5,-46.1 306.5,-46.1"/>
</g>
</g>
</svg>
