<?xml version="1.0" encoding="UTF-8" standalone="no"?>
<!DOCTYPE svg PUBLIC "-//W3C//DTD SVG 1.1//EN"
 "http://www.w3.org/Graphics/SVG/1.1/DTD/svg11.dtd">
<!-- Generated by graphviz version 2.43.0 (0)
 -->
<!-- Title: blackbox4 Pages: 1 -->
<svg width="353pt" height="266pt"
 viewBox="0.00 0.00 353.00 266.00" xmlns="http://www.w3.org/2000/svg" xmlns:xlink="http://www.w3.org/1999/xlink">
<g id="graph0" class="graph" transform="scale(1 1) rotate(0) translate(4 262)">
<title>blackbox4</title>
<!-- x0 -->
<g id="node-x0" class="node">
<title>x0</title>
<text text-anchor="middle" x="27" y="-235.6" font-family="monospace" font-size="18.00" fill="#1a4d80">x0</text>
</g>
<!-- cut -->
<g id="node-cut" class="node">
<title>cut</title>
<polygon fill="#fff6e6" stroke="#b08040" stroke-width="2" points="244,-172 100,-172 100,-86 244,-86 244,-172"/>
<text text-anchor="middle" x="172" y="-132.8" font-family="monospace" font-size="14.00">cut</text>
<text text-anchor="middle" x="172" y="-117.8" font-family="monospace" font-size="14.00">f(x0..x3)</text>
</g>
<!-- x0-&gt;cut -->
<g id="edge-x0-cut" class="edge">
<title>x0-&gt;cut</title>
<path fill="none" stroke="#333333" stroke-width="1.4" d="M49.66,-221.97C65.34,-210.18 87.05,-193.86 107.83,-178.24"/>
<polygon fill="#333333" stroke="#333333" stroke-width="1.4" points="110.15,-180.87 116.04,-172.06 105.95,-175.28 110.15,-180.87"/>
</g>
<!-- x1 -->
<g id="node-x1" class="node">
<title>x1</title>
<text text-anchor="middle" x="124" y="-235.6" font-family="monospace" font-size="18.00" fill="#1a4d80">x1</text>
</g>
<!-- x1-&gt;cut -->
<g id="edge-x1-cut" class="edge">
<title>x1-&gt;cut</title>
<path fill="none" stroke="#333333" stroke-width="1.4" d="M131.5,-221.97C136.3,-211.06 142.81,-196.28 149.21,-181.76"/>
<polygon fill="#333333" stroke="#333333" stroke-width="1.4" points="152.55,-182.86 153.37,-172.3 146.14,-180.04 152.55,-182.86"/>
</g>
<!-- x2 -->
<g id="node-x2" class="node">
<title>x2</title>
<text text-anchor="middle" x="221" y="-235.6" font-family="monospace" font-size="18.00" fill="#1a4d80">x2</text>
</g>
<!-- x2-&gt;cut -->
<g id="edge-x2-cut" class="edge">
<title>x2-&gt;cut</title>
<path fill="none" stroke="#333333" stroke-width="1.4" d="M213.34,-221.97C208.44,-211.06 201.8,-196.28 195.27,-181.76"/>
<polygon fill="#333333" stroke="#333333" stroke-width="1.4" points="198.31,-179.98 191.01,-172.3 191.92,-182.85 198.31,-179.98"/>
</g>
<!-- x3 -->
<g id="node-x3" class="node">
<title>x3</title>
<text text-anchor="middle" x="318" y="-235.6" font-family="monospace" font-size="18.00" fill="#1a4d80">x3</text>
</g>
<!-- x3-&gt;cut -->
<g id="edge-x3-cut" class="edge">
<title>x3-&gt;cut</title>
<path fill="none" stroke="#333333" stroke-width="1.4" d="M295.19,-221.97C279.4,-210.18 257.54,-193.86 236.61,-178.24"/>
<polygon fill="#333333" stroke="#333333" stroke-width="1.4" points="238.45,-175.24 228.34,-172.06 234.26,-180.85 238.45,-175.24"/>
</g>
<!-- out -->
<g id="node-out" class="node">
<title>out</title>
<text text-anchor="middle" x="172" y="-14.2" font-family="monospace" font-size="16.00" fill="#806000">f</text>
</g>
<!-- cut-&gt;out -->
<g id="edge-cut-out" class="edge">
<title>cut-&gt;out</title>
<path fill="none" stroke="#333333" stroke-width="1.4" d="M172,-85.86C172,-72.56 172,-58.22 172,-46.24"/>
<polygon fill="#333333" stroke="#333333" stroke-width="1.4" points="175.5,-46.01 172,-36.01 168.5,-46.01 175.5,-46.01"/>
</g>
</g>
</svg>
