<?xml version="1.0" encoding="UTF-8" standalone="no"?>
<!DOCTYPE svg PUBLIC "-//W3C//DTD SVG 1.1//EN"
 "http://www.w3.org/Graphics/SVG/1.1/DTD/svg11.dtd">
<!-- Generated by graphviz version 2.43.0 (0)
 -->
<!-- Title: decgraph_candidate Pages: 1 -->
<svg width="322pt" height="383pt"
 viewBox="0.00 0.00 322.00 383.00" xmlns="http://www.w3.org/2000/svg" xmlns:xlink="http://www.w3.org/1999/xlink">
<g id="graph0" class="graph" transform="scale(1 1) rotate(0) translate(4 379)">
<title>decgraph_candidate</title>
<text text-anchor="middle" x="157" y="-359.8" font-family="monospace" font-size="14.00">Candidate Dec_Graph (3 fanin-2 ANDs)</text>
<!-- a -->
<g id="aux-node-a" class="node">
<title>a</title>
<text text-anchor="middle" x="32.5" y="-329.6" font-family="monospace" font-size="18.00" fill="#1a4d80">a</text>
</g>
<!-- m1 -->
<g id="aux-node-m1" class="node">
<title>m1</title>
<ellipse fill="#f7f7f7" stroke="#333333" cx="115.5" cy="-256" rx="20" ry="20"/>
<text text-anchor="middle" x="115.5" y="-252.3" font-family="monospace" font-size="14.00">m1</text>
</g>
<!-- a-&gt;m1 -->
<g id="aux-edge-a-m1" class="edge">
<title>a-&gt;m1</title>
<path fill="none" stroke="#333333" stroke-width="1.4" stroke-dasharray="5,2" d="M51.33,-315.75C63.85,-304.29 80.33,-289.2 93.46,-277.18"/>
<polygon fill="#333333" stroke="#333333" stroke-width="1.4" points="96.12,-279.49 101.13,-270.15 91.4,-274.33 96.12,-279.49"/>
</g>
<!-- c -->
<g id="aux-node-c" class="node">
<title>c</title>
<text text-anchor="middle" x="115.5" y="-329.6" font-family="monospace" font-size="18.00" fill="#1a4d80">c</text>
</g>
<!-- c-&gt;m1 -->
<g id="aux-edge-c-m1" class="edge">
<title>c-&gt;m1</title>
<path fill="none" stroke="#333333" stroke-width="1.4" stroke-dasharray="5,2" d="M115.5,-315.75C115.5,-306.98 115.5,-296.07 115.5,-286.05"/>
<polygon fill="#333333" stroke="#333333" stroke-width="1.4" points="119,-286.04 115.5,-276.04 112,-286.04 119,-286.04"/>
</g>
<!-- d -->
<g id="aux-node-d" class="node">
<title>d</title>
<text text-anchor="middle" x="198.5" y="-329.6" font-family="monospace" font-size="18.00" fill="#1a4d80">d</text>
</g>
<!-- m2 -->
<g id="aux-node-m2" class="node">
<title>m2</title>
<ellipse fill="#f7f7f7" stroke="#333333" cx="198.5" cy="-176" rx="20" ry="20"/>
<text text-anchor="middle" x="198.5" y="-172.3" font-family="monospace" font-size="14.00">m2</text>
</g>
<!-- d-&gt;m2 -->
<g id="aux-edge-d-m2" class="edge">
<title>d-&gt;m2</title>
<path fill="none" stroke="#333333" stroke-width="1.4" d="M198.5,-315.71C198.5,-289.34 198.5,-238.74 198.5,-206.49"/>
<polygon fill="#333333" stroke="#333333" stroke-width="1.4" points="202,-206.32 198.5,-196.32 195,-206.32 202,-206.32"/>
</g>
<!-- n6 -->
<g id="aux-node-n6" class="node">
<title>n6</title>
<text text-anchor="middle" x="281.5" y="-329.6" font-family="monospace" font-size="18.00" fill="#1a4d80">n6</text>
</g>
<!-- m3 -->
<g id="aux-node-m3" class="node">
<title>m3</title>
<ellipse fill="#f7f7f7" stroke="#333333" cx="239.5" cy="-96" rx="20" ry="20"/>
<text text-anchor="middle" x="239.5" y="-92.3" font-family="monospace" font-size="14.00">m3</text>
</g>
<!-- n6-&gt;m3 -->
<g id="aux-edge-n6-m3" class="edge">
<title>n6-&gt;m3</title>
<path fill="none" stroke="#333333" stroke-width="1.4" stroke-dasharray="5,2" d="M278.41,-315.65C271.26,-275.48 253.52,-175.77 244.68,-126.09"/>
<polygon fill="#333333" stroke="#333333" stroke-width="1.4" points="248.08,-125.24 242.88,-116.01 241.19,-126.47 248.08,-125.24"/>
</g>
<!-- m1-&gt;m2 -->
<g id="aux-edge-m1-m2" class="edge">
<title>m1-&gt;m2</title>
<path fill="none" stroke="#333333" stroke-width="1.4" stroke-dasharray="5,2" d="M129.58,-241.77C142.58,-229.55 162.07,-211.24 177.01,-197.19"/>
<polygon fill="#333333" stroke="#333333" stroke-width="1.4" points="179.46,-199.7 184.35,-190.3 174.67,-194.59 179.46,-199.7"/>
</g>
<!-- m2-&gt;m3 -->
<g id="aux-edge-m2-m3" class="edge">
<title>m2-&gt;m3</title>
<path fill="none" stroke="#333333" stroke-width="1.4" stroke-dasharray="5,2" d="M207.4,-158.08C212.73,-147.92 219.63,-134.8 225.67,-123.32"/>
<polygon fill="#333333" stroke="#333333" stroke-width="1.4" points="228.92,-124.64 230.48,-114.16 222.73,-121.38 228.92,-124.64"/>
</g>
<!-- OUT -->
<g id="aux-node-OUT" class="node">
<title>OUT</title>
<text text-anchor="middle" x="239.5" y="-14.3" font-family="monospace" font-size="14.00" fill="#806000">f&#39;</text>
</g>
<!-- m3-&gt;OUT -->
<g id="aux-edge-m3-OUT" class="edge">
<title>m3-&gt;OUT</title>
<path fill="none" stroke="#333333" stroke-width="1.4" d="M239.5,-75.82C239.5,-66.84 239.5,-55.99 239.5,-46.19"/>
<polygon fill="#333333" stroke="#333333" stroke-width="1.4" points="243,-46.1 239.5,-36.1 236,-46.1 243,-46.1"/>
</g>
</g>
</svg>
