<?xml version="1.0" encoding="UTF-8" standalone="no"?>
<!DOCTYPE svg PUBLIC "-//W3C//DTD SVG 1.1//EN"
 "http://www.w3.org/Graphics/SVG/1.1/DTD/svg11.dtd">
<!-- Generated by graphviz version 2.43.0 (0)
 -->
<!-- Title: decgraph_candidate Pages: 1 -->
<svg width="311pt" height="291pt"
 viewBox="0.00 0.00 311.00 291.00" xmlns="http://www.w3.org/2000/svg" xmlns:xlink="http://www.w3.org/1999/xlink">
<g id="graph0" class="graph" transform="scale(1 1) rotate(0) translate(4 287)">
<title>decgraph_candidate</title>
<text text-anchor="middle" x="151.5" y="-267.8" font-family="monospace" font-size="14.00">Candidate Dec_Graph</text>
<!-- a -->
<g id="aux-node-a" class="node">
<title>a</title>
<text text-anchor="middle" x="110" y="-237.6" font-family="monospace" font-size="18.00" fill="#1a4d80">a</text>
</g>
<!-- m1 -->
<g id="aux-node-m1" class="node">
<title>m1</title>
<ellipse fill="#f7f7f7" stroke="#333333" cx="117" cy="-168" rx="20" ry="20"/>
<text text-anchor="middle" x="117" y="-164.3" font-family="monospace" font-size="14.00">m1</text>
</g>
<!-- a-&gt;m1 -->
<g id="aux-edge-a-m1" class="edge">
<title>a-&gt;m1</title>
<path fill="none" stroke="#333333" stroke-width="1.4" d="M111.66,-223.94C112.41,-216.17 113.33,-206.75 114.19,-197.92"/>
<polygon fill="#333333" stroke="#333333" stroke-width="1.4" points="117.67,-198.26 115.16,-187.97 110.7,-197.58 117.67,-198.26"/>
</g>
<!-- c -->
<g id="aux-node-c" class="node">
<title>c</title>
<text text-anchor="middle" x="276" y="-237.6" font-family="monospace" font-size="18.00" fill="#1a4d80">c</text>
</g>
<!-- m2 -->
<g id="aux-node-m2" class="node">
<title>m2</title>
<ellipse fill="#f7f7f7" stroke="#333333" cx="193" cy="-168" rx="20" ry="20"/>
<text text-anchor="middle" x="193" y="-164.3" font-family="monospace" font-size="14.00">m2</text>
</g>
<!-- c-&gt;m2 -->
<g id="aux-edge-c-m2" class="edge">
<title>c-&gt;m2</title>
<path fill="none" stroke="#333333" stroke-width="1.4" d="M256.33,-223.94C244.14,-213.36 228.44,-199.74 215.72,-188.71"/>
<polygon fill="#333333" stroke="#333333" stroke-width="1.4" points="217.7,-185.8 207.86,-181.89 213.12,-191.08 217.7,-185.8"/>
</g>
<!-- d -->
<g id="aux-node-d" class="node">
<title>d</title>
<text text-anchor="middle" x="193" y="-237.6" font-family="monospace" font-size="18.00" fill="#1a4d80">d</text>
</g>
<!-- d-&gt;m1 -->
<g id="aux-edge-d-m1" class="edge">
<title>d-&gt;m1</title>
<path fill="none" stroke="#333333" stroke-width="1.4" d="M174.99,-223.94C164.15,-213.67 150.27,-200.52 138.81,-189.66"/>
<polygon fill="#333333" stroke="#333333" stroke-width="1.4" points="141,-186.91 131.33,-182.57 136.18,-191.99 141,-186.91"/>
</g>
<!-- d-&gt;m2 -->
<g id="aux-edge-d-m2" class="edge">
<title>d-&gt;m2</title>
<path fill="none" stroke="#333333" stroke-width="1.4" d="M193,-223.94C193,-216.31 193,-207.1 193,-198.41"/>
<polygon fill="#333333" stroke="#333333" stroke-width="1.4" points="196.5,-198.23 193,-188.23 189.5,-198.23 196.5,-198.23"/>
</g>
<!-- n6 -->
<g id="aux-node-n6" class="node">
<title>n6</title>
<text text-anchor="middle" x="27" y="-237.6" font-family="monospace" font-size="18.00" fill="#1a4d80">n6</text>
</g>
<!-- m3 -->
<g id="aux-node-m3" class="node">
<title>m3</title>
<ellipse fill="#f7f7f7" stroke="#333333" cx="117" cy="-92" rx="20" ry="20"/>
<text text-anchor="middle" x="117" y="-88.3" font-family="monospace" font-size="14.00">m3</text>
</g>
<!-- n6-&gt;m3 -->
<g id="aux-edge-n6-m3" class="edge">
<title>n6-&gt;m3</title>
<path fill="none" stroke="#333333" stroke-width="1.4" d="M37.26,-223.82C48.45,-205.13 66.9,-174.39 83,-148 89.03,-138.12 95.71,-127.29 101.55,-117.86"/>
<polygon fill="#333333" stroke="#333333" stroke-width="1.4" points="104.54,-119.68 106.83,-109.33 98.59,-115.99 104.54,-119.68"/>
</g>
<!-- m1-&gt;m3 -->
<g id="aux-edge-m1-m3" class="edge">
<title>m1-&gt;m3</title>
<path fill="none" stroke="#333333" stroke-width="1.4" d="M117,-147.94C117,-140.15 117,-130.95 117,-122.34"/>
<polygon fill="#333333" stroke="#333333" stroke-width="1.4" points="120.5,-122.25 117,-112.25 113.5,-122.25 120.5,-122.25"/>
</g>
<!-- m2-&gt;m3 -->
<g id="aux-edge-m2-m3" class="edge">
<title>m2-&gt;m3</title>
<path fill="none" stroke="#333333" stroke-width="1.4" d="M179.06,-153.43C167.6,-142.27 151.17,-126.27 138.1,-113.54"/>
<polygon fill="#333333" stroke="#333333" stroke-width="1.4" points="140.46,-110.96 130.85,-106.49 135.57,-115.97 140.46,-110.96"/>
</g>
<!-- OUT -->
<g id="aux-node-OUT" class="node">
<title>OUT</title>
<text text-anchor="middle" x="117" y="-14.3" font-family="monospace" font-size="14.00" fill="#806000">f&#39;</text>
</g>
<!-- m3-&gt;OUT -->
<g id="aux-edge-m3-OUT" class="edge">
<title>m3-&gt;OUT</title>
<path fill="none" stroke="#333333" stroke-width="1.4" d="M117,-71.71C117,-63.97 117,-54.92 117,-46.52"/>
<polygon fill="#333333" stroke="#333333" stroke-width="1.4" points="120.5,-46.38 117,-36.38 113.5,-46.38 120.5,-46.38"/>
</g>
</g>
</svg>
