<?xml version="1.0" encoding="UTF-8" standalone="no"?>
<!DOCTYPE svg PUBLIC "-//W3C//DTD SVG 1.1//EN"
 "http://www.w3.org/Graphics/SVG/1.1/DTD/svg11.dtd">
<!-- Generated by graphviz version 2.43.0 (0)
 -->
<!-- Title: fraig_merged Pages: 1 -->
<svg width="302pt" height="302pt"
 viewBox="0.00 0.00 302.00 302.00" xmlns="http://www.w3.org/2000/svg" xmlns:xlink="http://www.w3.org/1999/xlink">
<g id="graph0" class="graph" transform="scale(1 1) rotate(0) translate(4 298)">
<title>fraig_merged</title>
<text text-anchor="middle" x="147" y="-279.6" font-family="monospace" font-size="13.00">After fraig: 2 ANDs, two POs share f1</text>
<!-- a -->
<g id="aux-node-a" class="node">
<title>a</title>
<text text-anchor="middle" x="48" y="-249.6" font-family="monospace" font-size="18.00" fill="#1a4d80">a</text>
</g>
<!-- ab -->
<g id="aux-node-ab" class="node">
<title>ab</title>
<ellipse fill="#f7f7f7" stroke="#333333" cx="145" cy="-176" rx="20" ry="20"/>
<text text-anchor="middle" x="145" y="-172.6" font-family="monospace" font-size="13.00">ab</text>
</g>
<!-- a-&gt;ab -->
<g id="aux-edge-a-ab" class="edge">
<title>a-&gt;ab</title>
<path fill="none" stroke="#333333" stroke-width="1.4" d="M70.01,-235.75C85.39,-223.71 105.88,-207.65 121.56,-195.36"/>
<polygon fill="#333333" stroke="#333333" stroke-width="1.4" points="124,-197.9 129.72,-188.98 119.69,-192.39 124,-197.9"/>
</g>
<!-- b -->
<g id="aux-node-b" class="node">
<title>b</title>
<text text-anchor="middle" x="145" y="-249.6" font-family="monospace" font-size="18.00" fill="#1a4d80">b</text>
</g>
<!-- b-&gt;ab -->
<g id="aux-edge-b-ab" class="edge">
<title>b-&gt;ab</title>
<path fill="none" stroke="#333333" stroke-width="1.4" d="M145,-235.75C145,-226.98 145,-216.07 145,-206.05"/>
<polygon fill="#333333" stroke="#333333" stroke-width="1.4" points="148.5,-206.04 145,-196.04 141.5,-206.04 148.5,-206.04"/>
</g>
<!-- c -->
<g id="aux-node-c" class="node">
<title>c</title>
<text text-anchor="middle" x="242" y="-249.6" font-family="monospace" font-size="18.00" fill="#1a4d80">c</text>
</g>
<!-- f -->
<g id="aux-node-f" class="node">
<title>f</title>
<ellipse fill="#f7f7f7" stroke="#333333" cx="193" cy="-96" rx="20" ry="20"/>
<text text-anchor="middle" x="193" y="-92.6" font-family="monospace" font-size="13.00">f1</text>
</g>
<!-- c-&gt;f -->
<g id="aux-edge-c-f" class="edge">
<title>c-&gt;f</title>
<path fill="none" stroke="#333333" stroke-width="1.4" d="M236.57,-235.71C228.16,-208.94 211.91,-157.19 201.8,-125.03"/>
<polygon fill="#333333" stroke="#333333" stroke-width="1.4" points="205.09,-123.82 198.76,-115.33 198.42,-125.92 205.09,-123.82"/>
</g>
<!-- ab-&gt;f -->
<g id="aux-edge-ab-f" class="edge">
<title>ab-&gt;f</title>
<path fill="none" stroke="#333333" stroke-width="1.4" d="M155.18,-158.46C161.67,-147.91 170.21,-134.04 177.53,-122.14"/>
<polygon fill="#333333" stroke="#333333" stroke-width="1.4" points="180.57,-123.87 182.84,-113.52 174.61,-120.2 180.57,-123.87"/>
</g>
<!-- POf1 -->
<g id="aux-node-POf1" class="node">
<title>POf1</title>
<text text-anchor="middle" x="143" y="-14.3" font-family="monospace" font-size="14.00" fill="#806000">PO_f1</text>
</g>
<!-- f-&gt;POf1 -->
<g id="aux-edge-f-POf1" class="edge">
<title>f-&gt;POf1</title>
<path fill="none" stroke="#333333" stroke-width="1.4" d="M182.4,-78.88C175.88,-68.98 167.39,-56.07 159.96,-44.78"/>
<polygon fill="#333333" stroke="#333333" stroke-width="1.4" points="162.7,-42.58 154.28,-36.15 156.86,-46.43 162.7,-42.58"/>
</g>
<!-- POf2 -->
<g id="aux-node-POf2" class="node">
<title>POf2</title>
<text text-anchor="middle" x="244" y="-14.3" font-family="monospace" font-size="14.00" fill="#806000">PO_f2</text>
</g>
<!-- f-&gt;POf2 -->
<g id="aux-edge-f-POf2" class="edge">
<title>f-&gt;POf2</title>
<path fill="none" stroke="#333333" stroke-width="1.4" d="M203.82,-78.88C210.46,-68.98 219.12,-56.07 226.7,-44.78"/>
<polygon fill="#333333" stroke="#333333" stroke-width="1.4" points="229.83,-46.4 232.49,-36.15 224.01,-42.5 229.83,-46.4"/>
</g>
</g>
</svg>
