<?xml version="1.0" encoding="UTF-8" standalone="no"?>
<!DOCTYPE svg PUBLIC "-//W3C//DTD SVG 1.1//EN"
 "http://www.w3.org/Graphics/SVG/1.1/DTD/svg11.dtd">
<!-- Generated by graphviz version 2.43.0 (0)
 -->
<!-- Title: fraig_demo Pages: 1 -->
<svg width="505pt" height="302pt"
 viewBox="0.00 0.00 505.00 302.00" xmlns="http://www.w3.org/2000/svg" xmlns:xlink="http://www.w3.org/1999/xlink">
<g id="graph0" class="graph" transform="scale(1 1) rotate(0) translate(4 298)">
<title>fraig_demo</title>
<text text-anchor="middle" x="248.5" y="-279.6" font-family="monospace" font-size="13.00">Source AIG: 4 ANDs, two POs (both = a·b·c structurally distinct)</text>
<!-- a -->
<g id="node-a" class="node">
<title>a</title>
<text text-anchor="middle" x="144" y="-249.6" font-family="monospace" font-size="18.00" fill="#1a4d80">a</text>
</g>
<!-- ab -->
<g id="node-ab" class="node">
<title>ab</title>
<ellipse fill="#f7f7f7" stroke="#333333" cx="208" cy="-176" rx="20" ry="20"/>
<text text-anchor="middle" x="208" y="-172.6" font-family="monospace" font-size="13.00">ab</text>
</g>
<!-- a-&gt;ab -->
<g id="edge-a-ab" class="edge">
<title>a-&gt;ab</title>
<path fill="none" stroke="#333333" stroke-width="1.4" d="M158.52,-235.75C167.49,-225.11 179.09,-211.34 188.8,-199.8"/>
<polygon fill="#333333" stroke="#333333" stroke-width="1.4" points="191.71,-201.77 195.48,-191.87 186.36,-197.26 191.71,-201.77"/>
</g>
<!-- f2 -->
<g id="node-f2" class="node">
<title>f2</title>
<ellipse fill="#f7f7f7" stroke="#333333" cx="199" cy="-96" rx="20" ry="20"/>
<text text-anchor="middle" x="199" y="-92.6" font-family="monospace" font-size="13.00">f2</text>
</g>
<!-- a-&gt;f2 -->
<g id="edge-a-f2" class="edge">
<title>a-&gt;f2</title>
<path fill="none" stroke="#333333" stroke-width="1.4" d="M147.53,-235.86C151.82,-216.23 159.76,-183.26 170,-156 174.17,-144.91 179.72,-133.11 184.86,-123"/>
<polygon fill="#333333" stroke="#333333" stroke-width="1.4" points="188.08,-124.39 189.59,-113.91 181.87,-121.16 188.08,-124.39"/>
</g>
<!-- b -->
<g id="node-b" class="node">
<title>b</title>
<text text-anchor="middle" x="257" y="-249.6" font-family="monospace" font-size="18.00" fill="#1a4d80">b</text>
</g>
<!-- b-&gt;ab -->
<g id="edge-b-ab" class="edge">
<title>b-&gt;ab</title>
<path fill="none" stroke="#333333" stroke-width="1.4" d="M245.88,-235.75C239.38,-225.66 231.05,-212.76 223.87,-201.61"/>
<polygon fill="#333333" stroke="#333333" stroke-width="1.4" points="226.77,-199.65 218.4,-193.14 220.88,-203.44 226.77,-199.65"/>
</g>
<!-- bc -->
<g id="node-bc" class="node">
<title>bc</title>
<ellipse fill="#f7f7f7" stroke="#333333" cx="284" cy="-176" rx="20" ry="20"/>
<text text-anchor="middle" x="284" y="-172.6" font-family="monospace" font-size="13.00">bc</text>
</g>
<!-- b-&gt;bc -->
<g id="edge-b-bc" class="edge">
<title>b-&gt;bc</title>
<path fill="none" stroke="#333333" stroke-width="1.4" d="M263.13,-235.75C266.4,-226.53 270.52,-214.95 274.23,-204.51"/>
<polygon fill="#333333" stroke="#333333" stroke-width="1.4" points="277.57,-205.57 277.62,-194.97 270.97,-203.22 277.57,-205.57"/>
</g>
<!-- c -->
<g id="node-c" class="node">
<title>c</title>
<text text-anchor="middle" x="353" y="-249.6" font-family="monospace" font-size="18.00" fill="#1a4d80">c</text>
</g>
<!-- c-&gt;bc -->
<g id="edge-c-bc" class="edge">
<title>c-&gt;bc</title>
<path fill="none" stroke="#333333" stroke-width="1.4" d="M337.34,-235.75C327.52,-224.94 314.76,-210.88 304.18,-199.23"/>
<polygon fill="#333333" stroke="#333333" stroke-width="1.4" points="306.59,-196.67 297.27,-191.62 301.4,-201.38 306.59,-196.67"/>
</g>
<!-- f1 -->
<g id="node-f1" class="node">
<title>f1</title>
<ellipse fill="#f7f7f7" stroke="#333333" cx="326" cy="-96" rx="20" ry="20"/>
<text text-anchor="middle" x="326" y="-92.6" font-family="monospace" font-size="13.00">f1</text>
</g>
<!-- c-&gt;f1 -->
<g id="edge-c-f1" class="edge">
<title>c-&gt;f1</title>
<path fill="none" stroke="#333333" stroke-width="1.4" d="M350.01,-235.71C345.42,-209.2 336.59,-158.19 331.01,-125.97"/>
<polygon fill="#333333" stroke="#333333" stroke-width="1.4" points="334.41,-125.08 329.26,-115.82 327.51,-126.27 334.41,-125.08"/>
</g>
<!-- ab-&gt;f1 -->
<g id="edge-ab-f1" class="edge">
<title>ab-&gt;f1</title>
<path fill="none" stroke="#333333" stroke-width="1.4" d="M224.41,-164.15C244.31,-151 278.06,-128.69 301.15,-113.42"/>
<polygon fill="#333333" stroke="#333333" stroke-width="1.4" points="303.32,-116.19 309.73,-107.75 299.46,-110.35 303.32,-116.19"/>
</g>
<!-- bc-&gt;f2 -->
<g id="edge-bc-f2" class="edge">
<title>bc-&gt;f2</title>
<path fill="none" stroke="#333333" stroke-width="1.4" d="M269.58,-161.77C256.27,-149.55 236.31,-131.24 221.01,-117.19"/>
<polygon fill="#333333" stroke="#333333" stroke-width="1.4" points="223.22,-114.48 213.49,-110.3 218.49,-119.64 223.22,-114.48"/>
</g>
<!-- POf1 -->
<g id="node-POf1" class="node">
<title>POf1</title>
<text text-anchor="middle" x="326" y="-14.3" font-family="monospace" font-size="14.00" fill="#806000">PO_f1</text>
</g>
<!-- f1-&gt;POf1 -->
<g id="edge-f1-POf1" class="edge">
<title>f1-&gt;POf1</title>
<path fill="none" stroke="#333333" stroke-width="1.4" d="M326,-75.82C326,-66.84 326,-55.99 326,-46.19"/>
<polygon fill="#333333" stroke="#333333" stroke-width="1.4" points="329.5,-46.1 326,-36.1 322.5,-46.1 329.5,-46.1"/>
</g>
<!-- POf2 -->
<g id="node-POf2" class="node">
<title>POf2</title>
<text text-anchor="middle" x="199" y="-14.3" font-family="monospace" font-size="14.00" fill="#806000">PO_f2</text>
</g>
<!-- f2-&gt;POf2 -->
<g id="edge-f2-POf2" class="edge">
<title>f2-&gt;POf2</title>
<path fill="none" stroke="#333333" stroke-width="1.4" d="M199,-75.82C199,-66.84 199,-55.99 199,-46.19"/>
<polygon fill="#333333" stroke="#333333" stroke-width="1.4" points="202.5,-46.1 199,-36.1 195.5,-46.1 202.5,-46.1"/>
</g>
</g>
</svg>
