<?xml version="1.0" encoding="UTF-8" standalone="no"?>
<!DOCTYPE svg PUBLIC "-//W3C//DTD SVG 1.1//EN"
 "http://www.w3.org/Graphics/SVG/1.1/DTD/svg11.dtd">
<!-- Generated by graphviz version 2.43.0 (0)
 -->
<!-- Title: mffc_demo Pages: 1 -->
<svg width="882pt" height="458pt"
 viewBox="0.00 0.00 882.00 458.00" xmlns="http://www.w3.org/2000/svg" xmlns:xlink="http://www.w3.org/1999/xlink">
<g id="graph0" class="graph" transform="scale(1 1) rotate(0) translate(4 454)">
<title>mffc_demo</title>
<!-- a -->
<g id="node-a" class="node">
<title>a</title>
<text text-anchor="middle" x="689" y="-410.2" font-family="monospace" font-size="16.00" fill="#1a4d80">a</text>
<text text-anchor="middle" x="647" y="-437.2" font-family="monospace" font-size="16.00" fill="#1a4d80">[1]</text>
</g>
<!-- p -->
<g id="node-p" class="node">
<title>p</title>
<ellipse fill="#f7f7f7" stroke="#333333" cx="650" cy="-336" rx="20" ry="20"/>
<text text-anchor="middle" x="650" y="-332.3" font-family="monospace" font-size="14.00">p</text>
<text text-anchor="middle" x="617.5" y="-359.8" font-family="monospace" font-size="14.00">[1]</text>
</g>
<!-- a-&gt;p -->
<g id="edge-a-p" class="edge">
<title>a-&gt;p</title>
<path fill="none" stroke="#333333" stroke-width="1.4" d="M680.15,-395.75C675.21,-386.13 668.96,-373.95 663.44,-363.18"/>
<polygon fill="#333333" stroke="#333333" stroke-width="1.4" points="666.49,-361.48 658.81,-354.18 660.27,-364.67 666.49,-361.48"/>
</g>
<!-- b -->
<g id="node-b" class="node">
<title>b</title>
<text text-anchor="middle" x="610" y="-410.2" font-family="monospace" font-size="16.00" fill="#1a4d80">b</text>
<text text-anchor="middle" x="568" y="-437.2" font-family="monospace" font-size="16.00" fill="#1a4d80">[1]</text>
</g>
<!-- b-&gt;p -->
<g id="edge-b-p" class="edge">
<title>b-&gt;p</title>
<path fill="none" stroke="#333333" stroke-width="1.4" d="M619.08,-395.75C624.18,-386.07 630.64,-373.78 636.34,-362.95"/>
<polygon fill="#333333" stroke="#333333" stroke-width="1.4" points="639.54,-364.39 641.1,-353.92 633.34,-361.13 639.54,-364.39"/>
</g>
<!-- c -->
<g id="node-c" class="node">
<title>c</title>
<text text-anchor="middle" x="373" y="-410.2" font-family="monospace" font-size="16.00" fill="#1a4d80">c</text>
<text text-anchor="middle" x="331" y="-437.2" font-family="monospace" font-size="16.00" fill="#1a4d80">[1]</text>
</g>
<!-- q -->
<g id="node-q" class="node">
<title>q</title>
<ellipse fill="#f7f7f7" stroke="#333333" cx="373" cy="-336" rx="20" ry="20"/>
<text text-anchor="middle" x="373" y="-332.3" font-family="monospace" font-size="14.00">q</text>
<text text-anchor="middle" x="340.5" y="-359.8" font-family="monospace" font-size="14.00">[1]</text>
</g>
<!-- c-&gt;q -->
<g id="edge-c-q" class="edge">
<title>c-&gt;q</title>
<path fill="none" stroke="#333333" stroke-width="1.4" d="M373,-395.75C373,-386.98 373,-376.07 373,-366.05"/>
<polygon fill="#333333" stroke="#333333" stroke-width="1.4" points="376.5,-366.04 373,-356.04 369.5,-366.04 376.5,-366.04"/>
</g>
<!-- d -->
<g id="node-d" class="node">
<title>d</title>
<text text-anchor="middle" x="294" y="-410.2" font-family="monospace" font-size="16.00" fill="#1a4d80">d</text>
<text text-anchor="middle" x="252" y="-437.2" font-family="monospace" font-size="16.00" fill="#1a4d80">[1]</text>
</g>
<!-- d-&gt;q -->
<g id="edge-d-q" class="edge">
<title>d-&gt;q</title>
<path fill="none" stroke="#333333" stroke-width="1.4" d="M311.93,-395.75C323.76,-384.37 339.33,-369.39 351.79,-357.41"/>
<polygon fill="#333333" stroke="#333333" stroke-width="1.4" points="354.3,-359.85 359.08,-350.39 349.44,-354.81 354.3,-359.85"/>
</g>
<!-- w1 -->
<g id="node-w1" class="node">
<title>w1</title>
<text text-anchor="middle" x="847" y="-410.2" font-family="monospace" font-size="16.00" fill="#1a4d80">w1</text>
<text text-anchor="middle" x="805" y="-437.2" font-family="monospace" font-size="16.00" fill="#1a4d80">[1]</text>
</g>
<!-- w -->
<g id="node-w" class="node">
<title>w</title>
<ellipse fill="#f7f7f7" stroke="#333333" cx="768" cy="-336" rx="20" ry="20"/>
<text text-anchor="middle" x="768" y="-332.3" font-family="monospace" font-size="14.00">w</text>
<text text-anchor="middle" x="735.5" y="-359.8" font-family="monospace" font-size="14.00">[1]</text>
</g>
<!-- w1-&gt;w -->
<g id="edge-w1-w" class="edge">
<title>w1-&gt;w</title>
<path fill="none" stroke="#333333" stroke-width="1.4" d="M829.07,-395.75C817.24,-384.37 801.67,-369.39 789.21,-357.41"/>
<polygon fill="#333333" stroke="#333333" stroke-width="1.4" points="791.56,-354.81 781.92,-350.39 786.7,-359.85 791.56,-354.81"/>
</g>
<!-- w2 -->
<g id="node-w2" class="node">
<title>w2</title>
<text text-anchor="middle" x="768" y="-410.2" font-family="monospace" font-size="16.00" fill="#1a4d80">w2</text>
<text text-anchor="middle" x="726" y="-437.2" font-family="monospace" font-size="16.00" fill="#1a4d80">[1]</text>
</g>
<!-- w2-&gt;w -->
<g id="edge-w2-w" class="edge">
<title>w2-&gt;w</title>
<path fill="none" stroke="#333333" stroke-width="1.4" d="M768,-395.75C768,-386.98 768,-376.07 768,-366.05"/>
<polygon fill="#333333" stroke="#333333" stroke-width="1.4" points="771.5,-366.04 768,-356.04 764.5,-366.04 771.5,-366.04"/>
</g>
<!-- z1 -->
<g id="node-z1" class="node">
<title>z1</title>
<text text-anchor="middle" x="531" y="-410.2" font-family="monospace" font-size="16.00" fill="#1a4d80">z1</text>
<text text-anchor="middle" x="489" y="-437.2" font-family="monospace" font-size="16.00" fill="#1a4d80">[1]</text>
</g>
<!-- z -->
<g id="node-z" class="node">
<title>z</title>
<ellipse fill="#f7f7f7" stroke="#333333" cx="452" cy="-336" rx="20" ry="20"/>
<text text-anchor="middle" x="452" y="-332.3" font-family="monospace" font-size="14.00">z</text>
<text text-anchor="middle" x="419.5" y="-359.8" font-family="monospace" font-size="14.00">[1]</text>
</g>
<!-- z1-&gt;z -->
<g id="edge-z1-z" class="edge">
<title>z1-&gt;z</title>
<path fill="none" stroke="#333333" stroke-width="1.4" d="M513.07,-395.75C501.24,-384.37 485.67,-369.39 473.21,-357.41"/>
<polygon fill="#333333" stroke="#333333" stroke-width="1.4" points="475.56,-354.81 465.92,-350.39 470.7,-359.85 475.56,-354.81"/>
</g>
<!-- z2 -->
<g id="node-z2" class="node">
<title>z2</title>
<text text-anchor="middle" x="452" y="-410.2" font-family="monospace" font-size="16.00" fill="#1a4d80">z2</text>
<text text-anchor="middle" x="410" y="-437.2" font-family="monospace" font-size="16.00" fill="#1a4d80">[1]</text>
</g>
<!-- z2-&gt;z -->
<g id="edge-z2-z" class="edge">
<title>z2-&gt;z</title>
<path fill="none" stroke="#333333" stroke-width="1.4" d="M452,-395.75C452,-386.98 452,-376.07 452,-366.05"/>
<polygon fill="#333333" stroke="#333333" stroke-width="1.4" points="455.5,-366.04 452,-356.04 448.5,-366.04 455.5,-366.04"/>
</g>
<!-- e -->
<g id="node-e" class="node">
<title>e</title>
<text text-anchor="middle" x="215" y="-410.2" font-family="monospace" font-size="16.00" fill="#1a4d80">e</text>
<text text-anchor="middle" x="173" y="-437.2" font-family="monospace" font-size="16.00" fill="#1a4d80">[1]</text>
</g>
<!-- n -->
<g id="node-n" class="node">
<title>n</title>
<ellipse fill="#f7f7f7" stroke="#333333" cx="176" cy="-336" rx="20" ry="20"/>
<text text-anchor="middle" x="176" y="-332.3" font-family="monospace" font-size="14.00">n</text>
<text text-anchor="middle" x="143.5" y="-359.8" font-family="monospace" font-size="14.00">[2]</text>
</g>
<!-- e-&gt;n -->
<g id="edge-e-n" class="edge">
<title>e-&gt;n</title>
<path fill="none" stroke="#333333" stroke-width="1.4" d="M206.15,-395.75C201.21,-386.13 194.96,-373.95 189.44,-363.18"/>
<polygon fill="#333333" stroke="#333333" stroke-width="1.4" points="192.49,-361.48 184.81,-354.18 186.27,-364.67 192.49,-361.48"/>
</g>
<!-- h -->
<g id="node-h" class="node">
<title>h</title>
<text text-anchor="middle" x="136" y="-410.2" font-family="monospace" font-size="16.00" fill="#1a4d80">h</text>
<text text-anchor="middle" x="94" y="-437.2" font-family="monospace" font-size="16.00" fill="#1a4d80">[1]</text>
</g>
<!-- h-&gt;n -->
<g id="edge-h-n" class="edge">
<title>h-&gt;n</title>
<path fill="none" stroke="#333333" stroke-width="1.4" d="M145.08,-395.75C150.18,-386.07 156.64,-373.78 162.34,-362.95"/>
<polygon fill="#333333" stroke="#333333" stroke-width="1.4" points="165.54,-364.39 167.1,-353.92 159.34,-361.13 165.54,-364.39"/>
</g>
<!-- y -->
<g id="node-y" class="node">
<title>y</title>
<text text-anchor="middle" x="57" y="-410.2" font-family="monospace" font-size="16.00" fill="#1a4d80">y</text>
<text text-anchor="middle" x="15" y="-437.2" font-family="monospace" font-size="16.00" fill="#1a4d80">[1]</text>
</g>
<!-- g -->
<g id="node-g" class="node">
<title>g</title>
<ellipse fill="#f7f7f7" stroke="#333333" cx="122" cy="-256" rx="20" ry="20"/>
<text text-anchor="middle" x="122" y="-252.3" font-family="monospace" font-size="14.00">g</text>
<text text-anchor="middle" x="89.5" y="-279.8" font-family="monospace" font-size="14.00">[1]</text>
</g>
<!-- y-&gt;g -->
<g id="edge-y-g" class="edge">
<title>y-&gt;g</title>
<path fill="none" stroke="#333333" stroke-width="1.4" d="M64.2,-395.71C75.47,-368.68 97.34,-316.19 110.71,-284.1"/>
<polygon fill="#333333" stroke="#333333" stroke-width="1.4" points="113.95,-285.42 114.56,-274.85 107.49,-282.73 113.95,-285.42"/>
</g>
<!-- u -->
<g id="node-u" class="node">
<title>u</title>
<ellipse fill="#f7f7f7" stroke="#333333" cx="650" cy="-256" rx="20" ry="20"/>
<text text-anchor="middle" x="650" y="-252.3" font-family="monospace" font-size="14.00">u</text>
<text text-anchor="middle" x="617.5" y="-279.8" font-family="monospace" font-size="14.00">[1]</text>
</g>
<!-- p-&gt;u -->
<g id="edge-p-u" class="edge">
<title>p-&gt;u</title>
<path fill="none" stroke="#333333" stroke-width="1.4" d="M650,-315.72C650,-306.84 650,-296.11 650,-286.27"/>
<polygon fill="#333333" stroke="#333333" stroke-width="1.4" points="653.5,-286.06 650,-276.06 646.5,-286.06 653.5,-286.06"/>
</g>
<!-- v -->
<g id="node-v" class="node">
<title>v</title>
<ellipse fill="#f7f7f7" stroke="#333333" cx="413" cy="-256" rx="20" ry="20"/>
<text text-anchor="middle" x="413" y="-252.3" font-family="monospace" font-size="14.00">v</text>
<text text-anchor="middle" x="380.5" y="-279.8" font-family="monospace" font-size="14.00">[1]</text>
</g>
<!-- q-&gt;v -->
<g id="edge-q-v" class="edge">
<title>q-&gt;v</title>
<path fill="none" stroke="#333333" stroke-width="1.4" d="M381.88,-317.69C387.06,-307.59 393.69,-294.65 399.51,-283.31"/>
<polygon fill="#333333" stroke="#333333" stroke-width="1.4" points="402.7,-284.76 404.15,-274.26 396.47,-281.56 402.7,-284.76"/>
</g>
<!-- w-&gt;u -->
<g id="edge-w-u" class="edge">
<title>w-&gt;u</title>
<path fill="none" stroke="#333333" stroke-width="1.4" d="M751.59,-324.15C731.69,-311 697.94,-288.69 674.85,-273.42"/>
<polygon fill="#333333" stroke="#333333" stroke-width="1.4" points="676.54,-270.35 666.27,-267.75 672.68,-276.19 676.54,-270.35"/>
</g>
<!-- z-&gt;v -->
<g id="edge-z-v" class="edge">
<title>z-&gt;v</title>
<path fill="none" stroke="#333333" stroke-width="1.4" d="M443.34,-317.69C438.3,-307.59 431.82,-294.65 426.16,-283.31"/>
<polygon fill="#333333" stroke="#333333" stroke-width="1.4" points="429.23,-281.64 421.63,-274.26 422.97,-284.77 429.23,-281.64"/>
</g>
<!-- m -->
<g id="node-m" class="node">
<title>m</title>
<ellipse fill="#f7f7f7" stroke="#333333" cx="413" cy="-176" rx="20" ry="20"/>
<text text-anchor="middle" x="413" y="-172.3" font-family="monospace" font-size="14.00">m</text>
<text text-anchor="middle" x="380.5" y="-199.8" font-family="monospace" font-size="14.00">[1]</text>
</g>
<!-- u-&gt;m -->
<g id="edge-u-m" class="edge">
<title>u-&gt;m</title>
<path fill="none" stroke="#333333" stroke-width="1.4" d="M631.01,-248.75C589.47,-235.08 490.39,-202.47 441.41,-186.35"/>
<polygon fill="#333333" stroke="#333333" stroke-width="1.4" points="442.35,-182.97 431.76,-183.17 440.16,-189.62 442.35,-182.97"/>
</g>
<!-- v-&gt;m -->
<g id="edge-v-m" class="edge">
<title>v-&gt;m</title>
<path fill="none" stroke="#333333" stroke-width="1.4" d="M413,-235.72C413,-226.84 413,-216.11 413,-206.27"/>
<polygon fill="#333333" stroke="#333333" stroke-width="1.4" points="416.5,-206.06 413,-196.06 409.5,-206.06 416.5,-206.06"/>
</g>
<!-- t -->
<g id="node-t" class="node">
<title>t</title>
<ellipse fill="#f7f7f7" stroke="#333333" cx="309" cy="-96" rx="20" ry="20"/>
<text text-anchor="middle" x="309" y="-92.3" font-family="monospace" font-size="14.00">t</text>
<text text-anchor="middle" x="276.5" y="-119.8" font-family="monospace" font-size="14.00">[1]</text>
</g>
<!-- m-&gt;t -->
<g id="edge-m-t" class="edge">
<title>m-&gt;t</title>
<path fill="none" stroke="#333333" stroke-width="1.4" d="M397.2,-163.15C380.08,-150.31 352.55,-129.66 332.8,-114.85"/>
<polygon fill="#333333" stroke="#333333" stroke-width="1.4" points="334.7,-111.9 324.6,-108.7 330.5,-117.5 334.7,-111.9"/>
</g>
<!-- n-&gt;t -->
<g id="edge-n-t" class="edge">
<title>n-&gt;t</title>
<path fill="none" stroke="#333333" stroke-width="1.4" d="M185.35,-318.26C208.25,-277.3 267.23,-171.75 294.62,-122.73"/>
<polygon fill="#333333" stroke="#333333" stroke-width="1.4" points="297.84,-124.15 299.66,-113.72 291.72,-120.74 297.84,-124.15"/>
</g>
<!-- n-&gt;g -->
<g id="edge-n-g" class="edge">
<title>n-&gt;g</title>
<path fill="none" stroke="#333333" stroke-width="1.4" d="M165.07,-319.22C157.58,-308.4 147.5,-293.83 138.97,-281.52"/>
<polygon fill="#333333" stroke="#333333" stroke-width="1.4" points="141.67,-279.26 133.1,-273.03 135.91,-283.24 141.67,-279.26"/>
</g>
<!-- POt -->
<g id="node-POt" class="node">
<title>POt</title>
<text text-anchor="middle" x="309" y="-14.6" font-family="monospace" font-size="13.00" fill="#806000">PO_t</text>
</g>
<!-- t-&gt;POt -->
<g id="edge-t-POt" class="edge">
<title>t-&gt;POt</title>
<path fill="none" stroke="#333333" stroke-width="1.4" d="M309,-75.82C309,-66.84 309,-55.99 309,-46.19"/>
<polygon fill="#333333" stroke="#333333" stroke-width="1.4" points="312.5,-46.1 309,-36.1 305.5,-46.1 312.5,-46.1"/>
</g>
<!-- POg -->
<g id="node-POg" class="node">
<title>POg</title>
<text text-anchor="middle" x="122" y="-14.6" font-family="monospace" font-size="13.00" fill="#806000">PO_g</text>
</g>
<!-- g-&gt;POg -->
<g id="edge-g-POg" class="edge">
<title>g-&gt;POg</title>
<path fill="none" stroke="#333333" stroke-width="1.4" d="M122,-235.69C122,-193.83 122,-94.63 122,-46.35"/>
<polygon fill="#333333" stroke="#333333" stroke-width="1.4" points="125.5,-46.31 122,-36.31 118.5,-46.31 125.5,-46.31"/>
</g>
</g>
</svg>
