<?xml version="1.0" encoding="UTF-8" standalone="no"?>
<!DOCTYPE svg PUBLIC "-//W3C//DTD SVG 1.1//EN"
 "http://www.w3.org/Graphics/SVG/1.1/DTD/svg11.dtd">
<!-- Generated by graphviz version 2.43.0 (0)
 -->
<!-- Title: mffc_demo Pages: 1 -->
<svg width="320pt" height="360pt"
 viewBox="0.00 0.00 320.00 360.00" xmlns="http://www.w3.org/2000/svg" xmlns:xlink="http://www.w3.org/1999/xlink">
<g id="graph0" class="graph" transform="scale(1 1) rotate(0) translate(4 356)">
<title>mffc_demo</title>
<!-- a -->
<g id="node-a" class="node">
<title>a</title>
<text text-anchor="middle" x="199" y="-329.6" font-family="monospace" font-size="18.00" fill="#1a4d80">a</text>
</g>
<!-- n1 -->
<g id="node-n1" class="node">
<title>n1</title>
<ellipse fill="#f7f7f7" stroke="#333333" cx="199" cy="-256" rx="20" ry="20"/>
<text text-anchor="middle" x="199" y="-252.3" font-family="monospace" font-size="14.00">n1</text>
</g>
<!-- a-&gt;n1 -->
<g id="edge-a-n1" class="edge">
<title>a-&gt;n1</title>
<path fill="none" stroke="#333333" stroke-width="1.4" d="M199,-315.75C199,-306.98 199,-296.07 199,-286.05"/>
<polygon fill="#333333" stroke="#333333" stroke-width="1.4" points="202.5,-286.04 199,-276.04 195.5,-286.04 202.5,-286.04"/>
</g>
<!-- n2 -->
<g id="node-n2" class="node">
<title>n2</title>
<ellipse fill="#f7f7f7" stroke="#333333" cx="127" cy="-256" rx="20" ry="20"/>
<text text-anchor="middle" x="127" y="-252.3" font-family="monospace" font-size="14.00">n2</text>
</g>
<!-- a-&gt;n2 -->
<g id="edge-a-n2" class="edge">
<title>a-&gt;n2</title>
<path fill="none" stroke="#333333" stroke-width="1.4" d="M182.66,-315.75C172.18,-304.69 158.49,-290.24 147.31,-278.44"/>
<polygon fill="#333333" stroke="#333333" stroke-width="1.4" points="149.8,-275.98 140.38,-271.13 144.72,-280.79 149.8,-275.98"/>
</g>
<!-- b -->
<g id="node-b" class="node">
<title>b</title>
<text text-anchor="middle" x="113" y="-329.6" font-family="monospace" font-size="18.00" fill="#1a4d80">b</text>
</g>
<!-- b-&gt;n1 -->
<g id="edge-b-n1" class="edge">
<title>b-&gt;n1</title>
<path fill="none" stroke="#333333" stroke-width="1.4" d="M132.51,-315.75C145.69,-304.11 163.1,-288.72 176.81,-276.61"/>
<polygon fill="#333333" stroke="#333333" stroke-width="1.4" points="179.21,-279.16 184.39,-269.92 174.57,-273.91 179.21,-279.16"/>
</g>
<!-- n3 -->
<g id="node-n3" class="node">
<title>n3</title>
<ellipse fill="#f7f7f7" stroke="#333333" cx="55" cy="-256" rx="20" ry="20"/>
<text text-anchor="middle" x="55" y="-252.3" font-family="monospace" font-size="14.00">n3</text>
</g>
<!-- b-&gt;n3 -->
<g id="edge-b-n3" class="edge">
<title>b-&gt;n3</title>
<path fill="none" stroke="#333333" stroke-width="1.4" d="M99.84,-315.75C91.9,-305.35 81.68,-291.96 73,-280.59"/>
<polygon fill="#333333" stroke="#333333" stroke-width="1.4" points="75.58,-278.2 66.73,-272.37 70.02,-282.45 75.58,-278.2"/>
</g>
<!-- c -->
<g id="node-c" class="node">
<title>c</title>
<text text-anchor="middle" x="27" y="-329.6" font-family="monospace" font-size="18.00" fill="#1a4d80">c</text>
</g>
<!-- c-&gt;n2 -->
<g id="edge-c-n2" class="edge">
<title>c-&gt;n2</title>
<path fill="none" stroke="#333333" stroke-width="1.4" d="M49.69,-315.75C65.79,-303.52 87.33,-287.15 103.58,-274.8"/>
<polygon fill="#333333" stroke="#333333" stroke-width="1.4" points="105.7,-277.58 111.55,-268.74 101.47,-272.01 105.7,-277.58"/>
</g>
<!-- c-&gt;n3 -->
<g id="edge-c-n3" class="edge">
<title>c-&gt;n3</title>
<path fill="none" stroke="#333333" stroke-width="1.4" d="M33.35,-315.75C36.75,-306.53 41.02,-294.95 44.86,-284.51"/>
<polygon fill="#333333" stroke="#333333" stroke-width="1.4" points="48.21,-285.56 48.38,-274.97 41.64,-283.14 48.21,-285.56"/>
</g>
<!-- d -->
<g id="node-d" class="node">
<title>d</title>
<text text-anchor="middle" x="285" y="-329.6" font-family="monospace" font-size="18.00" fill="#1a4d80">d</text>
</g>
<!-- g -->
<g id="node-g" class="node">
<title>g</title>
<ellipse fill="#f7f7f7" stroke="#333333" cx="275" cy="-176" rx="20" ry="20"/>
<text text-anchor="middle" x="275" y="-172.3" font-family="monospace" font-size="14.00">g</text>
</g>
<!-- d-&gt;g -->
<g id="edge-d-g" class="edge">
<title>d-&gt;g</title>
<path fill="none" stroke="#333333" stroke-width="1.4" d="M283.89,-315.71C282.2,-289.34 278.96,-238.74 276.89,-206.49"/>
<polygon fill="#333333" stroke="#333333" stroke-width="1.4" points="280.37,-206.07 276.24,-196.32 273.39,-206.52 280.37,-206.07"/>
</g>
<!-- f -->
<g id="node-f" class="node">
<title>f</title>
<ellipse fill="#f7f7f7" stroke="#333333" cx="163" cy="-96" rx="20" ry="20"/>
<text text-anchor="middle" x="163" y="-92.3" font-family="monospace" font-size="14.00">f</text>
</g>
<!-- n1-&gt;f -->
<g id="edge-n1-f" class="edge">
<title>n1-&gt;f</title>
<path fill="none" stroke="#333333" stroke-width="1.4" d="M194.73,-236.25C188.5,-208.93 176.89,-157.94 169.57,-125.83"/>
<polygon fill="#333333" stroke="#333333" stroke-width="1.4" points="172.9,-124.69 167.27,-115.72 166.07,-126.25 172.9,-124.69"/>
</g>
<!-- n1-&gt;g -->
<g id="edge-n1-g" class="edge">
<title>n1-&gt;g</title>
<path fill="none" stroke="#333333" stroke-width="1.4" d="M212.59,-241.06C224.15,-229.19 240.95,-211.95 254.2,-198.35"/>
<polygon fill="#333333" stroke="#333333" stroke-width="1.4" points="257.06,-200.43 261.53,-190.82 252.04,-195.54 257.06,-200.43"/>
</g>
<!-- n4 -->
<g id="node-n4" class="node">
<title>n4</title>
<ellipse fill="#f7f7f7" stroke="#333333" cx="127" cy="-176" rx="20" ry="20"/>
<text text-anchor="middle" x="127" y="-172.3" font-family="monospace" font-size="14.00">n4</text>
</g>
<!-- n2-&gt;n4 -->
<g id="edge-n2-n4" class="edge">
<title>n2-&gt;n4</title>
<path fill="none" stroke="#333333" stroke-width="1.4" d="M127,-235.72C127,-226.84 127,-216.11 127,-206.27"/>
<polygon fill="#333333" stroke="#333333" stroke-width="1.4" points="130.5,-206.06 127,-196.06 123.5,-206.06 130.5,-206.06"/>
</g>
<!-- n3-&gt;n4 -->
<g id="edge-n3-n4" class="edge">
<title>n3-&gt;n4</title>
<path fill="none" stroke="#333333" stroke-width="1.4" d="M68.21,-240.69C79.07,-228.93 94.63,-212.07 107.01,-198.65"/>
<polygon fill="#333333" stroke="#333333" stroke-width="1.4" points="109.67,-200.94 113.88,-191.22 104.52,-196.19 109.67,-200.94"/>
</g>
<!-- n4-&gt;f -->
<g id="edge-n4-f" class="edge">
<title>n4-&gt;f</title>
<path fill="none" stroke="#333333" stroke-width="1.4" d="M135.17,-157.3C139.76,-147.36 145.58,-134.75 150.71,-123.64"/>
<polygon fill="#333333" stroke="#333333" stroke-width="1.4" points="153.97,-124.91 154.99,-114.36 147.62,-121.97 153.97,-124.91"/>
</g>
<!-- POf -->
<g id="node-POf" class="node">
<title>POf</title>
<text text-anchor="middle" x="163" y="-14.6" font-family="monospace" font-size="13.00" fill="#806000">PO_f</text>
</g>
<!-- f-&gt;POf -->
<g id="edge-f-POf" class="edge">
<title>f-&gt;POf</title>
<path fill="none" stroke="#333333" stroke-width="1.4" d="M163,-75.82C163,-66.84 163,-55.99 163,-46.19"/>
<polygon fill="#333333" stroke="#333333" stroke-width="1.4" points="166.5,-46.1 163,-36.1 159.5,-46.1 166.5,-46.1"/>
</g>
<!-- POg -->
<g id="node-POg" class="node">
<title>POg</title>
<text text-anchor="middle" x="275" y="-14.6" font-family="monospace" font-size="13.00" fill="#806000">PO_g</text>
</g>
<!-- g-&gt;POg -->
<g id="edge-g-POg" class="edge">
<title>g-&gt;POg</title>
<path fill="none" stroke="#333333" stroke-width="1.4" d="M275,-155.87C275,-128.51 275,-78.03 275,-46.61"/>
<polygon fill="#333333" stroke="#333333" stroke-width="1.4" points="278.5,-46.37 275,-36.37 271.5,-46.37 278.5,-46.37"/>
</g>
</g>
</svg>
