<?xml version="1.0" encoding="UTF-8" standalone="no"?>
<!DOCTYPE svg PUBLIC "-//W3C//DTD SVG 1.1//EN"
 "http://www.w3.org/Graphics/SVG/1.1/DTD/svg11.dtd">
<!-- Generated by graphviz version 2.43.0 (0)
 -->
<!-- Title: mffc_demo Pages: 1 -->
<svg width="592pt" height="380pt"
 viewBox="0.00 0.00 592.00 380.00" xmlns="http://www.w3.org/2000/svg" xmlns:xlink="http://www.w3.org/1999/xlink">
<g id="graph0" class="graph" transform="scale(1 1) rotate(0) translate(4 376)">
<title>mffc_demo</title>
<!-- a -->
<g id="node-a" class="node">
<title>a</title>
<text text-anchor="middle" x="142" y="-329.6" font-family="monospace" font-size="18.00" fill="#1a4d80">a</text>
<text text-anchor="middle" x="99" y="-357.6" font-family="monospace" font-size="18.00" fill="#1a4d80">[2]</text>
</g>
<!-- p -->
<g id="node-p" class="node">
<title>p</title>
<ellipse fill="#f7f7f7" stroke="#333333" cx="225" cy="-256" rx="20" ry="20"/>
<text text-anchor="middle" x="225" y="-252.3" font-family="monospace" font-size="14.00">p</text>
<text text-anchor="middle" x="192.5" y="-279.8" font-family="monospace" font-size="14.00">[1]</text>
</g>
<!-- a-&gt;p -->
<g id="edge-a-p" class="edge">
<title>a-&gt;p</title>
<path fill="none" stroke="#333333" stroke-width="1.4" d="M160.83,-315.75C173.35,-304.29 189.83,-289.2 202.96,-277.18"/>
<polygon fill="#333333" stroke="#333333" stroke-width="1.4" points="205.62,-279.49 210.63,-270.15 200.9,-274.33 205.62,-279.49"/>
</g>
<!-- g -->
<g id="node-g" class="node">
<title>g</title>
<ellipse fill="#f7f7f7" stroke="#333333" cx="101" cy="-256" rx="20" ry="20"/>
<text text-anchor="middle" x="101" y="-252.3" font-family="monospace" font-size="14.00">g</text>
<text text-anchor="middle" x="68.5" y="-279.8" font-family="monospace" font-size="14.00">[1]</text>
</g>
<!-- a-&gt;g -->
<g id="edge-a-g" class="edge">
<title>a-&gt;g</title>
<path fill="none" stroke="#333333" stroke-width="1.4" d="M132.7,-315.75C127.47,-306.07 120.84,-293.78 115,-282.95"/>
<polygon fill="#333333" stroke="#333333" stroke-width="1.4" points="117.95,-281.05 110.13,-273.92 111.79,-284.38 117.95,-281.05"/>
</g>
<!-- b -->
<g id="node-b" class="node">
<title>b</title>
<text text-anchor="middle" x="225" y="-329.6" font-family="monospace" font-size="18.00" fill="#1a4d80">b</text>
<text text-anchor="middle" x="182" y="-357.6" font-family="monospace" font-size="18.00" fill="#1a4d80">[1]</text>
</g>
<!-- b-&gt;p -->
<g id="edge-b-p" class="edge">
<title>b-&gt;p</title>
<path fill="none" stroke="#333333" stroke-width="1.4" d="M225,-315.75C225,-306.98 225,-296.07 225,-286.05"/>
<polygon fill="#333333" stroke="#333333" stroke-width="1.4" points="228.5,-286.04 225,-276.04 221.5,-286.04 228.5,-286.04"/>
</g>
<!-- c -->
<g id="node-c" class="node">
<title>c</title>
<text text-anchor="middle" x="391" y="-329.6" font-family="monospace" font-size="18.00" fill="#1a4d80">c</text>
<text text-anchor="middle" x="348" y="-357.6" font-family="monospace" font-size="18.00" fill="#1a4d80">[1]</text>
</g>
<!-- q -->
<g id="node-q" class="node">
<title>q</title>
<ellipse fill="#f7f7f7" stroke="#333333" cx="350" cy="-256" rx="20" ry="20"/>
<text text-anchor="middle" x="350" y="-252.3" font-family="monospace" font-size="14.00">q</text>
<text text-anchor="middle" x="317.5" y="-279.8" font-family="monospace" font-size="14.00">[1]</text>
</g>
<!-- c-&gt;q -->
<g id="edge-c-q" class="edge">
<title>c-&gt;q</title>
<path fill="none" stroke="#333333" stroke-width="1.4" d="M381.7,-315.75C376.47,-306.07 369.84,-293.78 364,-282.95"/>
<polygon fill="#333333" stroke="#333333" stroke-width="1.4" points="366.95,-281.05 359.13,-273.92 360.79,-284.38 366.95,-281.05"/>
</g>
<!-- d -->
<g id="node-d" class="node">
<title>d</title>
<text text-anchor="middle" x="308" y="-329.6" font-family="monospace" font-size="18.00" fill="#1a4d80">d</text>
<text text-anchor="middle" x="265" y="-357.6" font-family="monospace" font-size="18.00" fill="#1a4d80">[1]</text>
</g>
<!-- d-&gt;q -->
<g id="edge-d-q" class="edge">
<title>d-&gt;q</title>
<path fill="none" stroke="#333333" stroke-width="1.4" d="M317.53,-315.75C322.88,-306.07 329.67,-293.78 335.66,-282.95"/>
<polygon fill="#333333" stroke="#333333" stroke-width="1.4" points="338.88,-284.36 340.65,-273.92 332.75,-280.98 338.88,-284.36"/>
</g>
<!-- e -->
<g id="node-e" class="node">
<title>e</title>
<text text-anchor="middle" x="557" y="-329.6" font-family="monospace" font-size="18.00" fill="#1a4d80">e</text>
<text text-anchor="middle" x="514" y="-357.6" font-family="monospace" font-size="18.00" fill="#1a4d80">[1]</text>
</g>
<!-- n -->
<g id="node-n" class="node">
<title>n</title>
<ellipse fill="#f7f7f7" stroke="#333333" cx="474" cy="-256" rx="20" ry="20"/>
<text text-anchor="middle" x="474" y="-252.3" font-family="monospace" font-size="14.00">n</text>
<text text-anchor="middle" x="441.5" y="-279.8" font-family="monospace" font-size="14.00">[1]</text>
</g>
<!-- e-&gt;n -->
<g id="edge-e-n" class="edge">
<title>e-&gt;n</title>
<path fill="none" stroke="#333333" stroke-width="1.4" d="M538.17,-315.75C525.65,-304.29 509.17,-289.2 496.04,-277.18"/>
<polygon fill="#333333" stroke="#333333" stroke-width="1.4" points="498.1,-274.33 488.37,-270.15 493.38,-279.49 498.1,-274.33"/>
</g>
<!-- h -->
<g id="node-h" class="node">
<title>h</title>
<text text-anchor="middle" x="474" y="-329.6" font-family="monospace" font-size="18.00" fill="#1a4d80">h</text>
<text text-anchor="middle" x="431" y="-357.6" font-family="monospace" font-size="18.00" fill="#1a4d80">[1]</text>
</g>
<!-- h-&gt;n -->
<g id="edge-h-n" class="edge">
<title>h-&gt;n</title>
<path fill="none" stroke="#333333" stroke-width="1.4" d="M474,-315.75C474,-306.98 474,-296.07 474,-286.05"/>
<polygon fill="#333333" stroke="#333333" stroke-width="1.4" points="477.5,-286.04 474,-276.04 470.5,-286.04 477.5,-286.04"/>
</g>
<!-- y -->
<g id="node-y" class="node">
<title>y</title>
<text text-anchor="middle" x="59" y="-329.6" font-family="monospace" font-size="18.00" fill="#1a4d80">y</text>
<text text-anchor="middle" x="16" y="-357.6" font-family="monospace" font-size="18.00" fill="#1a4d80">[1]</text>
</g>
<!-- y-&gt;g -->
<g id="edge-y-g" class="edge">
<title>y-&gt;g</title>
<path fill="none" stroke="#333333" stroke-width="1.4" d="M68.53,-315.75C73.88,-306.07 80.67,-293.78 86.66,-282.95"/>
<polygon fill="#333333" stroke="#333333" stroke-width="1.4" points="89.88,-284.36 91.65,-273.92 83.75,-280.98 89.88,-284.36"/>
</g>
<!-- m -->
<g id="node-m" class="node">
<title>m</title>
<ellipse fill="#f7f7f7" stroke="#333333" cx="350" cy="-176" rx="20" ry="20"/>
<text text-anchor="middle" x="350" y="-172.3" font-family="monospace" font-size="14.00">m</text>
<text text-anchor="middle" x="317.5" y="-199.8" font-family="monospace" font-size="14.00">[1]</text>
</g>
<!-- p-&gt;m -->
<g id="edge-p-m" class="edge">
<title>p-&gt;m</title>
<path fill="none" stroke="#333333" stroke-width="1.4" d="M241.6,-244.64C262.89,-231.36 300.03,-208.18 324.81,-192.72"/>
<polygon fill="#333333" stroke="#333333" stroke-width="1.4" points="326.7,-195.66 333.33,-187.4 323,-189.73 326.7,-195.66"/>
</g>
<!-- q-&gt;m -->
<g id="edge-q-m" class="edge">
<title>q-&gt;m</title>
<path fill="none" stroke="#333333" stroke-width="1.4" d="M350,-235.72C350,-226.84 350,-216.11 350,-206.27"/>
<polygon fill="#333333" stroke="#333333" stroke-width="1.4" points="353.5,-206.06 350,-196.06 346.5,-206.06 353.5,-206.06"/>
</g>
<!-- t -->
<g id="node-t" class="node">
<title>t</title>
<ellipse fill="#f7f7f7" stroke="#333333" cx="382" cy="-96" rx="20" ry="20"/>
<text text-anchor="middle" x="382" y="-92.3" font-family="monospace" font-size="14.00">t</text>
<text text-anchor="middle" x="349.5" y="-119.8" font-family="monospace" font-size="14.00">[1]</text>
</g>
<!-- m-&gt;t -->
<g id="edge-m-t" class="edge">
<title>m-&gt;t</title>
<path fill="none" stroke="#333333" stroke-width="1.4" d="M357.26,-157.3C361.24,-147.6 366.27,-135.35 370.74,-124.44"/>
<polygon fill="#333333" stroke="#333333" stroke-width="1.4" points="374.1,-125.48 374.66,-114.9 367.62,-122.82 374.1,-125.48"/>
</g>
<!-- n-&gt;t -->
<g id="edge-n-t" class="edge">
<title>n-&gt;t</title>
<path fill="none" stroke="#333333" stroke-width="1.4" d="M464.33,-238.39C448.29,-210.84 416.07,-155.51 397.04,-122.83"/>
<polygon fill="#333333" stroke="#333333" stroke-width="1.4" points="399.88,-120.74 391.82,-113.86 393.83,-124.27 399.88,-120.74"/>
</g>
<!-- POt -->
<g id="node-POt" class="node">
<title>POt</title>
<text text-anchor="middle" x="382" y="-14.6" font-family="monospace" font-size="13.00" fill="#806000">PO_t</text>
</g>
<!-- t-&gt;POt -->
<g id="edge-t-POt" class="edge">
<title>t-&gt;POt</title>
<path fill="none" stroke="#333333" stroke-width="1.4" d="M382,-75.82C382,-66.84 382,-55.99 382,-46.19"/>
<polygon fill="#333333" stroke="#333333" stroke-width="1.4" points="385.5,-46.1 382,-36.1 378.5,-46.1 385.5,-46.1"/>
</g>
<!-- POg -->
<g id="node-POg" class="node">
<title>POg</title>
<text text-anchor="middle" x="101" y="-14.6" font-family="monospace" font-size="13.00" fill="#806000">PO_g</text>
</g>
<!-- g-&gt;POg -->
<g id="edge-g-POg" class="edge">
<title>g-&gt;POg</title>
<path fill="none" stroke="#333333" stroke-width="1.4" d="M101,-235.69C101,-193.83 101,-94.63 101,-46.35"/>
<polygon fill="#333333" stroke="#333333" stroke-width="1.4" points="104.5,-46.31 101,-36.31 97.5,-46.31 104.5,-46.31"/>
</g>
</g>
</svg>
