<?xml version="1.0" encoding="UTF-8" standalone="no"?>
<!DOCTYPE svg PUBLIC "-//W3C//DTD SVG 1.1//EN"
 "http://www.w3.org/Graphics/SVG/1.1/DTD/svg11.dtd">
<!-- Generated by graphviz version 2.43.0 (0)
 -->
<!-- Title: mffc_demo Pages: 1 -->
<svg width="564pt" height="420pt"
 viewBox="0.00 0.00 564.00 420.00" xmlns="http://www.w3.org/2000/svg" xmlns:xlink="http://www.w3.org/1999/xlink">
<g id="graph0" class="graph" transform="scale(1 1) rotate(0) translate(4 416)">
<title>mffc_demo</title>
<!-- a -->
<g id="node-a" class="node">
<title>a</title>
<text text-anchor="middle" x="59" y="-369.6" font-family="monospace" font-size="18.00" fill="#1a4d80">a</text>
<text text-anchor="middle" x="16" y="-397.6" font-family="monospace" font-size="18.00" fill="#1a4d80">[1]</text>
</g>
<!-- p -->
<g id="node-p" class="node">
<title>p</title>
<ellipse fill="#f7f7f7" stroke="#333333" cx="153" cy="-286" rx="20" ry="20"/>
<text text-anchor="middle" x="153" y="-282.3" font-family="monospace" font-size="14.00">p</text>
<text text-anchor="middle" x="120.5" y="-309.8" font-family="monospace" font-size="14.00">[1]</text>
</g>
<!-- a-&gt;p -->
<g id="edge-a-p" class="edge">
<title>a-&gt;p</title>
<path fill="none" stroke="#333333" stroke-width="1.4" d="M78.02,-355.6C93.42,-341.51 115.12,-321.66 131.21,-306.93"/>
<polygon fill="#333333" stroke="#333333" stroke-width="1.4" points="133.6,-309.5 138.61,-300.16 128.87,-304.33 133.6,-309.5"/>
</g>
<!-- b -->
<g id="node-b" class="node">
<title>b</title>
<text text-anchor="middle" x="153" y="-369.6" font-family="monospace" font-size="18.00" fill="#1a4d80">b</text>
<text text-anchor="middle" x="110" y="-397.6" font-family="monospace" font-size="18.00" fill="#1a4d80">[1]</text>
</g>
<!-- b-&gt;p -->
<g id="edge-b-p" class="edge">
<title>b-&gt;p</title>
<path fill="none" stroke="#333333" stroke-width="1.4" d="M153,-355.6C153,-344.4 153,-329.56 153,-316.55"/>
<polygon fill="#333333" stroke="#333333" stroke-width="1.4" points="156.5,-316.17 153,-306.17 149.5,-316.17 156.5,-316.17"/>
</g>
<!-- c -->
<g id="node-c" class="node">
<title>c</title>
<text text-anchor="middle" x="247" y="-369.6" font-family="monospace" font-size="18.00" fill="#1a4d80">c</text>
<text text-anchor="middle" x="204" y="-397.6" font-family="monospace" font-size="18.00" fill="#1a4d80">[1]</text>
</g>
<!-- q -->
<g id="node-q" class="node">
<title>q</title>
<ellipse fill="#f7f7f7" stroke="#333333" cx="274" cy="-286" rx="20" ry="20"/>
<text text-anchor="middle" x="274" y="-282.3" font-family="monospace" font-size="14.00">q</text>
<text text-anchor="middle" x="241.5" y="-309.8" font-family="monospace" font-size="14.00">[1]</text>
</g>
<!-- c-&gt;q -->
<g id="edge-c-q" class="edge">
<title>c-&gt;q</title>
<path fill="none" stroke="#333333" stroke-width="1.4" d="M252.46,-355.6C256.12,-343.94 261.02,-328.34 265.22,-314.96"/>
<polygon fill="#333333" stroke="#333333" stroke-width="1.4" points="268.61,-315.86 268.26,-305.27 261.93,-313.76 268.61,-315.86"/>
</g>
<!-- d -->
<g id="node-d" class="node">
<title>d</title>
<text text-anchor="middle" x="341" y="-369.6" font-family="monospace" font-size="18.00" fill="#1a4d80">d</text>
<text text-anchor="middle" x="298" y="-397.6" font-family="monospace" font-size="18.00" fill="#1a4d80">[1]</text>
</g>
<!-- d-&gt;q -->
<g id="edge-d-q" class="edge">
<title>d-&gt;q</title>
<path fill="none" stroke="#333333" stroke-width="1.4" d="M327.44,-355.6C317.28,-342.55 303.26,-324.56 292.13,-310.28"/>
<polygon fill="#333333" stroke="#333333" stroke-width="1.4" points="294.87,-308.1 285.97,-302.36 289.35,-312.4 294.87,-308.1"/>
</g>
<!-- e -->
<g id="node-e" class="node">
<title>e</title>
<text text-anchor="middle" x="435" y="-369.6" font-family="monospace" font-size="18.00" fill="#1a4d80">e</text>
<text text-anchor="middle" x="392" y="-397.6" font-family="monospace" font-size="18.00" fill="#1a4d80">[1]</text>
</g>
<!-- n -->
<g id="node-n" class="node">
<title>n</title>
<ellipse fill="#f7f7f7" stroke="#333333" cx="435" cy="-286" rx="20" ry="20"/>
<text text-anchor="middle" x="435" y="-282.3" font-family="monospace" font-size="14.00">n</text>
<text text-anchor="middle" x="402.5" y="-309.8" font-family="monospace" font-size="14.00">[1]</text>
</g>
<!-- e-&gt;n -->
<g id="edge-e-n" class="edge">
<title>e-&gt;n</title>
<path fill="none" stroke="#333333" stroke-width="1.4" d="M435,-355.6C435,-344.4 435,-329.56 435,-316.55"/>
<polygon fill="#333333" stroke="#333333" stroke-width="1.4" points="438.5,-316.17 435,-306.17 431.5,-316.17 438.5,-316.17"/>
</g>
<!-- h -->
<g id="node-h" class="node">
<title>h</title>
<text text-anchor="middle" x="529" y="-369.6" font-family="monospace" font-size="18.00" fill="#1a4d80">h</text>
<text text-anchor="middle" x="486" y="-397.6" font-family="monospace" font-size="18.00" fill="#1a4d80">[1]</text>
</g>
<!-- h-&gt;n -->
<g id="edge-h-n" class="edge">
<title>h-&gt;n</title>
<path fill="none" stroke="#333333" stroke-width="1.4" d="M509.98,-355.6C494.58,-341.51 472.88,-321.66 456.79,-306.93"/>
<polygon fill="#333333" stroke="#333333" stroke-width="1.4" points="459.13,-304.33 449.39,-300.16 454.4,-309.5 459.13,-304.33"/>
</g>
<!-- m -->
<g id="node-m" class="node">
<title>m</title>
<ellipse fill="#f7f7f7" stroke="#333333" cx="274" cy="-196" rx="20" ry="20"/>
<text text-anchor="middle" x="274" y="-192.3" font-family="monospace" font-size="14.00">m</text>
<text text-anchor="middle" x="241.5" y="-219.8" font-family="monospace" font-size="14.00">[1]</text>
</g>
<!-- p-&gt;m -->
<g id="edge-p-m" class="edge">
<title>p-&gt;m</title>
<path fill="none" stroke="#333333" stroke-width="1.4" d="M168.82,-273.5C189.47,-258.48 225.82,-232.04 249.91,-214.52"/>
<polygon fill="#333333" stroke="#333333" stroke-width="1.4" points="252.15,-217.22 258.18,-208.51 248.03,-211.56 252.15,-217.22"/>
</g>
<!-- q-&gt;m -->
<g id="edge-q-m" class="edge">
<title>q-&gt;m</title>
<path fill="none" stroke="#333333" stroke-width="1.4" d="M274,-265.91C274,-254.37 274,-239.44 274,-226.42"/>
<polygon fill="#333333" stroke="#333333" stroke-width="1.4" points="277.5,-226.06 274,-216.06 270.5,-226.06 277.5,-226.06"/>
</g>
<!-- t -->
<g id="node-t" class="node">
<title>t</title>
<ellipse fill="#f7f7f7" stroke="#333333" cx="314" cy="-106" rx="20" ry="20"/>
<text text-anchor="middle" x="314" y="-102.3" font-family="monospace" font-size="14.00">t</text>
<text text-anchor="middle" x="281.5" y="-129.8" font-family="monospace" font-size="14.00">[1]</text>
</g>
<!-- m-&gt;t -->
<g id="edge-m-t" class="edge">
<title>m-&gt;t</title>
<path fill="none" stroke="#333333" stroke-width="1.4" d="M281.9,-177.61C287.56,-165.16 295.3,-148.15 301.75,-133.95"/>
<polygon fill="#333333" stroke="#333333" stroke-width="1.4" points="305.02,-135.2 305.98,-124.65 298.65,-132.31 305.02,-135.2"/>
</g>
<!-- n-&gt;t -->
<g id="edge-n-t" class="edge">
<title>n-&gt;t</title>
<path fill="none" stroke="#333333" stroke-width="1.4" d="M424.05,-268.89C402.81,-237.65 355.91,-168.66 330.74,-131.63"/>
<polygon fill="#333333" stroke="#333333" stroke-width="1.4" points="333.36,-129.25 324.84,-122.95 327.57,-133.18 333.36,-129.25"/>
</g>
<!-- PO -->
<g id="node-PO" class="node">
<title>PO</title>
<text text-anchor="middle" x="314" y="-14.6" font-family="monospace" font-size="13.00" fill="#806000">PO</text>
</g>
<!-- t-&gt;PO -->
<g id="edge-t-PO" class="edge">
<title>t-&gt;PO</title>
<path fill="none" stroke="#333333" stroke-width="1.4" d="M314,-85.91C314,-74.32 314,-59.31 314,-46.46"/>
<polygon fill="#333333" stroke="#333333" stroke-width="1.4" points="317.5,-46.28 314,-36.28 310.5,-46.28 317.5,-46.28"/>
</g>
</g>
</svg>
