<?xml version="1.0" encoding="UTF-8" standalone="no"?>
<!DOCTYPE svg PUBLIC "-//W3C//DTD SVG 1.1//EN"
 "http://www.w3.org/Graphics/SVG/1.1/DTD/svg11.dtd">
<!-- Generated by graphviz version 2.43.0 (0)
 -->
<!-- Title: npn_aig Pages: 1 -->
<svg width="467pt" height="474pt"
 viewBox="0.00 0.00 467.00 474.00" xmlns="http://www.w3.org/2000/svg" xmlns:xlink="http://www.w3.org/1999/xlink">
<g id="graph0" class="graph" transform="scale(1 1) rotate(0) translate(4 470)">
<title>npn_aig</title>
<text text-anchor="middle" x="229.5" y="-451.6" font-family="monospace" font-size="13.00">Host AIG: a 4-leaf cut at f, currently 5 ANDs (TT = 0x020F)</text>
<!-- a -->
<g id="node-a" class="node">
<title>a</title>
<text text-anchor="middle" x="120" y="-421.6" font-family="monospace" font-size="18.00" fill="#1a4d80">a</text>
</g>
<!-- t2 -->
<g id="node-t2" class="node">
<title>t2</title>
<ellipse fill="#f7f7f7" stroke="#333333" cx="178" cy="-358" rx="18" ry="18"/>
<text text-anchor="middle" x="178" y="-354.6" font-family="monospace" font-size="13.00">t2</text>
</g>
<!-- a-&gt;t2 -->
<g id="edge-a-t2" class="edge">
<title>a-&gt;t2</title>
<path fill="none" stroke="#333333" stroke-width="1.4" d="M135.24,-407.66C142.74,-399.12 151.85,-388.76 159.72,-379.8"/>
<polygon fill="#333333" stroke="#333333" stroke-width="1.4" points="162.56,-381.88 166.53,-372.05 157.3,-377.26 162.56,-381.88"/>
</g>
<!-- n1 -->
<g id="node-n1" class="node">
<title>n1</title>
<ellipse fill="#f7f7f7" stroke="#333333" cx="120" cy="-358" rx="18" ry="18"/>
<text text-anchor="middle" x="120" y="-354.6" font-family="monospace" font-size="13.00">n1</text>
</g>
<!-- a-&gt;n1 -->
<g id="edge-a-n1" class="edge">
<title>a-&gt;n1</title>
<path fill="none" stroke="#333333" stroke-width="1.4" d="M120,-407.66C120,-401.19 120,-393.68 120,-386.52"/>
<polygon fill="#333333" stroke="#333333" stroke-width="1.4" points="123.5,-386.45 120,-376.45 116.5,-386.45 123.5,-386.45"/>
</g>
<!-- b -->
<g id="node-b" class="node">
<title>b</title>
<text text-anchor="middle" x="196" y="-421.6" font-family="monospace" font-size="18.00" fill="#1a4d80">b</text>
</g>
<!-- b-&gt;t2 -->
<g id="edge-b-t2" class="edge">
<title>b-&gt;t2</title>
<path fill="none" stroke="#333333" stroke-width="1.4" stroke-dasharray="5,2" d="M191.27,-407.66C189.41,-400.83 187.23,-392.84 185.18,-385.33"/>
<polygon fill="#333333" stroke="#333333" stroke-width="1.4" points="188.52,-384.27 182.51,-375.54 181.77,-386.11 188.52,-384.27"/>
</g>
<!-- b-&gt;n1 -->
<g id="edge-b-n1" class="edge">
<title>b-&gt;n1</title>
<path fill="none" stroke="#333333" stroke-width="1.4" stroke-dasharray="5,2" d="M176.03,-407.66C165.24,-398.29 151.92,-386.72 140.97,-377.21"/>
<polygon fill="#333333" stroke="#333333" stroke-width="1.4" points="142.99,-374.33 133.15,-370.42 138.4,-379.62 142.99,-374.33"/>
</g>
<!-- c -->
<g id="node-c" class="node">
<title>c</title>
<text text-anchor="middle" x="415" y="-421.6" font-family="monospace" font-size="18.00" fill="#1a4d80">c</text>
</g>
<!-- t1 -->
<g id="node-t1" class="node">
<title>t1</title>
<ellipse fill="#f7f7f7" stroke="#333333" cx="403" cy="-358" rx="18" ry="18"/>
<text text-anchor="middle" x="403" y="-354.6" font-family="monospace" font-size="13.00">t1</text>
</g>
<!-- c-&gt;t1 -->
<g id="edge-c-t1" class="edge">
<title>c-&gt;t1</title>
<path fill="none" stroke="#333333" stroke-width="1.4" stroke-dasharray="5,2" d="M411.85,-407.66C410.64,-401.01 409.23,-393.27 407.9,-385.93"/>
<polygon fill="#333333" stroke="#333333" stroke-width="1.4" points="411.32,-385.21 406.09,-376 404.44,-386.46 411.32,-385.21"/>
</g>
<!-- t3 -->
<g id="node-t3" class="node">
<title>t3</title>
<ellipse fill="#f7f7f7" stroke="#333333" cx="302" cy="-290" rx="18" ry="18"/>
<text text-anchor="middle" x="302" y="-286.6" font-family="monospace" font-size="13.00">t3</text>
</g>
<!-- c-&gt;t3 -->
<g id="edge-c-t3" class="edge">
<title>c-&gt;t3</title>
<path fill="none" stroke="#333333" stroke-width="1.4" stroke-dasharray="5,2" d="M425.45,-407.82C435.12,-389.47 446.04,-360.3 432,-340 409.17,-307 361.1,-296.19 330.25,-292.68"/>
<polygon fill="#333333" stroke="#333333" stroke-width="1.4" points="330.41,-289.18 320.12,-291.71 329.74,-296.14 330.41,-289.18"/>
</g>
<!-- F -->
<g id="node-F" class="node">
<title>F</title>
<ellipse fill="#f7f7f7" stroke="#333333" cx="221" cy="-222" rx="18" ry="18"/>
<text text-anchor="middle" x="221" y="-218.6" font-family="monospace" font-size="13.00">F</text>
</g>
<!-- c-&gt;F -->
<g id="edge-c-F" class="edge">
<title>c-&gt;F</title>
<path fill="none" stroke="#333333" stroke-width="1.4" stroke-dasharray="5,2" d="M389.48,-407.95C359.25,-386.91 308.51,-348.87 273,-308 256.92,-289.49 242.7,-265.42 233.22,-247.62"/>
<polygon fill="#333333" stroke="#333333" stroke-width="1.4" points="236.17,-245.71 228.45,-238.45 229.96,-248.94 236.17,-245.71"/>
</g>
<!-- d -->
<g id="node-d" class="node">
<title>d</title>
<text text-anchor="middle" x="339" y="-421.6" font-family="monospace" font-size="18.00" fill="#1a4d80">d</text>
</g>
<!-- d-&gt;t1 -->
<g id="edge-d-t1" class="edge">
<title>d-&gt;t1</title>
<path fill="none" stroke="#333333" stroke-width="1.4" stroke-dasharray="5,2" d="M355.82,-407.66C364.38,-398.83 374.83,-388.05 383.72,-378.88"/>
<polygon fill="#333333" stroke="#333333" stroke-width="1.4" points="386.3,-381.25 390.75,-371.64 381.27,-376.38 386.3,-381.25"/>
</g>
<!-- t4 -->
<g id="node-t4" class="node">
<title>t4</title>
<ellipse fill="#f7f7f7" stroke="#333333" cx="325" cy="-222" rx="18" ry="18"/>
<text text-anchor="middle" x="325" y="-218.6" font-family="monospace" font-size="13.00">t4</text>
</g>
<!-- d-&gt;t4 -->
<g id="edge-d-t4" class="edge">
<title>d-&gt;t4</title>
<path fill="none" stroke="#333333" stroke-width="1.4" d="M338.5,-407.99C337.58,-379.72 335.3,-321.29 331,-272 330.39,-265.05 329.57,-257.57 328.72,-250.6"/>
<polygon fill="#333333" stroke="#333333" stroke-width="1.4" points="332.13,-249.68 327.4,-240.2 325.19,-250.56 332.13,-249.68"/>
</g>
<!-- n2 -->
<g id="node-n2" class="node">
<title>n2</title>
<ellipse fill="#f7f7f7" stroke="#333333" cx="198" cy="-290" rx="18" ry="18"/>
<text text-anchor="middle" x="198" y="-286.6" font-family="monospace" font-size="13.00">n2</text>
</g>
<!-- d-&gt;n2 -->
<g id="edge-d-n2" class="edge">
<title>d-&gt;n2</title>
<path fill="none" stroke="#333333" stroke-width="1.4" d="M311.96,-411.95C295.52,-403.21 274.75,-390.64 259,-376 239.74,-358.1 222.76,-333.26 211.63,-315.06"/>
<polygon fill="#333333" stroke="#333333" stroke-width="1.4" points="214.49,-313.02 206.37,-306.21 208.48,-316.6 214.49,-313.02"/>
</g>
<!-- e -->
<g id="node-e" class="node">
<title>e</title>
<text text-anchor="middle" x="44" y="-421.6" font-family="monospace" font-size="18.00" fill="#1a4d80">e</text>
</g>
<!-- G -->
<g id="node-G" class="node">
<title>G</title>
<ellipse fill="#f7f7f7" stroke="#333333" cx="221" cy="-86" rx="18" ry="18"/>
<text text-anchor="middle" x="221" y="-82.6" font-family="monospace" font-size="13.00">G</text>
</g>
<!-- e-&gt;G -->
<g id="edge-e-G" class="edge">
<title>e-&gt;G</title>
<path fill="none" stroke="#333333" stroke-width="1.4" d="M44,-407.65C44,-382.11 44,-332.88 44,-291 44,-291 44,-291 44,-221 44,-146.7 144.38,-108.31 193.95,-93.88"/>
<polygon fill="#333333" stroke="#333333" stroke-width="1.4" points="195.01,-97.22 203.71,-91.17 193.13,-90.48 195.01,-97.22"/>
</g>
<!-- t5 -->
<g id="node-t5" class="node">
<title>t5</title>
<ellipse fill="#f7f7f7" stroke="#333333" cx="325" cy="-154" rx="18" ry="18"/>
<text text-anchor="middle" x="325" y="-150.6" font-family="monospace" font-size="13.00">t5</text>
</g>
<!-- t1-&gt;t5 -->
<g id="edge-t1-t5" class="edge">
<title>t1-&gt;t5</title>
<path fill="none" stroke="#333333" stroke-width="1.4" stroke-dasharray="5,2" d="M398.9,-340.02C391.67,-311.29 375.37,-251.58 354,-204 350.1,-195.32 345.03,-186.23 340.22,-178.27"/>
<polygon fill="#333333" stroke="#333333" stroke-width="1.4" points="343.04,-176.18 334.78,-169.55 337.1,-179.88 343.04,-176.18"/>
</g>
<!-- t2-&gt;t3 -->
<g id="edge-t2-t3" class="edge">
<title>t2-&gt;t3</title>
<path fill="none" stroke="#333333" stroke-width="1.4" d="M193.7,-348.64C214.85,-337.38 252.7,-317.24 277.58,-304"/>
<polygon fill="#333333" stroke="#333333" stroke-width="1.4" points="279.24,-307.08 286.42,-299.29 275.95,-300.9 279.24,-307.08"/>
</g>
<!-- t3-&gt;t4 -->
<g id="edge-t3-t4" class="edge">
<title>t3-&gt;t4</title>
<path fill="none" stroke="#333333" stroke-width="1.4" d="M307.69,-272.69C310.19,-265.49 313.2,-256.86 316,-248.83"/>
<polygon fill="#333333" stroke="#333333" stroke-width="1.4" points="319.39,-249.72 319.38,-239.13 312.78,-247.42 319.39,-249.72"/>
</g>
<!-- t4-&gt;t5 -->
<g id="edge-t4-t5" class="edge">
<title>t4-&gt;t5</title>
<path fill="none" stroke="#333333" stroke-width="1.4" stroke-dasharray="5,2" d="M325,-203.66C325,-197.19 325,-189.68 325,-182.52"/>
<polygon fill="#333333" stroke="#333333" stroke-width="1.4" points="328.5,-182.45 325,-172.45 321.5,-182.45 328.5,-182.45"/>
</g>
<!-- t5-&gt;G -->
<g id="edge-t5-G" class="edge">
<title>t5-&gt;G</title>
<path fill="none" stroke="#333333" stroke-width="1.4" stroke-dasharray="5,2" d="M310.1,-143.54C292.95,-132.66 264.58,-114.66 244.47,-101.89"/>
<polygon fill="#333333" stroke="#333333" stroke-width="1.4" points="246.19,-98.84 235.87,-96.44 242.44,-104.75 246.19,-98.84"/>
</g>
<!-- n1-&gt;n2 -->
<g id="edge-n1-n2" class="edge">
<title>n1-&gt;n2</title>
<path fill="none" stroke="#333333" stroke-width="1.4" stroke-dasharray="5,2" d="M133.59,-345.5C145.44,-335.47 162.85,-320.74 176.58,-309.13"/>
<polygon fill="#333333" stroke="#333333" stroke-width="1.4" points="179.2,-311.5 184.57,-302.36 174.67,-306.15 179.2,-311.5"/>
</g>
<!-- n2-&gt;F -->
<g id="edge-n2-F" class="edge">
<title>n2-&gt;F</title>
<path fill="none" stroke="#333333" stroke-width="1.4" stroke-dasharray="5,2" d="M203.69,-272.69C206.19,-265.49 209.2,-256.86 212,-248.83"/>
<polygon fill="#333333" stroke="#333333" stroke-width="1.4" points="215.39,-249.72 215.38,-239.13 208.78,-247.42 215.39,-249.72"/>
</g>
<!-- F-&gt;G -->
<g id="edge-F-G" class="edge">
<title>F-&gt;G</title>
<path fill="none" stroke="#333333" stroke-width="1.4" d="M221,-203.76C221,-181.14 221,-141.2 221,-114.42"/>
<polygon fill="#333333" stroke="#333333" stroke-width="1.4" points="224.5,-114.18 221,-104.18 217.5,-114.18 224.5,-114.18"/>
</g>
<!-- PO -->
<g id="node-PO" class="node">
<title>PO</title>
<text text-anchor="middle" x="221" y="-14.3" font-family="monospace" font-size="14.00" fill="#806000">PO</text>
</g>
<!-- G-&gt;PO -->
<g id="edge-G-PO" class="edge">
<title>G-&gt;PO</title>
<path fill="none" stroke="#333333" stroke-width="1.4" d="M221,-67.66C221,-61.19 221,-53.68 221,-46.52"/>
<polygon fill="#333333" stroke="#333333" stroke-width="1.4" points="224.5,-46.45 221,-36.45 217.5,-46.45 224.5,-46.45"/>
</g>
</g>
</svg>
