<?xml version="1.0" encoding="UTF-8" standalone="no"?>
<!DOCTYPE svg PUBLIC "-//W3C//DTD SVG 1.1//EN"
 "http://www.w3.org/Graphics/SVG/1.1/DTD/svg11.dtd">
<!-- Generated by graphviz version 2.43.0 (0)
 -->
<!-- Title: npn_canonical Pages: 1 -->
<svg width="362pt" height="382pt"
 viewBox="0.00 0.00 362.00 382.00" xmlns="http://www.w3.org/2000/svg" xmlns:xlink="http://www.w3.org/1999/xlink">
<g id="graph0" class="graph" transform="scale(1 1) rotate(0) translate(4 378)">
<title>npn_canonical</title>
<text text-anchor="middle" x="177" y="-359.6" font-family="monospace" font-size="13.00">Canonical subgraph for class 12 (TT = 0x001F)</text>
<!-- s0 -->
<g id="aux-node-s0" class="node">
<title>s0</title>
<text text-anchor="middle" x="42" y="-329.6" font-family="monospace" font-size="18.00" fill="#1a4d80">x0</text>
</g>
<!-- n1 -->
<g id="aux-node-n1" class="node">
<title>n1</title>
<ellipse fill="#f7f7f7" stroke="#333333" cx="132" cy="-256" rx="20" ry="20"/>
<text text-anchor="middle" x="132" y="-252.3" font-family="monospace" font-size="14.00">n1</text>
</g>
<!-- s0-&gt;n1 -->
<g id="aux-edge-s0-n1" class="edge">
<title>s0-&gt;n1</title>
<path fill="none" stroke="#333333" stroke-width="1.4" stroke-dasharray="5,2" d="M62.42,-315.75C76.3,-304.04 94.66,-288.53 109.04,-276.38"/>
<polygon fill="#333333" stroke="#333333" stroke-width="1.4" points="111.6,-278.8 116.99,-269.68 107.09,-273.46 111.6,-278.8"/>
</g>
<!-- s1 -->
<g id="aux-node-s1" class="node">
<title>s1</title>
<text text-anchor="middle" x="132" y="-329.6" font-family="monospace" font-size="18.00" fill="#1a4d80">x1</text>
</g>
<!-- s1-&gt;n1 -->
<g id="aux-edge-s1-n1" class="edge">
<title>s1-&gt;n1</title>
<path fill="none" stroke="#333333" stroke-width="1.4" stroke-dasharray="5,2" d="M132,-315.75C132,-306.98 132,-296.07 132,-286.05"/>
<polygon fill="#333333" stroke="#333333" stroke-width="1.4" points="135.5,-286.04 132,-276.04 128.5,-286.04 135.5,-286.04"/>
</g>
<!-- s2 -->
<g id="aux-node-s2" class="node">
<title>s2</title>
<text text-anchor="middle" x="222" y="-329.6" font-family="monospace" font-size="18.00" fill="#1a4d80">x2</text>
</g>
<!-- n2 -->
<g id="aux-node-n2" class="node">
<title>n2</title>
<ellipse fill="#f7f7f7" stroke="#333333" cx="222" cy="-176" rx="20" ry="20"/>
<text text-anchor="middle" x="222" y="-172.3" font-family="monospace" font-size="14.00">n2</text>
</g>
<!-- s2-&gt;n2 -->
<g id="aux-edge-s2-n2" class="edge">
<title>s2-&gt;n2</title>
<path fill="none" stroke="#333333" stroke-width="1.4" d="M222,-315.71C222,-289.34 222,-238.74 222,-206.49"/>
<polygon fill="#333333" stroke="#333333" stroke-width="1.4" points="225.5,-206.32 222,-196.32 218.5,-206.32 225.5,-206.32"/>
</g>
<!-- s3 -->
<g id="aux-node-s3" class="node">
<title>s3</title>
<text text-anchor="middle" x="312" y="-329.6" font-family="monospace" font-size="18.00" fill="#1a4d80">x3</text>
</g>
<!-- F -->
<g id="aux-node-F" class="node">
<title>F</title>
<ellipse fill="#f7f7f7" stroke="#333333" cx="267" cy="-96" rx="20" ry="20"/>
<text text-anchor="middle" x="267" y="-92.3" font-family="monospace" font-size="14.00">F</text>
</g>
<!-- s3-&gt;F -->
<g id="aux-edge-s3-F" class="edge">
<title>s3-&gt;F</title>
<path fill="none" stroke="#333333" stroke-width="1.4" stroke-dasharray="5,2" d="M308.69,-315.65C301.03,-275.48 282.02,-175.77 272.55,-126.09"/>
<polygon fill="#333333" stroke="#333333" stroke-width="1.4" points="275.94,-125.18 270.62,-116.01 269.06,-126.49 275.94,-125.18"/>
</g>
<!-- n1-&gt;n2 -->
<g id="aux-edge-n1-n2" class="edge">
<title>n1-&gt;n2</title>
<path fill="none" stroke="#333333" stroke-width="1.4" stroke-dasharray="5,2" d="M146.86,-242.12C161.19,-229.7 183.07,-210.74 199.53,-196.48"/>
<polygon fill="#333333" stroke="#333333" stroke-width="1.4" points="201.85,-199.09 207.12,-189.9 197.27,-193.8 201.85,-199.09"/>
</g>
<!-- n2-&gt;F -->
<g id="aux-edge-n2-F" class="edge">
<title>n2-&gt;F</title>
<path fill="none" stroke="#333333" stroke-width="1.4" stroke-dasharray="5,2" d="M231.76,-158.08C237.76,-147.68 245.56,-134.17 252.29,-122.5"/>
<polygon fill="#333333" stroke="#333333" stroke-width="1.4" points="255.44,-124.03 257.41,-113.62 249.38,-120.54 255.44,-124.03"/>
</g>
<!-- out -->
<g id="aux-node-out" class="node">
<title>out</title>
<text text-anchor="middle" x="267" y="-14.3" font-family="monospace" font-size="14.00" fill="#806000">TT = 0x001F</text>
</g>
<!-- F-&gt;out -->
<g id="aux-edge-F-out" class="edge">
<title>F-&gt;out</title>
<path fill="none" stroke="#333333" stroke-width="1.4" d="M267,-75.82C267,-66.84 267,-55.99 267,-46.19"/>
<polygon fill="#333333" stroke="#333333" stroke-width="1.4" points="270.5,-46.1 267,-36.1 263.5,-46.1 270.5,-46.1"/>
</g>
</g>
</svg>
