<?xml version="1.0" encoding="UTF-8" standalone="no"?>
<!DOCTYPE svg PUBLIC "-//W3C//DTD SVG 1.1//EN"
 "http://www.w3.org/Graphics/SVG/1.1/DTD/svg11.dtd">
<!-- Generated by graphviz version 2.43.0 (0)
 -->
<!-- Title: npn_aig Pages: 1 -->
<svg width="415pt" height="480pt"
 viewBox="0.00 0.00 415.00 480.00" xmlns="http://www.w3.org/2000/svg" xmlns:xlink="http://www.w3.org/1999/xlink">
<g id="graph0" class="graph" transform="scale(1 1) rotate(0) translate(4 476)">
<title>npn_aig</title>
<text text-anchor="middle" x="203.5" y="-457.6" font-family="monospace" font-size="13.00">Host AIG with cut at T (TT = 0x020F)</text>
<!-- a -->
<g id="node-a" class="node">
<title>a</title>
<text text-anchor="middle" x="286" y="-427.6" font-family="monospace" font-size="18.00" fill="#1a4d80">a</text>
</g>
<!-- T -->
<g id="node-T" class="node">
<title>T</title>
<polygon fill="#fff6e6" stroke="#b08040" stroke-width="2" points="333,-374 189,-374 189,-316 333,-316 333,-374"/>
<text text-anchor="middle" x="261" y="-348.8" font-family="monospace" font-size="14.00">T (cut)</text>
<text text-anchor="middle" x="261" y="-333.8" font-family="monospace" font-size="14.00">TT=0x020F</text>
</g>
<!-- a-&gt;T -->
<g id="edge-a-T" class="edge">
<title>a-&gt;T</title>
<path fill="none" stroke="#333333" stroke-width="1.4" d="M280.94,-413.8C278.41,-405.2 275.24,-394.42 272.18,-384.01"/>
<polygon fill="#333333" stroke="#333333" stroke-width="1.4" points="275.48,-382.82 269.3,-374.22 268.76,-384.8 275.48,-382.82"/>
</g>
<!-- n1 -->
<g id="node-n1" class="node">
<title>n1</title>
<ellipse fill="#f7f7f7" stroke="#333333" cx="382" cy="-345" rx="20" ry="20"/>
<text text-anchor="middle" x="382" y="-341.3" font-family="monospace" font-size="14.00">n1</text>
</g>
<!-- a-&gt;n1 -->
<g id="edge-a-n1" class="edge">
<title>a-&gt;n1</title>
<path fill="none" stroke="#333333" stroke-width="1.4" d="M305.43,-413.8C321.15,-399.88 343.31,-380.25 359.75,-365.7"/>
<polygon fill="#333333" stroke="#333333" stroke-width="1.4" points="362.14,-368.26 367.31,-359.01 357.5,-363.02 362.14,-368.26"/>
</g>
<!-- b -->
<g id="node-b" class="node">
<title>b</title>
<text text-anchor="middle" x="380" y="-427.6" font-family="monospace" font-size="18.00" fill="#1a4d80">b</text>
</g>
<!-- b-&gt;T -->
<g id="edge-b-T" class="edge">
<title>b-&gt;T</title>
<path fill="none" stroke="#333333" stroke-width="1.4" d="M355.92,-413.8C342.39,-404.13 325.01,-391.72 308.83,-380.16"/>
<polygon fill="#333333" stroke="#333333" stroke-width="1.4" points="310.68,-377.18 300.51,-374.22 306.61,-382.88 310.68,-377.18"/>
</g>
<!-- b-&gt;n1 -->
<g id="edge-b-n1" class="edge">
<title>b-&gt;n1</title>
<path fill="none" stroke="#333333" stroke-width="1.4" stroke-dasharray="5,2" d="M380.4,-413.8C380.66,-402.81 381.01,-388.27 381.31,-375.47"/>
<polygon fill="#333333" stroke="#333333" stroke-width="1.4" points="384.81,-375.33 381.55,-365.25 377.81,-375.17 384.81,-375.33"/>
</g>
<!-- c -->
<g id="node-c" class="node">
<title>c</title>
<text text-anchor="middle" x="111" y="-427.6" font-family="monospace" font-size="18.00" fill="#1a4d80">c</text>
</g>
<!-- c-&gt;T -->
<g id="edge-c-T" class="edge">
<title>c-&gt;T</title>
<path fill="none" stroke="#333333" stroke-width="1.4" d="M138.16,-415.61C156.13,-405.43 180.37,-391.69 202.58,-379.11"/>
<polygon fill="#333333" stroke="#333333" stroke-width="1.4" points="204.32,-382.14 211.29,-374.17 200.86,-376.05 204.32,-382.14"/>
</g>
<!-- F -->
<g id="node-F" class="node">
<title>F</title>
<ellipse fill="#f7f7f7" stroke="#333333" cx="120" cy="-176" rx="20" ry="20"/>
<text text-anchor="middle" x="120" y="-172.3" font-family="monospace" font-size="14.00">F</text>
</g>
<!-- c-&gt;F -->
<g id="edge-c-F" class="edge">
<title>c-&gt;F</title>
<path fill="none" stroke="#333333" stroke-width="1.4" stroke-dasharray="5,2" d="M111.2,-413.78C111.64,-379.77 112.94,-301.63 116,-236 116.45,-226.31 117.12,-215.74 117.77,-206.26"/>
<polygon fill="#333333" stroke="#333333" stroke-width="1.4" points="121.27,-206.34 118.5,-196.12 114.29,-205.84 121.27,-206.34"/>
</g>
<!-- d -->
<g id="node-d" class="node">
<title>d</title>
<text text-anchor="middle" x="197" y="-427.6" font-family="monospace" font-size="18.00" fill="#1a4d80">d</text>
</g>
<!-- d-&gt;T -->
<g id="edge-d-T" class="edge">
<title>d-&gt;T</title>
<path fill="none" stroke="#333333" stroke-width="1.4" d="M209.95,-413.8C216.76,-404.75 225.38,-393.3 233.59,-382.4"/>
<polygon fill="#333333" stroke="#333333" stroke-width="1.4" points="236.53,-384.31 239.75,-374.22 230.94,-380.1 236.53,-384.31"/>
</g>
<!-- n2 -->
<g id="node-n2" class="node">
<title>n2</title>
<ellipse fill="#f7f7f7" stroke="#333333" cx="150" cy="-256" rx="20" ry="20"/>
<text text-anchor="middle" x="150" y="-252.3" font-family="monospace" font-size="14.00">n2</text>
</g>
<!-- d-&gt;n2 -->
<g id="edge-d-n2" class="edge">
<title>d-&gt;n2</title>
<path fill="none" stroke="#333333" stroke-width="1.4" d="M189.54,-413.78C184.89,-402.6 179.06,-387.62 175,-374 166.21,-344.48 159.21,-309.9 154.88,-286.03"/>
<polygon fill="#333333" stroke="#333333" stroke-width="1.4" points="158.28,-285.11 153.09,-275.87 151.38,-286.33 158.28,-285.11"/>
</g>
<!-- e -->
<g id="node-e" class="node">
<title>e</title>
<text text-anchor="middle" x="27" y="-427.6" font-family="monospace" font-size="18.00" fill="#1a4d80">e</text>
</g>
<!-- G -->
<g id="node-G" class="node">
<title>G</title>
<ellipse fill="#f7f7f7" stroke="#333333" cx="120" cy="-96" rx="20" ry="20"/>
<text text-anchor="middle" x="120" y="-92.3" font-family="monospace" font-size="14.00">G</text>
</g>
<!-- e-&gt;G -->
<g id="edge-e-G" class="edge">
<title>e-&gt;G</title>
<path fill="none" stroke="#333333" stroke-width="1.4" d="M28.81,-413.73C33.85,-369.57 50.08,-249.43 86,-156 90.59,-144.05 97.38,-131.66 103.69,-121.33"/>
<polygon fill="#333333" stroke="#333333" stroke-width="1.4" points="106.67,-123.17 109.04,-112.85 100.75,-119.44 106.67,-123.17"/>
</g>
<!-- T-&gt;G -->
<g id="edge-T-G" class="edge">
<title>T-&gt;G</title>
<path fill="none" stroke="#333333" stroke-width="1.4" d="M245.39,-315.86C224.88,-279.01 187.64,-212.44 155,-156 148.54,-144.84 141.29,-132.56 135.06,-122.11"/>
<polygon fill="#333333" stroke="#333333" stroke-width="1.4" points="138.04,-120.27 129.9,-113.47 132.03,-123.85 138.04,-120.27"/>
</g>
<!-- n1-&gt;n2 -->
<g id="edge-n1-n2" class="edge">
<title>n1-&gt;n2</title>
<path fill="none" stroke="#333333" stroke-width="1.4" stroke-dasharray="5,2" d="M368.03,-330.35C362.21,-325.26 355.15,-319.81 348,-316 292.34,-286.37 219.76,-269.61 179.74,-262.02"/>
<polygon fill="#333333" stroke="#333333" stroke-width="1.4" points="180.29,-258.56 169.83,-260.2 179.03,-265.45 180.29,-258.56"/>
</g>
<!-- n2-&gt;F -->
<g id="edge-n2-F" class="edge">
<title>n2-&gt;F</title>
<path fill="none" stroke="#333333" stroke-width="1.4" stroke-dasharray="5,2" d="M143.04,-236.91C139.33,-227.26 134.69,-215.19 130.54,-204.42"/>
<polygon fill="#333333" stroke="#333333" stroke-width="1.4" points="133.78,-203.07 126.92,-194.99 127.24,-205.58 133.78,-203.07"/>
</g>
<!-- F-&gt;G -->
<g id="edge-F-G" class="edge">
<title>F-&gt;G</title>
<path fill="none" stroke="#333333" stroke-width="1.4" d="M120,-155.72C120,-146.84 120,-136.11 120,-126.27"/>
<polygon fill="#333333" stroke="#333333" stroke-width="1.4" points="123.5,-126.06 120,-116.06 116.5,-126.06 123.5,-126.06"/>
</g>
<!-- PO -->
<g id="node-PO" class="node">
<title>PO</title>
<text text-anchor="middle" x="120" y="-14.3" font-family="monospace" font-size="14.00" fill="#806000">PO</text>
</g>
<!-- G-&gt;PO -->
<g id="edge-G-PO" class="edge">
<title>G-&gt;PO</title>
<path fill="none" stroke="#333333" stroke-width="1.4" d="M120,-75.82C120,-66.84 120,-55.99 120,-46.19"/>
<polygon fill="#333333" stroke="#333333" stroke-width="1.4" points="123.5,-46.1 120,-36.1 116.5,-46.1 123.5,-46.1"/>
</g>
</g>
</svg>
