<?xml version="1.0" encoding="UTF-8" standalone="no"?>
<!DOCTYPE svg PUBLIC "-//W3C//DTD SVG 1.1//EN"
 "http://www.w3.org/Graphics/SVG/1.1/DTD/svg11.dtd">
<!-- Generated by graphviz version 2.43.0 (0)
 -->
<!-- Title: reconv_demo Pages: 1 -->
<svg width="320pt" height="400pt"
 viewBox="0.00 0.00 320.00 400.00" xmlns="http://www.w3.org/2000/svg" xmlns:xlink="http://www.w3.org/1999/xlink">
<g id="graph0" class="graph" transform="scale(1 1) rotate(0) translate(4 396)">
<title>reconv_demo</title>
<!-- a -->
<g id="node-a" class="node">
<title>a</title>
<text text-anchor="middle" x="113" y="-369.6" font-family="monospace" font-size="18.00" fill="#1a4d80">a</text>
</g>
<!-- n1 -->
<g id="node-n1" class="node">
<title>n1</title>
<ellipse fill="#f7f7f7" stroke="#333333" cx="156" cy="-286" rx="20" ry="20"/>
<text text-anchor="middle" x="156" y="-282.3" font-family="monospace" font-size="14.00">n1</text>
</g>
<!-- a-&gt;n1 -->
<g id="edge-a-n1" class="edge">
<title>a-&gt;n1</title>
<path fill="none" stroke="#333333" stroke-width="1.4" d="M121.7,-355.6C127.76,-343.47 135.96,-327.08 142.82,-313.36"/>
<polygon fill="#333333" stroke="#333333" stroke-width="1.4" points="145.97,-314.89 147.31,-304.38 139.71,-311.76 145.97,-314.89"/>
</g>
<!-- b -->
<g id="node-b" class="node">
<title>b</title>
<text text-anchor="middle" x="199" y="-369.6" font-family="monospace" font-size="18.00" fill="#1a4d80">b</text>
</g>
<!-- b-&gt;n1 -->
<g id="edge-b-n1" class="edge">
<title>b-&gt;n1</title>
<path fill="none" stroke="#333333" stroke-width="1.4" d="M190.3,-355.6C184.24,-343.47 176.04,-327.08 169.18,-313.36"/>
<polygon fill="#333333" stroke="#333333" stroke-width="1.4" points="172.29,-311.76 164.69,-304.38 166.03,-314.89 172.29,-311.76"/>
</g>
<!-- c -->
<g id="node-c" class="node">
<title>c</title>
<text text-anchor="middle" x="285" y="-369.6" font-family="monospace" font-size="18.00" fill="#1a4d80">c</text>
</g>
<!-- n2 -->
<g id="node-n2" class="node">
<title>n2</title>
<ellipse fill="#f7f7f7" stroke="#333333" cx="192" cy="-196" rx="20" ry="20"/>
<text text-anchor="middle" x="192" y="-192.3" font-family="monospace" font-size="14.00">n2</text>
</g>
<!-- c-&gt;n2 -->
<g id="edge-c-n2" class="edge">
<title>c-&gt;n2</title>
<path fill="none" stroke="#333333" stroke-width="1.4" d="M275.91,-355.8C259.55,-324.84 225.04,-259.53 205.77,-223.05"/>
<polygon fill="#333333" stroke="#333333" stroke-width="1.4" points="208.75,-221.21 200.99,-214.01 202.56,-224.48 208.75,-221.21"/>
</g>
<!-- d -->
<g id="node-d" class="node">
<title>d</title>
<text text-anchor="middle" x="27" y="-369.6" font-family="monospace" font-size="18.00" fill="#1a4d80">d</text>
</g>
<!-- n3 -->
<g id="node-n3" class="node">
<title>n3</title>
<ellipse fill="#f7f7f7" stroke="#333333" cx="120" cy="-196" rx="20" ry="20"/>
<text text-anchor="middle" x="120" y="-192.3" font-family="monospace" font-size="14.00">n3</text>
</g>
<!-- d-&gt;n3 -->
<g id="edge-d-n3" class="edge">
<title>d-&gt;n3</title>
<path fill="none" stroke="#333333" stroke-width="1.4" d="M36.09,-355.8C52.45,-324.84 86.96,-259.53 106.23,-223.05"/>
<polygon fill="#333333" stroke="#333333" stroke-width="1.4" points="109.44,-224.48 111.01,-214.01 103.25,-221.21 109.44,-224.48"/>
</g>
<!-- n1-&gt;n2 -->
<g id="edge-n1-n2" class="edge">
<title>n1-&gt;n2</title>
<path fill="none" stroke="#333333" stroke-width="1.4" d="M163.29,-267.19C168.31,-254.91 175.09,-238.34 180.8,-224.38"/>
<polygon fill="#333333" stroke="#333333" stroke-width="1.4" points="184.18,-225.36 184.73,-214.78 177.7,-222.71 184.18,-225.36"/>
</g>
<!-- n1-&gt;n3 -->
<g id="edge-n1-n3" class="edge">
<title>n1-&gt;n3</title>
<path fill="none" stroke="#333333" stroke-width="1.4" d="M148.71,-267.19C143.69,-254.91 136.91,-238.34 131.2,-224.38"/>
<polygon fill="#333333" stroke="#333333" stroke-width="1.4" points="134.3,-222.71 127.27,-214.78 127.82,-225.36 134.3,-222.71"/>
</g>
<!-- n4 -->
<g id="node-n4" class="node">
<title>n4</title>
<ellipse fill="#f7f7f7" stroke="#333333" cx="156" cy="-106" rx="20" ry="20"/>
<text text-anchor="middle" x="156" y="-102.3" font-family="monospace" font-size="14.00">n4</text>
</g>
<!-- n2-&gt;n4 -->
<g id="edge-n2-n4" class="edge">
<title>n2-&gt;n4</title>
<path fill="none" stroke="#333333" stroke-width="1.4" d="M184.71,-177.19C179.69,-164.91 172.91,-148.34 167.2,-134.38"/>
<polygon fill="#333333" stroke="#333333" stroke-width="1.4" points="170.3,-132.71 163.27,-124.78 163.82,-135.36 170.3,-132.71"/>
</g>
<!-- n3-&gt;n4 -->
<g id="edge-n3-n4" class="edge">
<title>n3-&gt;n4</title>
<path fill="none" stroke="#333333" stroke-width="1.4" d="M127.29,-177.19C132.31,-164.91 139.09,-148.34 144.8,-134.38"/>
<polygon fill="#333333" stroke="#333333" stroke-width="1.4" points="148.18,-135.36 148.73,-124.78 141.7,-132.71 148.18,-135.36"/>
</g>
<!-- PO -->
<g id="node-PO" class="node">
<title>PO</title>
<text text-anchor="middle" x="156" y="-14.3" font-family="monospace" font-size="14.00" fill="#806000">f</text>
</g>
<!-- n4-&gt;PO -->
<g id="edge-n4-PO" class="edge">
<title>n4-&gt;PO</title>
<path fill="none" stroke="#333333" stroke-width="1.4" d="M156,-85.91C156,-74.32 156,-59.31 156,-46.46"/>
<polygon fill="#333333" stroke="#333333" stroke-width="1.4" points="159.5,-46.28 156,-36.28 152.5,-46.28 159.5,-46.28"/>
</g>
</g>
</svg>
