<?xml version="1.0" encoding="UTF-8" standalone="no"?>
<!DOCTYPE svg PUBLIC "-//W3C//DTD SVG 1.1//EN"
 "http://www.w3.org/Graphics/SVG/1.1/DTD/svg11.dtd">
<!-- Generated by graphviz version 2.43.0 (0)
 -->
<!-- Title: reconv_demo Pages: 1 -->
<svg width="406pt" height="400pt"
 viewBox="0.00 0.00 406.00 400.00" xmlns="http://www.w3.org/2000/svg" xmlns:xlink="http://www.w3.org/1999/xlink">
<g id="graph0" class="graph" transform="scale(1 1) rotate(0) translate(4 396)">
<title>reconv_demo</title>
<!-- a -->
<g id="node-a" class="node">
<title>a</title>
<text text-anchor="middle" x="113" y="-369.6" font-family="monospace" font-size="18.00" fill="#1a4d80">a</text>
</g>
<!-- u -->
<g id="node-u" class="node">
<title>u</title>
<ellipse fill="#f7f7f7" stroke="#333333" cx="192" cy="-286" rx="20" ry="20"/>
<text text-anchor="middle" x="192" y="-282.3" font-family="monospace" font-size="14.00">u</text>
</g>
<!-- a-&gt;u -->
<g id="edge-a-u" class="edge">
<title>a-&gt;u</title>
<path fill="none" stroke="#333333" stroke-width="1.4" d="M128.99,-355.6C141.39,-342.1 158.65,-323.3 171.97,-308.8"/>
<polygon fill="#333333" stroke="#333333" stroke-width="1.4" points="174.73,-310.98 178.91,-301.25 169.57,-306.24 174.73,-310.98"/>
</g>
<!-- Y -->
<g id="node-Y" class="node">
<title>Y</title>
<ellipse fill="#f7f7f7" stroke="#333333" cx="113" cy="-286" rx="20" ry="20"/>
<text text-anchor="middle" x="113" y="-282.3" font-family="monospace" font-size="14.00">Y</text>
</g>
<!-- a-&gt;Y -->
<g id="edge-a-Y" class="edge">
<title>a-&gt;Y</title>
<path fill="none" stroke="#333333" stroke-width="1.4" d="M113,-355.6C113,-344.4 113,-329.56 113,-316.55"/>
<polygon fill="#333333" stroke="#333333" stroke-width="1.4" points="116.5,-316.17 113,-306.17 109.5,-316.17 116.5,-316.17"/>
</g>
<!-- b -->
<g id="node-b" class="node">
<title>b</title>
<text text-anchor="middle" x="27" y="-369.6" font-family="monospace" font-size="18.00" fill="#1a4d80">b</text>
</g>
<!-- b-&gt;Y -->
<g id="edge-b-Y" class="edge">
<title>b-&gt;Y</title>
<path fill="none" stroke="#333333" stroke-width="1.4" d="M44.4,-355.6C58.2,-341.8 77.51,-322.49 92.13,-307.87"/>
<polygon fill="#333333" stroke="#333333" stroke-width="1.4" points="94.7,-310.25 99.3,-300.7 89.75,-305.3 94.7,-310.25"/>
</g>
<!-- c -->
<g id="node-c" class="node">
<title>c</title>
<text text-anchor="middle" x="199" y="-369.6" font-family="monospace" font-size="18.00" fill="#1a4d80">c</text>
</g>
<!-- c-&gt;u -->
<g id="edge-c-u" class="edge">
<title>c-&gt;u</title>
<path fill="none" stroke="#333333" stroke-width="1.4" d="M197.58,-355.6C196.66,-344.29 195.44,-329.27 194.37,-316.16"/>
<polygon fill="#333333" stroke="#333333" stroke-width="1.4" points="197.86,-315.86 193.56,-306.17 190.88,-316.42 197.86,-315.86"/>
</g>
<!-- d -->
<g id="node-d" class="node">
<title>d</title>
<text text-anchor="middle" x="285" y="-369.6" font-family="monospace" font-size="18.00" fill="#1a4d80">d</text>
</g>
<!-- v -->
<g id="node-v" class="node">
<title>v</title>
<ellipse fill="#f7f7f7" stroke="#333333" cx="285" cy="-286" rx="20" ry="20"/>
<text text-anchor="middle" x="285" y="-282.3" font-family="monospace" font-size="14.00">v</text>
</g>
<!-- d-&gt;v -->
<g id="edge-d-v" class="edge">
<title>d-&gt;v</title>
<path fill="none" stroke="#333333" stroke-width="1.4" d="M285,-355.6C285,-344.4 285,-329.56 285,-316.55"/>
<polygon fill="#333333" stroke="#333333" stroke-width="1.4" points="288.5,-316.17 285,-306.17 281.5,-316.17 288.5,-316.17"/>
</g>
<!-- e -->
<g id="node-e" class="node">
<title>e</title>
<text text-anchor="middle" x="371" y="-369.6" font-family="monospace" font-size="18.00" fill="#1a4d80">e</text>
</g>
<!-- e-&gt;v -->
<g id="edge-e-v" class="edge">
<title>e-&gt;v</title>
<path fill="none" stroke="#333333" stroke-width="1.4" d="M353.6,-355.6C339.8,-341.8 320.49,-322.49 305.87,-307.87"/>
<polygon fill="#333333" stroke="#333333" stroke-width="1.4" points="308.25,-305.3 298.7,-300.7 303.3,-310.25 308.25,-305.3"/>
</g>
<!-- X -->
<g id="node-X" class="node">
<title>X</title>
<ellipse fill="#f7f7f7" stroke="#333333" cx="192" cy="-196" rx="20" ry="20"/>
<text text-anchor="middle" x="192" y="-192.3" font-family="monospace" font-size="14.00">X</text>
</g>
<!-- u-&gt;X -->
<g id="edge-u-X" class="edge">
<title>u-&gt;X</title>
<path fill="none" stroke="#333333" stroke-width="1.4" d="M192,-265.91C192,-254.37 192,-239.44 192,-226.42"/>
<polygon fill="#333333" stroke="#333333" stroke-width="1.4" points="195.5,-226.06 192,-216.06 188.5,-226.06 195.5,-226.06"/>
</g>
<!-- v-&gt;X -->
<g id="edge-v-X" class="edge">
<title>v-&gt;X</title>
<path fill="none" stroke="#333333" stroke-width="1.4" d="M270.88,-271.63C255.72,-257.29 231.45,-234.33 213.83,-217.65"/>
<polygon fill="#333333" stroke="#333333" stroke-width="1.4" points="215.93,-214.82 206.26,-210.49 211.12,-219.91 215.93,-214.82"/>
</g>
<!-- T -->
<g id="node-T" class="node">
<title>T</title>
<ellipse fill="#f7f7f7" stroke="#333333" cx="152" cy="-106" rx="20" ry="20"/>
<text text-anchor="middle" x="152" y="-102.3" font-family="monospace" font-size="14.00">T</text>
</g>
<!-- Y-&gt;T -->
<g id="edge-Y-T" class="edge">
<title>Y-&gt;T</title>
<path fill="none" stroke="#333333" stroke-width="1.4" d="M117.1,-266.29C123.92,-235.17 137.63,-172.59 145.69,-135.81"/>
<polygon fill="#333333" stroke="#333333" stroke-width="1.4" points="149.18,-136.25 147.9,-125.73 142.34,-134.75 149.18,-136.25"/>
</g>
<!-- X-&gt;T -->
<g id="edge-X-T" class="edge">
<title>X-&gt;T</title>
<path fill="none" stroke="#333333" stroke-width="1.4" d="M184.1,-177.61C178.44,-165.16 170.7,-148.15 164.25,-133.95"/>
<polygon fill="#333333" stroke="#333333" stroke-width="1.4" points="167.35,-132.31 160.02,-124.65 160.98,-135.2 167.35,-132.31"/>
</g>
<!-- PO -->
<g id="node-PO" class="node">
<title>PO</title>
<text text-anchor="middle" x="152" y="-14.3" font-family="monospace" font-size="14.00" fill="#806000">f</text>
</g>
<!-- T-&gt;PO -->
<g id="edge-T-PO" class="edge">
<title>T-&gt;PO</title>
<path fill="none" stroke="#333333" stroke-width="1.4" d="M152,-85.91C152,-74.32 152,-59.31 152,-46.46"/>
<polygon fill="#333333" stroke="#333333" stroke-width="1.4" points="155.5,-46.28 152,-36.28 148.5,-46.28 155.5,-46.28"/>
</g>
</g>
</svg>
