<?xml version="1.0" encoding="UTF-8" standalone="no"?>
<!DOCTYPE svg PUBLIC "-//W3C//DTD SVG 1.1//EN"
 "http://www.w3.org/Graphics/SVG/1.1/DTD/svg11.dtd">
<!-- Generated by graphviz version 2.43.0 (0)
 -->
<!-- Title: refactor_chain Pages: 1 -->
<svg width="366pt" height="442pt"
 viewBox="0.00 0.00 366.00 442.00" xmlns="http://www.w3.org/2000/svg" xmlns:xlink="http://www.w3.org/1999/xlink">
<g id="graph0" class="graph" transform="scale(1 1) rotate(0) translate(4 438)">
<title>refactor_chain</title>
<text text-anchor="middle" x="179" y="-419.6" font-family="monospace" font-size="13.00">AIG of f = a·(b+c+d+e), 7 ANDs, depth 4</text>
<!-- a -->
<g id="node-a" class="node">
<title>a</title>
<text text-anchor="middle" x="179" y="-389.6" font-family="monospace" font-size="18.00" fill="#1a4d80">a</text>
</g>
<!-- ab -->
<g id="node-ab" class="node">
<title>ab</title>
<ellipse fill="#f7f7f7" stroke="#333333" cx="148" cy="-320" rx="20" ry="20"/>
<text text-anchor="middle" x="148" y="-316.6" font-family="monospace" font-size="13.00">ab</text>
</g>
<!-- a-&gt;ab -->
<g id="edge-a-ab" class="edge">
<title>a-&gt;ab</title>
<path fill="none" stroke="#333333" stroke-width="1.4" d="M171.65,-375.94C168.07,-367.6 163.66,-357.38 159.63,-348.02"/>
<polygon fill="#333333" stroke="#333333" stroke-width="1.4" points="162.79,-346.49 155.62,-338.69 156.36,-349.26 162.79,-346.49"/>
</g>
<!-- ac -->
<g id="node-ac" class="node">
<title>ac</title>
<ellipse fill="#f7f7f7" stroke="#333333" cx="210" cy="-320" rx="20" ry="20"/>
<text text-anchor="middle" x="210" y="-316.6" font-family="monospace" font-size="13.00">ac</text>
</g>
<!-- a-&gt;ac -->
<g id="edge-a-ac" class="edge">
<title>a-&gt;ac</title>
<path fill="none" stroke="#333333" stroke-width="1.4" d="M186.35,-375.94C189.93,-367.6 194.34,-357.38 198.37,-348.02"/>
<polygon fill="#333333" stroke="#333333" stroke-width="1.4" points="201.64,-349.26 202.38,-338.69 195.21,-346.49 201.64,-349.26"/>
</g>
<!-- ad -->
<g id="node-ad" class="node">
<title>ad</title>
<ellipse fill="#f7f7f7" stroke="#333333" cx="272" cy="-320" rx="20" ry="20"/>
<text text-anchor="middle" x="272" y="-316.6" font-family="monospace" font-size="13.00">ad</text>
</g>
<!-- a-&gt;ad -->
<g id="edge-a-ad" class="edge">
<title>a-&gt;ad</title>
<path fill="none" stroke="#333333" stroke-width="1.4" d="M201.04,-375.94C215.32,-364.88 233.9,-350.5 248.46,-339.22"/>
<polygon fill="#333333" stroke="#333333" stroke-width="1.4" points="250.75,-341.88 256.51,-332.99 246.46,-336.34 250.75,-341.88"/>
</g>
<!-- ae -->
<g id="node-ae" class="node">
<title>ae</title>
<ellipse fill="#f7f7f7" stroke="#333333" cx="86" cy="-320" rx="20" ry="20"/>
<text text-anchor="middle" x="86" y="-316.6" font-family="monospace" font-size="13.00">ae</text>
</g>
<!-- a-&gt;ae -->
<g id="edge-a-ae" class="edge">
<title>a-&gt;ae</title>
<path fill="none" stroke="#333333" stroke-width="1.4" d="M156.96,-375.94C142.68,-364.88 124.1,-350.5 109.54,-339.22"/>
<polygon fill="#333333" stroke="#333333" stroke-width="1.4" points="111.54,-336.34 101.49,-332.99 107.25,-341.88 111.54,-336.34"/>
</g>
<!-- b -->
<g id="node-b" class="node">
<title>b</title>
<text text-anchor="middle" x="103" y="-389.6" font-family="monospace" font-size="18.00" fill="#1a4d80">b</text>
</g>
<!-- b-&gt;ab -->
<g id="edge-b-ab" class="edge">
<title>b-&gt;ab</title>
<path fill="none" stroke="#333333" stroke-width="1.4" d="M113.66,-375.94C119.24,-367.02 126.16,-355.94 132.33,-346.07"/>
<polygon fill="#333333" stroke="#333333" stroke-width="1.4" points="135.39,-347.78 137.72,-337.44 129.45,-344.07 135.39,-347.78"/>
</g>
<!-- c -->
<g id="node-c" class="node">
<title>c</title>
<text text-anchor="middle" x="255" y="-389.6" font-family="monospace" font-size="18.00" fill="#1a4d80">c</text>
</g>
<!-- c-&gt;ac -->
<g id="edge-c-ac" class="edge">
<title>c-&gt;ac</title>
<path fill="none" stroke="#333333" stroke-width="1.4" d="M244.34,-375.94C238.76,-367.02 231.84,-355.94 225.67,-346.07"/>
<polygon fill="#333333" stroke="#333333" stroke-width="1.4" points="228.55,-344.07 220.28,-337.44 222.61,-347.78 228.55,-344.07"/>
</g>
<!-- d -->
<g id="node-d" class="node">
<title>d</title>
<text text-anchor="middle" x="331" y="-389.6" font-family="monospace" font-size="18.00" fill="#1a4d80">d</text>
</g>
<!-- d-&gt;ad -->
<g id="edge-d-ad" class="edge">
<title>d-&gt;ad</title>
<path fill="none" stroke="#333333" stroke-width="1.4" d="M317.02,-375.94C309.17,-366.36 299.26,-354.27 290.75,-343.88"/>
<polygon fill="#333333" stroke="#333333" stroke-width="1.4" points="293.33,-341.5 284.28,-335.99 287.91,-345.94 293.33,-341.5"/>
</g>
<!-- e -->
<g id="node-e" class="node">
<title>e</title>
<text text-anchor="middle" x="27" y="-389.6" font-family="monospace" font-size="18.00" fill="#1a4d80">e</text>
</g>
<!-- e-&gt;ae -->
<g id="edge-e-ae" class="edge">
<title>e-&gt;ae</title>
<path fill="none" stroke="#333333" stroke-width="1.4" d="M40.98,-375.94C48.83,-366.36 58.74,-354.27 67.25,-343.88"/>
<polygon fill="#333333" stroke="#333333" stroke-width="1.4" points="70.09,-345.94 73.72,-335.99 64.67,-341.5 70.09,-345.94"/>
</g>
<!-- t1 -->
<g id="node-t1" class="node">
<title>t1</title>
<ellipse fill="#f7f7f7" stroke="#333333" cx="179" cy="-244" rx="20" ry="20"/>
<text text-anchor="middle" x="179" y="-240.6" font-family="monospace" font-size="13.00">t1</text>
</g>
<!-- ab-&gt;t1 -->
<g id="edge-ab-t1" class="edge">
<title>ab-&gt;t1</title>
<path fill="none" stroke="#333333" stroke-width="1.4" stroke-dasharray="5,2" d="M155.5,-301.09C159.16,-292.36 163.63,-281.68 167.69,-272"/>
<polygon fill="#333333" stroke="#333333" stroke-width="1.4" points="170.93,-273.32 171.56,-262.75 164.47,-270.62 170.93,-273.32"/>
</g>
<!-- ac-&gt;t1 -->
<g id="edge-ac-t1" class="edge">
<title>ac-&gt;t1</title>
<path fill="none" stroke="#333333" stroke-width="1.4" stroke-dasharray="5,2" d="M202.5,-301.09C198.84,-292.36 194.37,-281.68 190.31,-272"/>
<polygon fill="#333333" stroke="#333333" stroke-width="1.4" points="193.53,-270.62 186.44,-262.75 187.07,-273.32 193.53,-270.62"/>
</g>
<!-- t2 -->
<g id="node-t2" class="node">
<title>t2</title>
<ellipse fill="#f7f7f7" stroke="#333333" cx="179" cy="-168" rx="20" ry="20"/>
<text text-anchor="middle" x="179" y="-164.6" font-family="monospace" font-size="13.00">t2</text>
</g>
<!-- ad-&gt;t2 -->
<g id="edge-ad-t2" class="edge">
<title>ad-&gt;t2</title>
<path fill="none" stroke="#333333" stroke-width="1.4" stroke-dasharray="5,2" d="M261.87,-302.66C245.66,-276.51 213.76,-225.07 194.62,-194.19"/>
<polygon fill="#333333" stroke="#333333" stroke-width="1.4" points="197.36,-191.97 189.12,-185.32 191.41,-195.66 197.36,-191.97"/>
</g>
<!-- f -->
<g id="node-f" class="node">
<title>f</title>
<ellipse fill="#f7f7f7" stroke="#333333" cx="148" cy="-92" rx="20" ry="20"/>
<text text-anchor="middle" x="148" y="-88.6" font-family="monospace" font-size="13.00">f</text>
</g>
<!-- ae-&gt;f -->
<g id="edge-ae-f" class="edge">
<title>ae-&gt;f</title>
<path fill="none" stroke="#333333" stroke-width="1.4" stroke-dasharray="5,2" d="M91.07,-300.51C101.91,-261.01 127.37,-168.2 140.25,-121.25"/>
<polygon fill="#333333" stroke="#333333" stroke-width="1.4" points="143.67,-122 142.94,-111.43 136.92,-120.15 143.67,-122"/>
</g>
<!-- t1-&gt;t2 -->
<g id="edge-t1-t2" class="edge">
<title>t1-&gt;t2</title>
<path fill="none" stroke="#333333" stroke-width="1.4" d="M179,-223.94C179,-216.15 179,-206.95 179,-198.34"/>
<polygon fill="#333333" stroke="#333333" stroke-width="1.4" points="182.5,-198.25 179,-188.25 175.5,-198.25 182.5,-198.25"/>
</g>
<!-- t2-&gt;f -->
<g id="edge-t2-f" class="edge">
<title>t2-&gt;f</title>
<path fill="none" stroke="#333333" stroke-width="1.4" d="M171.5,-149.09C167.84,-140.36 163.37,-129.68 159.31,-120"/>
<polygon fill="#333333" stroke="#333333" stroke-width="1.4" points="162.53,-118.62 155.44,-110.75 156.07,-121.32 162.53,-118.62"/>
</g>
<!-- PO -->
<g id="node-PO" class="node">
<title>PO</title>
<text text-anchor="middle" x="148" y="-14.3" font-family="monospace" font-size="14.00" fill="#806000">PO</text>
</g>
<!-- f-&gt;PO -->
<g id="edge-f-PO" class="edge">
<title>f-&gt;PO</title>
<path fill="none" stroke="#333333" stroke-width="1.4" stroke-dasharray="5,2" d="M148,-71.71C148,-63.97 148,-54.92 148,-46.52"/>
<polygon fill="#333333" stroke="#333333" stroke-width="1.4" points="151.5,-46.38 148,-36.38 144.5,-46.38 151.5,-46.38"/>
</g>
</g>
</svg>
