<?xml version="1.0" encoding="UTF-8" standalone="no"?>
<!DOCTYPE svg PUBLIC "-//W3C//DTD SVG 1.1//EN"
 "http://www.w3.org/Graphics/SVG/1.1/DTD/svg11.dtd">
<!-- Generated by graphviz version 2.43.0 (0)
 -->
<!-- Title: refactor_replace Pages: 1 -->
<svg width="366pt" height="294pt"
 viewBox="0.00 0.00 366.00 294.00" xmlns="http://www.w3.org/2000/svg" xmlns:xlink="http://www.w3.org/1999/xlink">
<g id="graph0" class="graph" transform="scale(1 1) rotate(0) translate(4 290)">
<title>refactor_replace</title>
<text text-anchor="middle" x="179" y="-271.6" font-family="monospace" font-size="13.00">Refactored replacement (4 ANDs, depth 3)</text>
<!-- a -->
<g id="aux-node-a" class="node">
<title>a</title>
<text text-anchor="middle" x="27" y="-241.6" font-family="monospace" font-size="18.00" fill="#1a4d80">a</text>
</g>
<!-- f -->
<g id="aux-node-f" class="node">
<title>f</title>
<ellipse fill="#f7f7f7" stroke="#333333" cx="65" cy="-20" rx="20" ry="20"/>
<text text-anchor="middle" x="65" y="-16.6" font-family="monospace" font-size="13.00">f</text>
</g>
<!-- a-&gt;f -->
<g id="aux-edge-a-f" class="edge">
<title>a-&gt;f</title>
<path fill="none" stroke="#333333" stroke-width="1.4" d="M29.92,-227.8C36.41,-189.51 52.12,-96.93 60.13,-49.72"/>
<polygon fill="#333333" stroke="#333333" stroke-width="1.4" points="63.58,-50.28 61.81,-39.83 56.68,-49.11 63.58,-50.28"/>
</g>
<!-- b -->
<g id="aux-node-b" class="node">
<title>b</title>
<text text-anchor="middle" x="103" y="-241.6" font-family="monospace" font-size="18.00" fill="#1a4d80">b</text>
</g>
<!-- p1 -->
<g id="aux-node-p1" class="node">
<title>p1</title>
<ellipse fill="#f7f7f7" stroke="#333333" cx="141" cy="-172" rx="20" ry="20"/>
<text text-anchor="middle" x="141" y="-168.6" font-family="monospace" font-size="13.00">p1</text>
</g>
<!-- b-&gt;p1 -->
<g id="aux-edge-b-p1" class="edge">
<title>b-&gt;p1</title>
<path fill="none" stroke="#333333" stroke-width="1.4" stroke-dasharray="5,2" d="M112.01,-227.94C116.6,-219.24 122.27,-208.48 127.39,-198.79"/>
<polygon fill="#333333" stroke="#333333" stroke-width="1.4" points="130.49,-200.42 132.06,-189.94 124.3,-197.15 130.49,-200.42"/>
</g>
<!-- c -->
<g id="aux-node-c" class="node">
<title>c</title>
<text text-anchor="middle" x="179" y="-241.6" font-family="monospace" font-size="18.00" fill="#1a4d80">c</text>
</g>
<!-- c-&gt;p1 -->
<g id="aux-edge-c-p1" class="edge">
<title>c-&gt;p1</title>
<path fill="none" stroke="#333333" stroke-width="1.4" stroke-dasharray="5,2" d="M169.99,-227.94C165.4,-219.24 159.73,-208.48 154.61,-198.79"/>
<polygon fill="#333333" stroke="#333333" stroke-width="1.4" points="157.7,-197.15 149.94,-189.94 151.51,-200.42 157.7,-197.15"/>
</g>
<!-- d -->
<g id="aux-node-d" class="node">
<title>d</title>
<text text-anchor="middle" x="255" y="-241.6" font-family="monospace" font-size="18.00" fill="#1a4d80">d</text>
</g>
<!-- p2 -->
<g id="aux-node-p2" class="node">
<title>p2</title>
<ellipse fill="#f7f7f7" stroke="#333333" cx="255" cy="-172" rx="20" ry="20"/>
<text text-anchor="middle" x="255" y="-168.6" font-family="monospace" font-size="13.00">p2</text>
</g>
<!-- d-&gt;p2 -->
<g id="aux-edge-d-p2" class="edge">
<title>d-&gt;p2</title>
<path fill="none" stroke="#333333" stroke-width="1.4" stroke-dasharray="5,2" d="M255,-227.94C255,-220.31 255,-211.1 255,-202.41"/>
<polygon fill="#333333" stroke="#333333" stroke-width="1.4" points="258.5,-202.23 255,-192.23 251.5,-202.23 258.5,-202.23"/>
</g>
<!-- e -->
<g id="aux-node-e" class="node">
<title>e</title>
<text text-anchor="middle" x="331" y="-241.6" font-family="monospace" font-size="18.00" fill="#1a4d80">e</text>
</g>
<!-- e-&gt;p2 -->
<g id="aux-edge-e-p2" class="edge">
<title>e-&gt;p2</title>
<path fill="none" stroke="#333333" stroke-width="1.4" stroke-dasharray="5,2" d="M312.99,-227.94C302.15,-217.67 288.27,-204.52 276.81,-193.66"/>
<polygon fill="#333333" stroke="#333333" stroke-width="1.4" points="279,-190.91 269.33,-186.57 274.18,-195.99 279,-190.91"/>
</g>
<!-- p3 -->
<g id="aux-node-p3" class="node">
<title>p3</title>
<ellipse fill="#f7f7f7" stroke="#333333" cx="141" cy="-96" rx="20" ry="20"/>
<text text-anchor="middle" x="141" y="-92.6" font-family="monospace" font-size="13.00">p3</text>
</g>
<!-- p1-&gt;p3 -->
<g id="aux-edge-p1-p3" class="edge">
<title>p1-&gt;p3</title>
<path fill="none" stroke="#333333" stroke-width="1.4" d="M141,-151.94C141,-144.15 141,-134.95 141,-126.34"/>
<polygon fill="#333333" stroke="#333333" stroke-width="1.4" points="144.5,-126.25 141,-116.25 137.5,-126.25 144.5,-126.25"/>
</g>
<!-- p2-&gt;p3 -->
<g id="aux-edge-p2-p3" class="edge">
<title>p2-&gt;p3</title>
<path fill="none" stroke="#333333" stroke-width="1.4" d="M238.67,-160.4C219.73,-148.1 188.29,-127.7 166.21,-113.36"/>
<polygon fill="#333333" stroke="#333333" stroke-width="1.4" points="167.97,-110.33 157.67,-107.82 164.16,-116.2 167.97,-110.33"/>
</g>
<!-- p3-&gt;f -->
<g id="aux-edge-p3-f" class="edge">
<title>p3-&gt;f</title>
<path fill="none" stroke="#333333" stroke-width="1.4" stroke-dasharray="5,2" d="M127.06,-81.43C115.6,-70.27 99.17,-54.27 86.1,-41.54"/>
<polygon fill="#333333" stroke="#333333" stroke-width="1.4" points="88.46,-38.96 78.85,-34.49 83.57,-43.97 88.46,-38.96"/>
</g>
</g>
</svg>
