<?xml version="1.0" encoding="UTF-8" standalone="no"?>
<!DOCTYPE svg PUBLIC "-//W3C//DTD SVG 1.1//EN"
 "http://www.w3.org/Graphics/SVG/1.1/DTD/svg11.dtd">
<!-- Generated by graphviz version 2.43.0 (0)
 -->
<!-- Title: resub_replace Pages: 1 -->
<svg width="220pt" height="214pt"
 viewBox="0.00 0.00 220.00 214.00" xmlns="http://www.w3.org/2000/svg" xmlns:xlink="http://www.w3.org/1999/xlink">
<g id="graph0" class="graph" transform="scale(1 1) rotate(0) translate(4 210)">
<title>resub_replace</title>
<text text-anchor="middle" x="106" y="-191.6" font-family="monospace" font-size="13.00">Divs0 replacement: f → ¬n5</text>
<!-- a -->
<g id="aux-node-a" class="node">
<title>a</title>
<text text-anchor="middle" x="64.5" y="-161.6" font-family="monospace" font-size="18.00" fill="#1a4d80">a</text>
</g>
<!-- n5 -->
<g id="aux-node-n5" class="node">
<title>n5</title>
<ellipse fill="#f7f7f7" stroke="#333333" cx="105.5" cy="-92" rx="20" ry="20"/>
<text text-anchor="middle" x="105.5" y="-88.6" font-family="monospace" font-size="13.00">n5</text>
</g>
<!-- a-&gt;n5 -->
<g id="aux-edge-a-n5" class="edge">
<title>a-&gt;n5</title>
<path fill="none" stroke="#333333" stroke-width="1.4" stroke-dasharray="5,2" d="M74.22,-147.94C79.17,-139.24 85.3,-128.48 90.81,-118.79"/>
<polygon fill="#333333" stroke="#333333" stroke-width="1.4" points="93.95,-120.36 95.85,-109.94 87.86,-116.9 93.95,-120.36"/>
</g>
<!-- b -->
<g id="aux-node-b" class="node">
<title>b</title>
<text text-anchor="middle" x="147.5" y="-161.6" font-family="monospace" font-size="18.00" fill="#1a4d80">b</text>
</g>
<!-- b-&gt;n5 -->
<g id="aux-edge-b-n5" class="edge">
<title>b-&gt;n5</title>
<path fill="none" stroke="#333333" stroke-width="1.4" stroke-dasharray="5,2" d="M137.55,-147.94C132.47,-139.24 126.2,-128.48 120.55,-118.79"/>
<polygon fill="#333333" stroke="#333333" stroke-width="1.4" points="123.44,-116.81 115.38,-109.94 117.4,-120.34 123.44,-116.81"/>
</g>
<!-- POf -->
<g id="aux-node-POf" class="node">
<title>POf</title>
<text text-anchor="middle" x="105.5" y="-14.3" font-family="monospace" font-size="14.00" fill="#806000">PO_f</text>
</g>
<!-- n5-&gt;POf -->
<g id="aux-edge-n5-POf" class="edge">
<title>n5-&gt;POf</title>
<path fill="none" stroke="#333333" stroke-width="1.4" stroke-dasharray="5,2" d="M105.5,-71.71C105.5,-63.97 105.5,-54.92 105.5,-46.52"/>
<polygon fill="#333333" stroke="#333333" stroke-width="1.4" points="109,-46.38 105.5,-36.38 102,-46.38 109,-46.38"/>
</g>
</g>
</svg>
