<?xml version="1.0" encoding="UTF-8" standalone="no"?>
<!DOCTYPE svg PUBLIC "-//W3C//DTD SVG 1.1//EN"
 "http://www.w3.org/Graphics/SVG/1.1/DTD/svg11.dtd">
<!-- Generated by graphviz version 2.43.0 (0)
 -->
<!-- Title: resub_demo Pages: 1 -->
<svg width="407pt" height="366pt"
 viewBox="0.00 0.00 407.00 366.00" xmlns="http://www.w3.org/2000/svg" xmlns:xlink="http://www.w3.org/1999/xlink">
<g id="graph0" class="graph" transform="scale(1 1) rotate(0) translate(4 362)">
<title>resub_demo</title>
<text text-anchor="middle" x="199.5" y="-343.6" font-family="monospace" font-size="13.00">Source AIG: 4 ANDs, two POs (f = a+b, g = ¬(a+b)·d)</text>
<!-- a -->
<g id="node-a" class="node">
<title>a</title>
<text text-anchor="middle" x="158" y="-313.6" font-family="monospace" font-size="18.00" fill="#1a4d80">a</text>
</g>
<!-- n5 -->
<g id="node-n5" class="node">
<title>n5</title>
<ellipse fill="#f7f7f7" stroke="#333333" cx="183" cy="-244" rx="20" ry="20"/>
<text text-anchor="middle" x="183" y="-240.6" font-family="monospace" font-size="13.00">n5</text>
</g>
<!-- a-&gt;n5 -->
<g id="edge-a-n5" class="edge">
<title>a-&gt;n5</title>
<path fill="none" stroke="#333333" stroke-width="1.4" stroke-dasharray="5,2" d="M163.92,-299.94C166.75,-291.81 170.19,-281.89 173.37,-272.73"/>
<polygon fill="#333333" stroke="#333333" stroke-width="1.4" points="176.71,-273.79 176.68,-263.2 170.09,-271.5 176.71,-273.79"/>
</g>
<!-- b -->
<g id="node-b" class="node">
<title>b</title>
<text text-anchor="middle" x="241" y="-313.6" font-family="monospace" font-size="18.00" fill="#1a4d80">b</text>
</g>
<!-- b-&gt;n5 -->
<g id="edge-b-n5" class="edge">
<title>b-&gt;n5</title>
<path fill="none" stroke="#333333" stroke-width="1.4" stroke-dasharray="5,2" d="M227.25,-299.94C219.54,-290.36 209.8,-278.27 201.43,-267.88"/>
<polygon fill="#333333" stroke="#333333" stroke-width="1.4" points="204.07,-265.58 195.07,-259.99 198.62,-269.97 204.07,-265.58"/>
</g>
<!-- c -->
<g id="node-c" class="node">
<title>c</title>
<text text-anchor="middle" x="75" y="-313.6" font-family="monospace" font-size="18.00" fill="#1a4d80">c</text>
</g>
<!-- n6 -->
<g id="node-n6" class="node">
<title>n6</title>
<ellipse fill="#f7f7f7" stroke="#333333" cx="119" cy="-168" rx="20" ry="20"/>
<text text-anchor="middle" x="119" y="-164.6" font-family="monospace" font-size="13.00">n6</text>
</g>
<!-- c-&gt;n6 -->
<g id="edge-c-n6" class="edge">
<title>c-&gt;n6</title>
<path fill="none" stroke="#333333" stroke-width="1.4" stroke-dasharray="5,2" d="M80.13,-299.73C87.6,-274.63 101.53,-227.77 110.53,-197.5"/>
<polygon fill="#333333" stroke="#333333" stroke-width="1.4" points="113.99,-198.13 113.49,-187.55 107.28,-196.14 113.99,-198.13"/>
</g>
<!-- d -->
<g id="node-d" class="node">
<title>d</title>
<text text-anchor="middle" x="324" y="-313.6" font-family="monospace" font-size="18.00" fill="#1a4d80">d</text>
</g>
<!-- g -->
<g id="node-g" class="node">
<title>g</title>
<ellipse fill="#f7f7f7" stroke="#333333" cx="273" cy="-168" rx="20" ry="20"/>
<text text-anchor="middle" x="273" y="-164.6" font-family="monospace" font-size="13.00">g</text>
</g>
<!-- d-&gt;g -->
<g id="edge-d-g" class="edge">
<title>d-&gt;g</title>
<path fill="none" stroke="#333333" stroke-width="1.4" d="M318.05,-299.73C309.32,-274.39 292.93,-226.84 282.51,-196.61"/>
<polygon fill="#333333" stroke="#333333" stroke-width="1.4" points="285.8,-195.39 279.23,-187.08 279.18,-197.67 285.8,-195.39"/>
</g>
<!-- n5-&gt;n6 -->
<g id="edge-n5-n6" class="edge">
<title>n5-&gt;n6</title>
<path fill="none" stroke="#333333" stroke-width="1.4" d="M170.36,-228.38C161.24,-217.84 148.77,-203.42 138.39,-191.43"/>
<polygon fill="#333333" stroke="#333333" stroke-width="1.4" points="140.81,-188.86 131.62,-183.59 135.51,-193.44 140.81,-188.86"/>
</g>
<!-- f -->
<g id="node-f" class="node">
<title>f</title>
<ellipse fill="#f7f7f7" stroke="#333333" cx="151" cy="-92" rx="20" ry="20"/>
<text text-anchor="middle" x="151" y="-88.6" font-family="monospace" font-size="13.00">f</text>
</g>
<!-- n5-&gt;f -->
<g id="edge-n5-f" class="edge">
<title>n5-&gt;f</title>
<path fill="none" stroke="#333333" stroke-width="1.4" stroke-dasharray="5,2" d="M179.01,-224.31C173.53,-198.59 163.6,-152.07 157.16,-121.87"/>
<polygon fill="#333333" stroke="#333333" stroke-width="1.4" points="160.55,-120.98 155.04,-111.93 153.7,-122.44 160.55,-120.98"/>
</g>
<!-- n5-&gt;g -->
<g id="edge-n5-g" class="edge">
<title>n5-&gt;g</title>
<path fill="none" stroke="#333333" stroke-width="1.4" d="M198.27,-230.45C212.45,-218.79 233.75,-201.27 249.99,-187.92"/>
<polygon fill="#333333" stroke="#333333" stroke-width="1.4" points="252.46,-190.42 257.96,-181.37 248.01,-185.02 252.46,-190.42"/>
</g>
<!-- n6-&gt;f -->
<g id="edge-n6-f" class="edge">
<title>n6-&gt;f</title>
<path fill="none" stroke="#333333" stroke-width="1.4" stroke-dasharray="5,2" d="M126.58,-149.46C130.38,-140.68 135.06,-129.85 139.31,-120.03"/>
<polygon fill="#333333" stroke="#333333" stroke-width="1.4" points="142.6,-121.24 143.36,-110.67 136.18,-118.46 142.6,-121.24"/>
</g>
<!-- POf -->
<g id="node-POf" class="node">
<title>POf</title>
<text text-anchor="middle" x="151" y="-14.3" font-family="monospace" font-size="14.00" fill="#806000">PO_f</text>
</g>
<!-- f-&gt;POf -->
<g id="edge-f-POf" class="edge">
<title>f-&gt;POf</title>
<path fill="none" stroke="#333333" stroke-width="1.4" d="M151,-71.71C151,-63.97 151,-54.92 151,-46.52"/>
<polygon fill="#333333" stroke="#333333" stroke-width="1.4" points="154.5,-46.38 151,-36.38 147.5,-46.38 154.5,-46.38"/>
</g>
<!-- POg -->
<g id="node-POg" class="node">
<title>POg</title>
<text text-anchor="middle" x="273" y="-14.3" font-family="monospace" font-size="14.00" fill="#806000">PO_g</text>
</g>
<!-- g-&gt;POg -->
<g id="edge-g-POg" class="edge">
<title>g-&gt;POg</title>
<path fill="none" stroke="#333333" stroke-width="1.4" d="M273,-147.95C273,-122.09 273,-75.7 273,-46.18"/>
<polygon fill="#333333" stroke="#333333" stroke-width="1.4" points="276.5,-46.14 273,-36.14 269.5,-46.14 276.5,-46.14"/>
</g>
</g>
</svg>
