<?xml version="1.0" encoding="UTF-8" standalone="no"?>
<!DOCTYPE svg PUBLIC "-//W3C//DTD SVG 1.1//EN"
 "http://www.w3.org/Graphics/SVG/1.1/DTD/svg11.dtd">
<!-- Generated by graphviz version 2.43.0 (0)
 -->
<!-- Title: rewrite_replace_A Pages: 1 -->
<svg width="290pt" height="294pt"
 viewBox="0.00 0.00 290.00 294.00" xmlns="http://www.w3.org/2000/svg" xmlns:xlink="http://www.w3.org/1999/xlink">
<g id="graph0" class="graph" transform="scale(1 1) rotate(0) translate(4 290)">
<title>rewrite_replace_A</title>
<text text-anchor="middle" x="141" y="-271.6" font-family="monospace" font-size="13.00">Cut A replacement (4 ANDs)</text>
<!-- a -->
<g id="auxA-node-a" class="node">
<title>a</title>
<text text-anchor="middle" x="27" y="-241.6" font-family="monospace" font-size="18.00" fill="#1a4d80">a</text>
</g>
<!-- m2 -->
<g id="auxA-node-m2" class="node">
<title>m2</title>
<ellipse fill="#f7f7f7" stroke="#333333" cx="110" cy="-96" rx="20" ry="20"/>
<text text-anchor="middle" x="110" y="-92.6" font-family="monospace" font-size="13.00">m2</text>
</g>
<!-- a-&gt;m2 -->
<g id="auxA-edge-a-m2" class="edge">
<title>a-&gt;m2</title>
<path fill="none" stroke="#333333" stroke-width="1.4" d="M36.57,-227.85C46.99,-209.18 64.15,-178.45 79,-152 84.39,-142.39 90.33,-131.85 95.55,-122.59"/>
<polygon fill="#333333" stroke="#333333" stroke-width="1.4" points="98.62,-124.27 100.49,-113.84 92.53,-120.83 98.62,-124.27"/>
</g>
<!-- b -->
<g id="auxA-node-b" class="node">
<title>b</title>
<text text-anchor="middle" x="103" y="-241.6" font-family="monospace" font-size="18.00" fill="#1a4d80">b</text>
</g>
<!-- m1 -->
<g id="auxA-node-m1" class="node">
<title>m1</title>
<ellipse fill="#f7f7f7" stroke="#333333" cx="110" cy="-172" rx="20" ry="20"/>
<text text-anchor="middle" x="110" y="-168.6" font-family="monospace" font-size="13.00">m1</text>
</g>
<!-- b-&gt;m1 -->
<g id="auxA-edge-b-m1" class="edge">
<title>b-&gt;m1</title>
<path fill="none" stroke="#333333" stroke-width="1.4" stroke-dasharray="5,2" d="M104.66,-227.94C105.41,-220.17 106.33,-210.75 107.19,-201.92"/>
<polygon fill="#333333" stroke="#333333" stroke-width="1.4" points="110.67,-202.26 108.16,-191.97 103.7,-201.58 110.67,-202.26"/>
</g>
<!-- c -->
<g id="auxA-node-c" class="node">
<title>c</title>
<text text-anchor="middle" x="255" y="-241.6" font-family="monospace" font-size="18.00" fill="#1a4d80">c</text>
</g>
<!-- m3 -->
<g id="auxA-node-m3" class="node">
<title>m3</title>
<ellipse fill="#f7f7f7" stroke="#333333" cx="179" cy="-172" rx="20" ry="20"/>
<text text-anchor="middle" x="179" y="-168.6" font-family="monospace" font-size="13.00">m3</text>
</g>
<!-- c-&gt;m3 -->
<g id="auxA-edge-c-m3" class="edge">
<title>c-&gt;m3</title>
<path fill="none" stroke="#333333" stroke-width="1.4" d="M236.99,-227.94C226.15,-217.67 212.27,-204.52 200.81,-193.66"/>
<polygon fill="#333333" stroke="#333333" stroke-width="1.4" points="203,-190.91 193.33,-186.57 198.18,-195.99 203,-190.91"/>
</g>
<!-- d -->
<g id="auxA-node-d" class="node">
<title>d</title>
<text text-anchor="middle" x="179" y="-241.6" font-family="monospace" font-size="18.00" fill="#1a4d80">d</text>
</g>
<!-- d-&gt;m1 -->
<g id="auxA-edge-d-m1" class="edge">
<title>d-&gt;m1</title>
<path fill="none" stroke="#333333" stroke-width="1.4" stroke-dasharray="5,2" d="M162.65,-227.94C153.03,-217.9 140.77,-205.11 130.51,-194.4"/>
<polygon fill="#333333" stroke="#333333" stroke-width="1.4" points="132.9,-191.84 123.45,-187.04 127.85,-196.68 132.9,-191.84"/>
</g>
<!-- d-&gt;m3 -->
<g id="auxA-edge-d-m3" class="edge">
<title>d-&gt;m3</title>
<path fill="none" stroke="#333333" stroke-width="1.4" d="M179,-227.94C179,-220.31 179,-211.1 179,-202.41"/>
<polygon fill="#333333" stroke="#333333" stroke-width="1.4" points="182.5,-202.23 179,-192.23 175.5,-202.23 182.5,-202.23"/>
</g>
<!-- m1-&gt;m2 -->
<g id="auxA-edge-m1-m2" class="edge">
<title>m1-&gt;m2</title>
<path fill="none" stroke="#333333" stroke-width="1.4" stroke-dasharray="5,2" d="M110,-151.94C110,-144.15 110,-134.95 110,-126.34"/>
<polygon fill="#333333" stroke="#333333" stroke-width="1.4" points="113.5,-126.25 110,-116.25 106.5,-126.25 113.5,-126.25"/>
</g>
<!-- f -->
<g id="auxA-node-f" class="node">
<title>f</title>
<ellipse fill="#f7f7f7" stroke="#333333" cx="137" cy="-20" rx="20" ry="20"/>
<text text-anchor="middle" x="137" y="-16.6" font-family="monospace" font-size="13.00">f</text>
</g>
<!-- m2-&gt;f -->
<g id="auxA-edge-m2-f" class="edge">
<title>m2-&gt;f</title>
<path fill="none" stroke="#333333" stroke-width="1.4" stroke-dasharray="5,2" d="M116.54,-77.09C119.66,-68.52 123.48,-58.06 126.96,-48.51"/>
<polygon fill="#333333" stroke="#333333" stroke-width="1.4" points="130.29,-49.6 130.43,-39 123.71,-47.2 130.29,-49.6"/>
</g>
<!-- m3-&gt;f -->
<g id="auxA-edge-m3-f" class="edge">
<title>m3-&gt;f</title>
<path fill="none" stroke="#333333" stroke-width="1.4" stroke-dasharray="5,2" d="M173.85,-152.61C166.64,-126.85 153.47,-79.81 144.98,-49.5"/>
<polygon fill="#333333" stroke="#333333" stroke-width="1.4" points="148.26,-48.23 142.19,-39.54 141.52,-50.12 148.26,-48.23"/>
</g>
</g>
</svg>
