<?xml version="1.0" encoding="UTF-8" standalone="no"?>
<!DOCTYPE svg PUBLIC "-//W3C//DTD SVG 1.1//EN"
 "http://www.w3.org/Graphics/SVG/1.1/DTD/svg11.dtd">
<!-- Generated by graphviz version 2.43.0 (0)
 -->
<!-- Title: rewrite_replace_B Pages: 1 -->
<svg width="377pt" height="294pt"
 viewBox="0.00 0.00 377.00 294.00" xmlns="http://www.w3.org/2000/svg" xmlns:xlink="http://www.w3.org/1999/xlink">
<g id="graph0" class="graph" transform="scale(1 1) rotate(0) translate(4 290)">
<title>rewrite_replace_B</title>
<text text-anchor="middle" x="184.5" y="-271.6" font-family="monospace" font-size="13.00">Cut B replacement (3 ANDs) — class 12 canonical</text>
<!-- a -->
<g id="auxB-node-a" class="node">
<title>a</title>
<text text-anchor="middle" x="70.5" y="-241.6" font-family="monospace" font-size="18.00" fill="#1a4d80">a</text>
</g>
<!-- m1 -->
<g id="auxB-node-m1" class="node">
<title>m1</title>
<ellipse fill="#f7f7f7" stroke="#333333" cx="146.5" cy="-172" rx="20" ry="20"/>
<text text-anchor="middle" x="146.5" y="-168.6" font-family="monospace" font-size="13.00">m1</text>
</g>
<!-- a-&gt;m1 -->
<g id="auxB-edge-a-m1" class="edge">
<title>a-&gt;m1</title>
<path fill="none" stroke="#333333" stroke-width="1.4" stroke-dasharray="5,2" d="M88.51,-227.94C99.35,-217.67 113.23,-204.52 124.69,-193.66"/>
<polygon fill="#333333" stroke="#333333" stroke-width="1.4" points="127.32,-195.99 132.17,-186.57 122.5,-190.91 127.32,-195.99"/>
</g>
<!-- c -->
<g id="auxB-node-c" class="node">
<title>c</title>
<text text-anchor="middle" x="146.5" y="-241.6" font-family="monospace" font-size="18.00" fill="#1a4d80">c</text>
</g>
<!-- c-&gt;m1 -->
<g id="auxB-edge-c-m1" class="edge">
<title>c-&gt;m1</title>
<path fill="none" stroke="#333333" stroke-width="1.4" stroke-dasharray="5,2" d="M146.5,-227.94C146.5,-220.31 146.5,-211.1 146.5,-202.41"/>
<polygon fill="#333333" stroke="#333333" stroke-width="1.4" points="150,-202.23 146.5,-192.23 143,-202.23 150,-202.23"/>
</g>
<!-- d -->
<g id="auxB-node-d" class="node">
<title>d</title>
<text text-anchor="middle" x="222.5" y="-241.6" font-family="monospace" font-size="18.00" fill="#1a4d80">d</text>
</g>
<!-- m2 -->
<g id="auxB-node-m2" class="node">
<title>m2</title>
<ellipse fill="#f7f7f7" stroke="#333333" cx="222.5" cy="-96" rx="20" ry="20"/>
<text text-anchor="middle" x="222.5" y="-92.6" font-family="monospace" font-size="13.00">m2</text>
</g>
<!-- d-&gt;m2 -->
<g id="auxB-edge-d-m2" class="edge">
<title>d-&gt;m2</title>
<path fill="none" stroke="#333333" stroke-width="1.4" d="M222.5,-227.73C222.5,-202.88 222.5,-156.68 222.5,-126.39"/>
<polygon fill="#333333" stroke="#333333" stroke-width="1.4" points="226,-126.02 222.5,-116.02 219,-126.02 226,-126.02"/>
</g>
<!-- n6 -->
<g id="auxB-node-n6" class="node">
<title>n6</title>
<text text-anchor="middle" x="298.5" y="-241.6" font-family="monospace" font-size="18.00" fill="#1a4d80">n6</text>
</g>
<!-- f -->
<g id="auxB-node-f" class="node">
<title>f</title>
<ellipse fill="#f7f7f7" stroke="#333333" cx="260.5" cy="-20" rx="20" ry="20"/>
<text text-anchor="middle" x="260.5" y="-16.6" font-family="monospace" font-size="13.00">f</text>
</g>
<!-- n6-&gt;f -->
<g id="auxB-edge-n6-f" class="edge">
<title>n6-&gt;f</title>
<path fill="none" stroke="#333333" stroke-width="1.4" stroke-dasharray="5,2" d="M295.58,-227.8C289.09,-189.51 273.38,-96.93 265.37,-49.72"/>
<polygon fill="#333333" stroke="#333333" stroke-width="1.4" points="268.82,-49.11 263.69,-39.83 261.92,-50.28 268.82,-49.11"/>
</g>
<!-- m1-&gt;m2 -->
<g id="auxB-edge-m1-m2" class="edge">
<title>m1-&gt;m2</title>
<path fill="none" stroke="#333333" stroke-width="1.4" stroke-dasharray="5,2" d="M160.44,-157.43C171.9,-146.27 188.33,-130.27 201.4,-117.54"/>
<polygon fill="#333333" stroke="#333333" stroke-width="1.4" points="203.93,-119.97 208.65,-110.49 199.04,-114.96 203.93,-119.97"/>
</g>
<!-- m2-&gt;f -->
<g id="auxB-edge-m2-f" class="edge">
<title>m2-&gt;f</title>
<path fill="none" stroke="#333333" stroke-width="1.4" stroke-dasharray="5,2" d="M231.31,-77.84C236.01,-68.68 241.89,-57.23 247.14,-47.01"/>
<polygon fill="#333333" stroke="#333333" stroke-width="1.4" points="250.28,-48.56 251.73,-38.07 244.05,-45.37 250.28,-48.56"/>
</g>
</g>
</svg>
