<?xml version="1.0" encoding="UTF-8" standalone="no"?>
<!DOCTYPE svg PUBLIC "-//W3C//DTD SVG 1.1//EN"
 "http://www.w3.org/Graphics/SVG/1.1/DTD/svg11.dtd">
<!-- Generated by graphviz version 2.43.0 (0)
 -->
<!-- Title: rewrite_replace_C Pages: 1 -->
<svg width="290pt" height="294pt"
 viewBox="0.00 0.00 290.00 294.00" xmlns="http://www.w3.org/2000/svg" xmlns:xlink="http://www.w3.org/1999/xlink">
<g id="graph0" class="graph" transform="scale(1 1) rotate(0) translate(4 290)">
<title>rewrite_replace_C</title>
<text text-anchor="middle" x="141" y="-271.6" font-family="monospace" font-size="13.00">Cut C replacement (3 ANDs)</text>
<!-- a -->
<g id="auxC-node-a" class="node">
<title>a</title>
<text text-anchor="middle" x="27" y="-241.6" font-family="monospace" font-size="18.00" fill="#1a4d80">a</text>
</g>
<!-- m1 -->
<g id="auxC-node-m1" class="node">
<title>m1</title>
<ellipse fill="#f7f7f7" stroke="#333333" cx="103" cy="-172" rx="20" ry="20"/>
<text text-anchor="middle" x="103" y="-168.6" font-family="monospace" font-size="13.00">m1</text>
</g>
<!-- a-&gt;m1 -->
<g id="auxC-edge-a-m1" class="edge">
<title>a-&gt;m1</title>
<path fill="none" stroke="#333333" stroke-width="1.4" d="M45.01,-227.94C55.85,-217.67 69.73,-204.52 81.19,-193.66"/>
<polygon fill="#333333" stroke="#333333" stroke-width="1.4" points="83.82,-195.99 88.67,-186.57 79,-190.91 83.82,-195.99"/>
</g>
<!-- d -->
<g id="auxC-node-d" class="node">
<title>d</title>
<text text-anchor="middle" x="103" y="-241.6" font-family="monospace" font-size="18.00" fill="#1a4d80">d</text>
</g>
<!-- d-&gt;m1 -->
<g id="auxC-edge-d-m1" class="edge">
<title>d-&gt;m1</title>
<path fill="none" stroke="#333333" stroke-width="1.4" d="M103,-227.94C103,-220.31 103,-211.1 103,-202.41"/>
<polygon fill="#333333" stroke="#333333" stroke-width="1.4" points="106.5,-202.23 103,-192.23 99.5,-202.23 106.5,-202.23"/>
</g>
<!-- n6 -->
<g id="auxC-node-n6" class="node">
<title>n6</title>
<text text-anchor="middle" x="179" y="-241.6" font-family="monospace" font-size="18.00" fill="#1a4d80">n6</text>
</g>
<!-- m2 -->
<g id="auxC-node-m2" class="node">
<title>m2</title>
<ellipse fill="#f7f7f7" stroke="#333333" cx="179" cy="-96" rx="20" ry="20"/>
<text text-anchor="middle" x="179" y="-92.6" font-family="monospace" font-size="13.00">m2</text>
</g>
<!-- n6-&gt;m2 -->
<g id="auxC-edge-n6-m2" class="edge">
<title>n6-&gt;m2</title>
<path fill="none" stroke="#333333" stroke-width="1.4" stroke-dasharray="5,2" d="M179,-227.73C179,-202.88 179,-156.68 179,-126.39"/>
<polygon fill="#333333" stroke="#333333" stroke-width="1.4" points="182.5,-126.02 179,-116.02 175.5,-126.02 182.5,-126.02"/>
</g>
<!-- n9 -->
<g id="auxC-node-n9" class="node">
<title>n9</title>
<text text-anchor="middle" x="255" y="-241.6" font-family="monospace" font-size="18.00" fill="#1a4d80">n9</text>
</g>
<!-- f -->
<g id="auxC-node-f" class="node">
<title>f</title>
<ellipse fill="#f7f7f7" stroke="#333333" cx="217" cy="-20" rx="20" ry="20"/>
<text text-anchor="middle" x="217" y="-16.6" font-family="monospace" font-size="13.00">f</text>
</g>
<!-- n9-&gt;f -->
<g id="auxC-edge-n9-f" class="edge">
<title>n9-&gt;f</title>
<path fill="none" stroke="#333333" stroke-width="1.4" stroke-dasharray="5,2" d="M252.08,-227.8C245.59,-189.51 229.88,-96.93 221.87,-49.72"/>
<polygon fill="#333333" stroke="#333333" stroke-width="1.4" points="225.32,-49.11 220.19,-39.83 218.42,-50.28 225.32,-49.11"/>
</g>
<!-- m1-&gt;m2 -->
<g id="auxC-edge-m1-m2" class="edge">
<title>m1-&gt;m2</title>
<path fill="none" stroke="#333333" stroke-width="1.4" stroke-dasharray="5,2" d="M116.94,-157.43C128.4,-146.27 144.83,-130.27 157.9,-117.54"/>
<polygon fill="#333333" stroke="#333333" stroke-width="1.4" points="160.43,-119.97 165.15,-110.49 155.54,-114.96 160.43,-119.97"/>
</g>
<!-- m2-&gt;f -->
<g id="auxC-edge-m2-f" class="edge">
<title>m2-&gt;f</title>
<path fill="none" stroke="#333333" stroke-width="1.4" d="M187.81,-77.84C192.51,-68.68 198.39,-57.23 203.64,-47.01"/>
<polygon fill="#333333" stroke="#333333" stroke-width="1.4" points="206.78,-48.56 208.23,-38.07 200.55,-45.37 206.78,-48.56"/>
</g>
</g>
</svg>
