<?xml version="1.0" encoding="UTF-8" standalone="no"?>
<!DOCTYPE svg PUBLIC "-//W3C//DTD SVG 1.1//EN"
 "http://www.w3.org/Graphics/SVG/1.1/DTD/svg11.dtd">
<!-- Generated by graphviz version 2.43.0 (0)
 -->
<!-- Title: sim_demo Pages: 1 -->
<svg width="415pt" height="413pt"
 viewBox="0.00 0.00 415.00 413.00" xmlns="http://www.w3.org/2000/svg" xmlns:xlink="http://www.w3.org/1999/xlink">
<g id="graph0" class="graph" transform="scale(1 1) rotate(0) translate(4 409)">
<title>sim_demo</title>
<text text-anchor="middle" x="203.5" y="-390.6" font-family="monospace" font-size="13.00">f = x0·x1 + x0·x3 + x2·x3 &#160;&#160;— &#160;&#160;bitwise sim per node</text>
<!-- x0 -->
<g id="node-x0" class="node">
<title>x0</title>
<text text-anchor="middle" x="165.5" y="-343.2" font-family="monospace" font-size="16.00" fill="#1a4d80">x0</text>
<text text-anchor="middle" x="133.5" y="-370.2" font-family="monospace" font-size="16.00" fill="#1a4d80">—</text>
</g>
<!-- t1 -->
<g id="node-t1" class="node">
<title>t1</title>
<ellipse fill="#f7f7f7" stroke="#333333" cx="136.5" cy="-269" rx="20" ry="20"/>
<text text-anchor="middle" x="136.5" y="-265.3" font-family="monospace" font-size="14.00">t1</text>
<text text-anchor="middle" x="112" y="-292.8" font-family="monospace" font-size="14.00">—</text>
</g>
<!-- x0-&gt;t1 -->
<g id="edge-x0-t1" class="edge">
<title>x0-&gt;t1</title>
<path fill="none" stroke="#333333" stroke-width="1.4" d="M158.92,-328.75C155.4,-319.53 150.98,-307.95 147,-297.51"/>
<polygon fill="#333333" stroke="#333333" stroke-width="1.4" points="150.19,-296.07 143.36,-287.97 143.65,-298.56 150.19,-296.07"/>
</g>
<!-- t2 -->
<g id="node-t2" class="node">
<title>t2</title>
<ellipse fill="#f7f7f7" stroke="#333333" cx="208.5" cy="-269" rx="20" ry="20"/>
<text text-anchor="middle" x="208.5" y="-265.3" font-family="monospace" font-size="14.00">t2</text>
<text text-anchor="middle" x="184" y="-292.8" font-family="monospace" font-size="14.00">—</text>
</g>
<!-- x0-&gt;t2 -->
<g id="edge-x0-t2" class="edge">
<title>x0-&gt;t2</title>
<path fill="none" stroke="#333333" stroke-width="1.4" d="M175.26,-328.75C180.83,-318.9 187.93,-306.36 194.13,-295.4"/>
<polygon fill="#333333" stroke="#333333" stroke-width="1.4" points="197.2,-297.08 199.08,-286.66 191.11,-293.63 197.2,-297.08"/>
</g>
<!-- x1 -->
<g id="node-x1" class="node">
<title>x1</title>
<text text-anchor="middle" x="79.5" y="-343.2" font-family="monospace" font-size="16.00" fill="#1a4d80">x1</text>
<text text-anchor="middle" x="47.5" y="-370.2" font-family="monospace" font-size="16.00" fill="#1a4d80">—</text>
</g>
<!-- x1-&gt;t1 -->
<g id="edge-x1-t1" class="edge">
<title>x1-&gt;t1</title>
<path fill="none" stroke="#333333" stroke-width="1.4" d="M92.43,-328.75C100.23,-318.35 110.28,-304.96 118.81,-293.59"/>
<polygon fill="#333333" stroke="#333333" stroke-width="1.4" points="121.77,-295.47 124.97,-285.37 116.17,-291.27 121.77,-295.47"/>
</g>
<!-- x2 -->
<g id="node-x2" class="node">
<title>x2</title>
<text text-anchor="middle" x="337.5" y="-343.2" font-family="monospace" font-size="16.00" fill="#1a4d80">x2</text>
<text text-anchor="middle" x="305.5" y="-370.2" font-family="monospace" font-size="16.00" fill="#1a4d80">—</text>
</g>
<!-- t3 -->
<g id="node-t3" class="node">
<title>t3</title>
<ellipse fill="#f7f7f7" stroke="#333333" cx="280.5" cy="-269" rx="20" ry="20"/>
<text text-anchor="middle" x="280.5" y="-265.3" font-family="monospace" font-size="14.00">t3</text>
<text text-anchor="middle" x="256" y="-292.8" font-family="monospace" font-size="14.00">—</text>
</g>
<!-- x2-&gt;t3 -->
<g id="edge-x2-t3" class="edge">
<title>x2-&gt;t3</title>
<path fill="none" stroke="#333333" stroke-width="1.4" d="M324.57,-328.75C316.77,-318.35 306.72,-304.96 298.19,-293.59"/>
<polygon fill="#333333" stroke="#333333" stroke-width="1.4" points="300.83,-291.27 292.03,-285.37 295.23,-295.47 300.83,-291.27"/>
</g>
<!-- x3 -->
<g id="node-x3" class="node">
<title>x3</title>
<text text-anchor="middle" x="251.5" y="-343.2" font-family="monospace" font-size="16.00" fill="#1a4d80">x3</text>
<text text-anchor="middle" x="219.5" y="-370.2" font-family="monospace" font-size="16.00" fill="#1a4d80">—</text>
</g>
<!-- x3-&gt;t2 -->
<g id="edge-x3-t2" class="edge">
<title>x3-&gt;t2</title>
<path fill="none" stroke="#333333" stroke-width="1.4" d="M241.74,-328.75C236.17,-318.9 229.07,-306.36 222.87,-295.4"/>
<polygon fill="#333333" stroke="#333333" stroke-width="1.4" points="225.89,-293.63 217.92,-286.66 219.8,-297.08 225.89,-293.63"/>
</g>
<!-- x3-&gt;t3 -->
<g id="edge-x3-t3" class="edge">
<title>x3-&gt;t3</title>
<path fill="none" stroke="#333333" stroke-width="1.4" d="M258.08,-328.75C261.6,-319.53 266.02,-307.95 270,-297.51"/>
<polygon fill="#333333" stroke="#333333" stroke-width="1.4" points="273.35,-298.56 273.64,-287.97 266.81,-296.07 273.35,-298.56"/>
</g>
<!-- n12 -->
<g id="node-n12" class="node">
<title>n12</title>
<ellipse fill="#f7f7f7" stroke="#333333" cx="208.5" cy="-187.5" rx="21.5" ry="21.5"/>
<text text-anchor="middle" x="208.5" y="-183.8" font-family="monospace" font-size="14.00">n12</text>
<text text-anchor="middle" x="182.5" y="-212.8" font-family="monospace" font-size="14.00">—</text>
</g>
<!-- t1-&gt;n12 -->
<g id="edge-t1-n12" class="edge">
<title>t1-&gt;n12</title>
<path fill="none" stroke="#333333" stroke-width="1.4" stroke-dasharray="5,2" d="M149.71,-253.42C160.29,-241.73 175.35,-225.1 187.58,-211.6"/>
<polygon fill="#333333" stroke="#333333" stroke-width="1.4" points="190.27,-213.84 194.39,-204.08 185.09,-209.14 190.27,-213.84"/>
</g>
<!-- t2-&gt;n12 -->
<g id="edge-t2-n12" class="edge">
<title>t2-&gt;n12</title>
<path fill="none" stroke="#333333" stroke-width="1.4" stroke-dasharray="5,2" d="M208.5,-248.76C208.5,-239.98 208.5,-229.37 208.5,-219.52"/>
<polygon fill="#333333" stroke="#333333" stroke-width="1.4" points="212,-219.24 208.5,-209.24 205,-219.24 212,-219.24"/>
</g>
<!-- n123 -->
<g id="node-n123" class="node">
<title>n123</title>
<ellipse fill="#f7f7f7" stroke="#333333" cx="243.5" cy="-101" rx="25" ry="25"/>
<text text-anchor="middle" x="243.5" y="-97.3" font-family="monospace" font-size="14.00">n123</text>
<text text-anchor="middle" x="214" y="-129.8" font-family="monospace" font-size="14.00">—</text>
</g>
<!-- t3-&gt;n123 -->
<g id="edge-t3-n123" class="edge">
<title>t3-&gt;n123</title>
<path fill="none" stroke="#333333" stroke-width="1.4" stroke-dasharray="5,2" d="M276.33,-249.28C270.2,-221.77 258.65,-169.99 251.02,-135.74"/>
<polygon fill="#333333" stroke="#333333" stroke-width="1.4" points="254.38,-134.72 248.79,-125.72 247.55,-136.24 254.38,-134.72"/>
</g>
<!-- n12-&gt;n123 -->
<g id="edge-n12-n123" class="edge">
<title>n12-&gt;n123</title>
<path fill="none" stroke="#333333" stroke-width="1.4" d="M216.44,-167.33C220.53,-157.46 225.62,-145.17 230.28,-133.92"/>
<polygon fill="#333333" stroke="#333333" stroke-width="1.4" points="233.63,-134.97 234.23,-124.39 227.17,-132.29 233.63,-134.97"/>
</g>
<!-- f -->
<g id="node-f" class="node">
<title>f</title>
<text text-anchor="middle" x="243.5" y="-14.2" font-family="monospace" font-size="16.00" fill="#806000">f</text>
<text text-anchor="middle" x="211.5" y="-41.2" font-family="monospace" font-size="16.00" fill="#806000">—</text>
</g>
<!-- n123-&gt;f -->
<g id="edge-n123-f" class="edge">
<title>n123-&gt;f</title>
<path fill="none" stroke="#333333" stroke-width="1.4" stroke-dasharray="5,2" d="M243.5,-75.7C243.5,-66.49 243.5,-55.94 243.5,-46.46"/>
<polygon fill="#333333" stroke="#333333" stroke-width="1.4" points="247,-46.34 243.5,-36.34 240,-46.34 247,-46.34"/>
</g>
</g>
</svg>
