<?xml version="1.0" encoding="UTF-8" standalone="no"?>
<!DOCTYPE svg PUBLIC "-//W3C//DTD SVG 1.1//EN"
 "http://www.w3.org/Graphics/SVG/1.1/DTD/svg11.dtd">
<!-- Generated by graphviz version 2.43.0 (0)
 -->
<!-- Title: strash_request Pages: 1 -->
<svg width="325pt" height="241pt"
 viewBox="0.00 0.00 325.00 241.00" xmlns="http://www.w3.org/2000/svg" xmlns:xlink="http://www.w3.org/1999/xlink">
<g id="graph0" class="graph" transform="scale(1 1) rotate(0) translate(4 237)">
<title>strash_request</title>
<text text-anchor="middle" x="158.5" y="-219.4" font-family="monospace" font-size="12.00">Naive build (5 separate ANDs, no strash)</text>
<!-- a -->
<g id="aux-a" class="node">
<title>a</title>
<text text-anchor="middle" x="158.5" y="-190.3" font-family="monospace" font-size="14.00" fill="#1a4d80">a</text>
</g>
<!-- r1 -->
<g id="aux-r1" class="node">
<title>r1</title>
<ellipse fill="#f7f7f7" stroke="#333333" cx="157.5" cy="-115" rx="25" ry="25"/>
<text text-anchor="middle" x="157.5" y="-118.4" font-family="monospace" font-size="12.00">r1</text>
<text text-anchor="middle" x="157.5" y="-105.4" font-family="monospace" font-size="12.00">a·b</text>
</g>
<!-- a-&gt;r1 -->
<g id="aux-edge-a-r1" class="edge">
<title>a-&gt;r1</title>
<path fill="none" stroke="#888888" stroke-width="1.2" d="M158.28,-175.91C158.18,-168.33 158.06,-159.13 157.94,-150.23"/>
<polygon fill="#888888" stroke="#888888" stroke-width="1.2" points="161.44,-150 157.81,-140.05 154.44,-150.09 161.44,-150"/>
</g>
<!-- r2 -->
<g id="aux-r2" class="node">
<title>r2</title>
<ellipse fill="#f7f7f7" stroke="#333333" cx="231.5" cy="-115" rx="25" ry="25"/>
<text text-anchor="middle" x="231.5" y="-118.4" font-family="monospace" font-size="12.00">r2</text>
<text text-anchor="middle" x="231.5" y="-105.4" font-family="monospace" font-size="12.00">a·c</text>
</g>
<!-- a-&gt;r2 -->
<g id="aux-edge-a-r2" class="edge">
<title>a-&gt;r2</title>
<path fill="none" stroke="#888888" stroke-width="1.2" d="M174.7,-175.91C184.33,-165.76 196.71,-152.7 207.46,-141.36"/>
<polygon fill="#888888" stroke="#888888" stroke-width="1.2" points="210.24,-143.51 214.58,-133.84 205.16,-138.69 210.24,-143.51"/>
</g>
<!-- r3 -->
<g id="aux-r3" class="node">
<title>r3</title>
<ellipse fill="#f7f7f7" stroke="#333333" cx="84.5" cy="-115" rx="25" ry="25"/>
<text text-anchor="middle" x="84.5" y="-118.4" font-family="monospace" font-size="12.00">r3</text>
<text text-anchor="middle" x="84.5" y="-105.4" font-family="monospace" font-size="12.00">a·b</text>
</g>
<!-- a-&gt;r3 -->
<g id="aux-edge-a-r3" class="edge">
<title>a-&gt;r3</title>
<path fill="none" stroke="#888888" stroke-width="1.2" d="M142.08,-175.91C132.16,-165.59 119.34,-152.26 108.32,-140.79"/>
<polygon fill="#888888" stroke="#888888" stroke-width="1.2" points="110.84,-138.36 101.39,-133.57 105.8,-143.21 110.84,-138.36"/>
</g>
<!-- b -->
<g id="aux-b" class="node">
<title>b</title>
<text text-anchor="middle" x="82.5" y="-190.3" font-family="monospace" font-size="14.00" fill="#1a4d80">b</text>
</g>
<!-- b-&gt;r1 -->
<g id="aux-edge-b-r1" class="edge">
<title>b-&gt;r1</title>
<path fill="none" stroke="#888888" stroke-width="1.2" d="M99.14,-175.91C109.2,-165.59 122.19,-152.26 133.35,-140.79"/>
<polygon fill="#888888" stroke="#888888" stroke-width="1.2" points="135.91,-143.18 140.38,-133.57 130.9,-138.3 135.91,-143.18"/>
</g>
<!-- b-&gt;r3 -->
<g id="aux-edge-b-r3" class="edge">
<title>b-&gt;r3</title>
<path fill="none" stroke="#888888" stroke-width="1.2" d="M82.94,-175.91C83.14,-168.33 83.38,-159.13 83.61,-150.23"/>
<polygon fill="#888888" stroke="#888888" stroke-width="1.2" points="87.11,-150.14 83.88,-140.05 80.12,-149.96 87.11,-150.14"/>
</g>
<!-- c -->
<g id="aux-c" class="node">
<title>c</title>
<text text-anchor="middle" x="234.5" y="-190.3" font-family="monospace" font-size="14.00" fill="#1a4d80">c</text>
</g>
<!-- c-&gt;r2 -->
<g id="aux-edge-c-r2" class="edge">
<title>c-&gt;r2</title>
<path fill="none" stroke="#888888" stroke-width="1.2" d="M233.83,-175.91C233.54,-168.33 233.18,-159.13 232.83,-150.23"/>
<polygon fill="#888888" stroke="#888888" stroke-width="1.2" points="236.32,-149.91 232.44,-140.05 229.33,-150.18 236.32,-149.91"/>
</g>
<!-- r4 -->
<g id="aux-r4" class="node">
<title>r4</title>
<ellipse fill="#f7f7f7" stroke="#333333" cx="157.5" cy="-27" rx="27" ry="27"/>
<text text-anchor="middle" x="157.5" y="-30.4" font-family="monospace" font-size="12.00">r4</text>
<text text-anchor="middle" x="157.5" y="-17.4" font-family="monospace" font-size="12.00">r1·¬r1</text>
</g>
<!-- r1-&gt;r4 -->
<g id="aux-edge-r1-r4" class="edge">
<title>r1-&gt;r4</title>
<path fill="none" stroke="#888888" stroke-width="1.2" d="M150.1,-90.95C149.32,-82.42 149.08,-72.54 149.37,-63.18"/>
<polygon fill="#888888" stroke="#888888" stroke-width="1.2" points="152.88,-63.1 149.94,-52.92 145.89,-62.71 152.88,-63.1"/>
</g>
<!-- r1-&gt;r4 -->
<g id="aux-edge-r1n-r4" class="edge">
<title>r1-&gt;r4</title>
<path fill="none" stroke="#888888" stroke-width="1.2" stroke-dasharray="5,2" d="M164.9,-90.95C165.68,-82.42 165.92,-72.54 165.63,-63.18"/>
<polygon fill="#888888" stroke="#888888" stroke-width="1.2" points="169.11,-62.71 165.06,-52.92 162.12,-63.1 169.11,-62.71"/>
</g>
<!-- r5 -->
<g id="aux-r5" class="node">
<title>r5</title>
<ellipse fill="#f7f7f7" stroke="#333333" cx="231.5" cy="-27" rx="25" ry="25"/>
<text text-anchor="middle" x="231.5" y="-30.4" font-family="monospace" font-size="12.00">r5</text>
<text text-anchor="middle" x="231.5" y="-17.4" font-family="monospace" font-size="12.00">r1·r2</text>
</g>
<!-- r1-&gt;r5 -->
<g id="aux-edge-r1-r5" class="edge">
<title>r1-&gt;r5</title>
<path fill="none" stroke="#888888" stroke-width="1.2" d="M173.56,-95.34C183.84,-83.39 197.33,-67.71 208.71,-54.49"/>
<polygon fill="#888888" stroke="#888888" stroke-width="1.2" points="211.61,-56.49 215.47,-46.62 206.3,-51.92 211.61,-56.49"/>
</g>
<!-- r2-&gt;r5 -->
<g id="aux-edge-r2-r5" class="edge">
<title>r2-&gt;r5</title>
<path fill="none" stroke="#888888" stroke-width="1.2" d="M231.5,-89.59C231.5,-81.07 231.5,-71.35 231.5,-62.19"/>
<polygon fill="#888888" stroke="#888888" stroke-width="1.2" points="235,-62.18 231.5,-52.18 228,-62.18 235,-62.18"/>
</g>
</g>
</svg>
