<?xml version="1.0" encoding="UTF-8" standalone="no"?>
<!DOCTYPE svg PUBLIC "-//W3C//DTD SVG 1.1//EN"
 "http://www.w3.org/Graphics/SVG/1.1/DTD/svg11.dtd">
<!-- Generated by graphviz version 2.43.0 (0)
 -->
<!-- Title: strash_request Pages: 1 -->
<svg width="160pt" height="244pt"
 viewBox="0.00 0.00 160.00 244.00" xmlns="http://www.w3.org/2000/svg" xmlns:xlink="http://www.w3.org/1999/xlink">
<g id="graph0" class="graph" transform="scale(1 1) rotate(0) translate(4 240)">
<title>strash_request</title>
<text text-anchor="middle" x="76" y="-220.8" font-family="monospace" font-size="14.00">Hash-table query</text>
<!-- in0 -->
<g id="aux-in0" class="node">
<title>in0</title>
<ellipse fill="#e0eaff" stroke="#1a4d80" stroke-width="2" cx="40" cy="-191.5" rx="21.5" ry="21.5"/>
<text text-anchor="middle" x="40" y="-187.8" font-family="monospace" font-size="14.00">?</text>
</g>
<!-- candidate -->
<g id="aux-candidate" class="node">
<title>candidate</title>
<ellipse fill="#fff6e6" stroke="#b08040" stroke-width="2" stroke-dasharray="5,2" cx="76" cy="-103" rx="27" ry="27"/>
<text text-anchor="middle" x="76" y="-99.3" font-family="monospace" font-size="14.00">AND?</text>
</g>
<!-- in0-&gt;candidate -->
<g id="aux-edge-in0" class="edge">
<title>in0-&gt;candidate</title>
<path fill="none" stroke="#888888" stroke-width="1.4" stroke-dasharray="5,2" d="M47.99,-171.3C52.13,-161.35 57.31,-148.9 62.09,-137.43"/>
<polygon fill="#888888" stroke="#888888" stroke-width="1.4" points="65.36,-138.67 65.97,-128.1 58.9,-135.98 65.36,-138.67"/>
</g>
<!-- in1 -->
<g id="aux-in1" class="node">
<title>in1</title>
<ellipse fill="#e0eaff" stroke="#1a4d80" stroke-width="2" cx="112" cy="-191.5" rx="21.5" ry="21.5"/>
<text text-anchor="middle" x="112" y="-187.8" font-family="monospace" font-size="14.00">?</text>
</g>
<!-- in1-&gt;candidate -->
<g id="aux-edge-in1" class="edge">
<title>in1-&gt;candidate</title>
<path fill="none" stroke="#888888" stroke-width="1.4" stroke-dasharray="5,2" d="M104.01,-171.3C99.87,-161.35 94.69,-148.9 89.91,-137.43"/>
<polygon fill="#888888" stroke="#888888" stroke-width="1.4" points="93.1,-135.98 86.03,-128.1 86.64,-138.67 93.1,-135.98"/>
</g>
<!-- verdict -->
<g id="aux-verdict" class="node">
<title>verdict</title>
<text text-anchor="middle" x="76" y="-14.6" font-family="monospace" font-size="13.00" fill="#666666">(awaiting request)</text>
</g>
<!-- candidate-&gt;verdict -->
<g id="aux-edge-result" class="edge">
<title>candidate-&gt;verdict</title>
<path fill="none" stroke="#888888" stroke-width="1.4" stroke-dasharray="5,2" d="M76,-75.74C76,-66.35 76,-55.76 76,-46.29"/>
<polygon fill="#888888" stroke="#888888" stroke-width="1.4" points="79.5,-46.2 76,-36.2 72.5,-46.2 79.5,-46.2"/>
</g>
</g>
</svg>
