<?xml version="1.0" encoding="UTF-8" standalone="no"?>
<!DOCTYPE svg PUBLIC "-//W3C//DTD SVG 1.1//EN"
 "http://www.w3.org/Graphics/SVG/1.1/DTD/svg11.dtd">
<!-- Generated by graphviz version 2.43.0 (0)
 -->
<!-- Title: strash_demo Pages: 1 -->
<svg width="234pt" height="310pt"
 viewBox="0.00 0.00 234.00 310.00" xmlns="http://www.w3.org/2000/svg" xmlns:xlink="http://www.w3.org/1999/xlink">
<g id="graph0" class="graph" transform="scale(1 1) rotate(0) translate(4 306)">
<title>strash_demo</title>
<!-- a -->
<g id="node-a" class="node">
<title>a</title>
<text text-anchor="middle" x="113" y="-279.6" font-family="monospace" font-size="18.00" fill="#1a4d80">a</text>
</g>
<!-- n1 -->
<g id="node-n1" class="node">
<title>n1</title>
<ellipse fill="#f7f7f7" stroke="#333333" cx="77" cy="-196" rx="20" ry="20"/>
<text text-anchor="middle" x="77" y="-192.3" font-family="monospace" font-size="14.00">n1</text>
</g>
<!-- a-&gt;n1 -->
<g id="edge-a-n1" class="edge">
<title>a-&gt;n1</title>
<path fill="none" stroke="#333333" stroke-width="1.4" d="M105.71,-265.6C100.72,-253.67 94,-237.61 88.31,-224.03"/>
<polygon fill="#333333" stroke="#333333" stroke-width="1.4" points="91.49,-222.55 84.4,-214.67 85.03,-225.25 91.49,-222.55"/>
</g>
<!-- n2 -->
<g id="node-n2" class="node">
<title>n2</title>
<ellipse fill="#f7f7f7" stroke="#333333" cx="149" cy="-196" rx="20" ry="20"/>
<text text-anchor="middle" x="149" y="-192.3" font-family="monospace" font-size="14.00">n2</text>
</g>
<!-- a-&gt;n2 -->
<g id="edge-a-n2" class="edge">
<title>a-&gt;n2</title>
<path fill="none" stroke="#333333" stroke-width="1.4" d="M120.29,-265.6C125.28,-253.67 132,-237.61 137.69,-224.03"/>
<polygon fill="#333333" stroke="#333333" stroke-width="1.4" points="140.97,-225.25 141.6,-214.67 134.51,-222.55 140.97,-225.25"/>
</g>
<!-- b -->
<g id="node-b" class="node">
<title>b</title>
<text text-anchor="middle" x="27" y="-279.6" font-family="monospace" font-size="18.00" fill="#1a4d80">b</text>
</g>
<!-- b-&gt;n1 -->
<g id="edge-b-n1" class="edge">
<title>b-&gt;n1</title>
<path fill="none" stroke="#333333" stroke-width="1.4" d="M37.12,-265.6C44.26,-253.31 53.95,-236.65 61.99,-222.82"/>
<polygon fill="#333333" stroke="#333333" stroke-width="1.4" points="65.24,-224.2 67.24,-213.79 59.19,-220.68 65.24,-224.2"/>
</g>
<!-- c -->
<g id="node-c" class="node">
<title>c</title>
<text text-anchor="middle" x="199" y="-279.6" font-family="monospace" font-size="18.00" fill="#1a4d80">c</text>
</g>
<!-- c-&gt;n2 -->
<g id="edge-c-n2" class="edge">
<title>c-&gt;n2</title>
<path fill="none" stroke="#333333" stroke-width="1.4" d="M188.88,-265.6C181.74,-253.31 172.05,-236.65 164.01,-222.82"/>
<polygon fill="#333333" stroke="#333333" stroke-width="1.4" points="166.81,-220.68 158.76,-213.79 160.76,-224.2 166.81,-220.68"/>
</g>
<!-- n3 -->
<g id="node-n3" class="node">
<title>n3</title>
<ellipse fill="#f7f7f7" stroke="#333333" cx="113" cy="-106" rx="20" ry="20"/>
<text text-anchor="middle" x="113" y="-102.3" font-family="monospace" font-size="14.00">n3</text>
</g>
<!-- n1-&gt;n3 -->
<g id="edge-n1-n3" class="edge">
<title>n1-&gt;n3</title>
<path fill="none" stroke="#333333" stroke-width="1.4" d="M84.29,-177.19C89.31,-164.91 96.09,-148.34 101.8,-134.38"/>
<polygon fill="#333333" stroke="#333333" stroke-width="1.4" points="105.18,-135.36 105.73,-124.78 98.7,-132.71 105.18,-135.36"/>
</g>
<!-- n2-&gt;n3 -->
<g id="edge-n2-n3" class="edge">
<title>n2-&gt;n3</title>
<path fill="none" stroke="#333333" stroke-width="1.4" d="M141.71,-177.19C136.69,-164.91 129.91,-148.34 124.2,-134.38"/>
<polygon fill="#333333" stroke="#333333" stroke-width="1.4" points="127.3,-132.71 120.27,-124.78 120.82,-135.36 127.3,-132.71"/>
</g>
<!-- PO -->
<g id="node-PO" class="node">
<title>PO</title>
<text text-anchor="middle" x="113" y="-14.3" font-family="monospace" font-size="14.00" fill="#806000">f</text>
</g>
<!-- n3-&gt;PO -->
<g id="edge-n3-PO" class="edge">
<title>n3-&gt;PO</title>
<path fill="none" stroke="#333333" stroke-width="1.4" d="M113,-85.91C113,-74.32 113,-59.31 113,-46.46"/>
<polygon fill="#333333" stroke="#333333" stroke-width="1.4" points="116.5,-46.28 113,-36.28 109.5,-46.28 116.5,-46.28"/>
</g>
</g>
</svg>
